<svg xmlns="http://www.w3.org/2000/svg" xmlns:xlink="http://www.w3.org/1999/xlink" viewBox="0 0 174.06 87.03"><defs><style>.cls-1{fill:url(#New_Gradient_Swatch_copy);}.cls-2{fill:#fff;}</style><linearGradient id="New_Gradient_Swatch_copy" y1="43.52" x2="174.06" y2="43.52" gradientUnits="userSpaceOnUse"><stop offset="0.02" stop-color="#3bedd8"/><stop offset="0.51" stop-color="#00abcb"/><stop offset="0.62" stop-color="#07a5d0"/><stop offset="0.79" stop-color="#1c94df"/><stop offset="0.99" stop-color="#3e79f7"/><stop offset="0.99" stop-color="#3e79f7"/></linearGradient></defs><g id="Layer_2" data-name="Layer 2"><g id="Layer_1-2" data-name="Layer 1"><path class="cls-1" d="M0,87a87,87,0,0,1,174.06,0"/><circle class="cls-2" cx="69.89" cy="26.66" r="1.75"/><circle class="cls-2" cx="69.89" cy="32.86" r="1.75"/><path class="cls-2" d="M66.59,34.58a13.5,13.5,0,0,1,0-9.57l-1.51-.71a14.93,14.93,0,0,0,0,10.86Z"/><path class="cls-2" d="M61,57.49a35.33,35.33,0,0,0-4.51-6l1.79-3.23a1.77,1.77,0,0,1,1.18-.75l.5,0,1,0L61.58,42l-2.33-.32c-2-.24-3.08-.67-3.38-1.3l-.84.21.2,3.25a24.68,24.68,0,0,1,0,2.72,21.75,21.75,0,0,1-.37,2.8s-.07.1-.17.17h-.21Q54,49.13,53,48.12l-2.8-2.62c-.6-.56-1.08-1-1.45-1.42a6.38,6.38,0,0,1-.77-.91,10.22,10.22,0,0,0-2.72-2.76h-.7l-1.75,5.68q3,1.94,3.05,4.3a13.72,13.72,0,0,1-1,4.21c-.27.69-.53,1.36-.78,2s-.49,1.35-.74,2a4.22,4.22,0,0,0-.23,1.26c0,1.53,1,2.78,2.88,3.77l1.5,0,2.33-4.89c-1.75-.64-2.63-1.62-2.63-2.93a2.93,2.93,0,0,1,.13-.88,11.67,11.67,0,0,1,.75-1.75,18,18,0,0,1,1-1.67A36.51,36.51,0,0,1,54,56.61a28.42,28.42,0,0,1,4.34,7.08H59l3.23-3.62a3.7,3.7,0,0,0-.5-1.26C61.48,58.36,61.21,57.91,61,57.49Z"/><path class="cls-2" d="M73.12,50.82c0-.44,0-1,0-1.56s.09-1.29.16-2.08.2-1.55.26-2,.09-.82.1-1A1.94,1.94,0,0,0,71.77,42l-2.54-.36c-1.26-.15-2-.58-2.33-1.31h-.71l-1.47,5.73a2.62,2.62,0,0,0,1.79,1.09l2.72.36a1.34,1.34,0,0,1,1.3,1.67c-.17,2-.26,3.28-.26,3.85v4.19a14.5,14.5,0,0,0-5.25.45l-1.31,5.85.56.43c.78-.54,2.41-.81,4.87-.81l1.22,0,2.37.06,1.39-4.55a1.61,1.61,0,0,0,0-.83A23.94,23.94,0,0,1,73.12,50.82Z"/><path class="cls-2" d="M94,42a8.41,8.41,0,0,0-3.84-.75,13.13,13.13,0,0,0-2.51.26,1,1,0,0,0-.83.71,15.88,15.88,0,0,1-2.67,5L84,47.1a8.13,8.13,0,0,1-.09-1.55,18.62,18.62,0,0,1,.17-2c.11-.73-.34-1.22-1.37-1.48l-1.34-.36c-1.22-.34-1.94-.76-2.18-1.26h-.71L76.79,46c.16.55.7,1,1.63,1.28l1.17.39a2.46,2.46,0,0,1,1.5,1.92,2.92,2.92,0,0,1-.41,2.2,16.59,16.59,0,0,0-1.79,8,15.62,15.62,0,0,0,.36,3.76h.84l2.84-1.73a29.69,29.69,0,0,1-.28-7.06A12.39,12.39,0,0,1,84.06,50a5.43,5.43,0,0,1,5.13-2.76c2.2,0,3.71.46,4.55,1.39a6.87,6.87,0,0,1,1.56,4.72,4.15,4.15,0,0,1-.92,3.12q-1.12,1-6,1H86.78l-1.33,5.68v.26l.49,0h1q6.24,0,7.57-1.26a4,4,0,0,0,.5-.64c.16-.26.32-.54.48-.86s.31-.64.46-1l.46-1a16.55,16.55,0,0,0,.81-12.37A7.15,7.15,0,0,0,94,42Z"/><path class="cls-2" d="M106.42,42.08l-1.63-.3c-1.29-.23-2.08-.69-2.37-1.37h-.68l-1.54,5.81a3.25,3.25,0,0,0,2.22,1.11l1,.17a1.52,1.52,0,0,1,1.32,1.67,6,6,0,0,1-.87,2.4,13.11,13.11,0,0,1-1.42,2.15l.45.43,2.46-1.84a13.43,13.43,0,0,0,1.2-1.55,14.92,14.92,0,0,0,1.07-1.91,9.59,9.59,0,0,0,1-4A2.5,2.5,0,0,0,106.42,42.08Z"/><path class="cls-2" d="M129.35,43.51a5.91,5.91,0,0,0-4.89-2h-8.38a6.55,6.55,0,0,1-1.69-.13,1.81,1.81,0,0,1-.87-1h-.67L111.31,46c.56.88,1.61,1.32,3.17,1.32.34,0,.4.17.17.51l-.66,1a6.73,6.73,0,0,0-1.14,3.59,18.39,18.39,0,0,0,1,5.54,22.49,22.49,0,0,0,2.63,5.49l.92,0h.87c3.62,0,6.12-.6,7.5-1.82a16.71,16.71,0,0,0,1.91-1.95,17.09,17.09,0,0,0,1.54-2.21A15,15,0,0,0,131.28,50,9.9,9.9,0,0,0,129.35,43.51ZM127.58,55a5.61,5.61,0,0,1-2.78,2,13.53,13.53,0,0,1-5.13.91c-.26,0-.51,0-.77,0s-.5,0-.75-.06a10.47,10.47,0,0,1-2.45-7.27,5,5,0,0,1,.62-2.26,1.77,1.77,0,0,1,1.71-1h5.72a4.49,4.49,0,0,1,3.32,1.26,4.43,4.43,0,0,1,1.28,3.29A5.76,5.76,0,0,1,127.58,55Z"/></g></g></svg>