<svg xmlns="http://www.w3.org/2000/svg" xmlns:xlink="http://www.w3.org/1999/xlink" viewBox="0 0 107.72 107.72"><defs><style>.cls-1{fill:url(#linear-gradient);}.cls-2{fill:#fff;stroke:#fff;stroke-miterlimit:10;}</style><linearGradient id="linear-gradient" x1="26.93" y1="7.21" x2="80.79" y2="100.51" gradientUnits="userSpaceOnUse"><stop offset="0" stop-color="#f7931e"/><stop offset="0.24" stop-color="#f68c1f"/><stop offset="0.61" stop-color="#f47721"/><stop offset="1" stop-color="#f15a24"/></linearGradient></defs><g id="Layer_2" data-name="Layer 2"><g id="Layer_1-2" data-name="Layer 1"><circle class="cls-1" cx="53.86" cy="53.86" r="53.86"/><path class="cls-2" d="M36,71.54a5.19,5.19,0,0,1-2.43-.47A4,4,0,0,1,32.25,70a3.78,3.78,0,0,1-.56-1.15,5.76,5.76,0,0,1-.14-.67h0s0-.21.18-.84a4.76,4.76,0,0,1,.69-1.56,5.52,5.52,0,0,1,1.48-1.5,4.12,4.12,0,0,1,2.41-.61,11.23,11.23,0,0,1,1.93.16,7.09,7.09,0,0,1,1.23.37h0s0-.09,0-.2l2-.12V40.06a2.1,2.1,0,0,1,.33-.83,3.55,3.55,0,0,1,.93-.7,5.48,5.48,0,0,1,2-.53h.1l20-4.34a2.78,2.78,0,0,1,.72-.13h.14l.12,0a1,1,0,0,1,.44.43,2.74,2.74,0,0,1,.11,1.58V62.73a3.34,3.34,0,0,1-.36,1.4,4.44,4.44,0,0,1-1.15,1.47,6.91,6.91,0,0,1-2,1.19,7.58,7.58,0,0,1-2.77.47,5.14,5.14,0,0,1-2.42-.47,4.23,4.23,0,0,1-1.34-1.09,3.3,3.3,0,0,1-.57-1.12c-.07-.3-.12-.51-.14-.63s.07-.31.22-.8a6.91,6.91,0,0,1,.77-1.67A5.36,5.36,0,0,1,58,60a4,4,0,0,1,2.34-.62,10.46,10.46,0,0,1,1.93.16,5,5,0,0,1,1.19.38h0s0-.07,0-.17l2-.1.06-18.21a3.14,3.14,0,0,0-.74-2l-.07-.08a3.92,3.92,0,0,0-1.79-.94,4.35,4.35,0,0,0-1-.11,8.89,8.89,0,0,0-2,.28L45.77,42a5.52,5.52,0,0,0-1.66.63,4.72,4.72,0,0,0-1.21,1.19,3.34,3.34,0,0,0-.57,1.94V67a3.36,3.36,0,0,1-.37,1.4,4.78,4.78,0,0,1-1.16,1.51,6.68,6.68,0,0,1-2,1.21A7.75,7.75,0,0,1,36,71.54Z"/></g></g></svg>