<svg xmlns="http://www.w3.org/2000/svg" xmlns:xlink="http://www.w3.org/1999/xlink" viewBox="0 0 107.72 107.72"><defs><style>.cls-1{fill:url(#linear-gradient);}.cls-2{fill:#fff;}</style><linearGradient id="linear-gradient" x1="26.93" y1="7.21" x2="80.79" y2="100.51" gradientUnits="userSpaceOnUse"><stop offset="0" stop-color="#f7931e"/><stop offset="0.24" stop-color="#f68c1f"/><stop offset="0.61" stop-color="#f47721"/><stop offset="1" stop-color="#f15a24"/></linearGradient></defs><g id="Layer_2" data-name="Layer 2"><g id="Layer_1-2" data-name="Layer 1"><circle class="cls-1" cx="53.86" cy="53.86" r="53.86"/><path class="cls-2" d="M57,75.35a3.23,3.23,0,0,1-2.32-1L35.35,55.06a3.32,3.32,0,0,1-1-2.35v-15a3.3,3.3,0,0,1,3.3-3.3h15a3.23,3.23,0,0,1,2.32,1L74.37,54.67a3.32,3.32,0,0,1,1,2.34,3.2,3.2,0,0,1-1,2.31l-15,15.05A3.21,3.21,0,0,1,57,75.35ZM36.67,37.67v15l.29.71L56.3,72.78h1.42l15-15.09V56.28L53.42,36.94l-.71-.27h-15Z"/><path class="cls-2" d="M43,45.27A2.23,2.23,0,1,1,45.27,43,2.23,2.23,0,0,1,43,45.27Z"/></g></g></svg>