<svg xmlns="http://www.w3.org/2000/svg" xmlns:xlink="http://www.w3.org/1999/xlink" viewBox="0 0 107.72 107.72"><defs><style>.cls-1{fill:url(#linear-gradient);}.cls-2{fill:none;stroke:#fff;stroke-linecap:round;stroke-linejoin:round;stroke-width:2.04px;}</style><linearGradient id="linear-gradient" x1="26.93" y1="7.21" x2="80.79" y2="100.51" gradientUnits="userSpaceOnUse"><stop offset="0" stop-color="#f7931e"/><stop offset="0.24" stop-color="#f68c1f"/><stop offset="0.61" stop-color="#f47721"/><stop offset="1" stop-color="#f15a24"/></linearGradient></defs><g id="Layer_2" data-name="Layer 2"><g id="Layer_1-2" data-name="Layer 1"><circle class="cls-1" cx="53.86" cy="53.86" r="53.86"/><path class="cls-2" d="M44.19,92.79H37.76a5.87,5.87,0,0,1-5.85-6.3l2.64-36.37a5.87,5.87,0,0,1,5.85-5.45h1.15a5.87,5.87,0,0,1,5.86,5.45l2.64,36.37A5.88,5.88,0,0,1,44.19,92.79Z"/><path class="cls-2" d="M49.92,32.33a8.94,8.94,0,0,1-17.88,0C32,27.4,41,18.85,41,18.85S49.92,27.4,49.92,32.33Z"/><path class="cls-2" d="M68,92.79H61.53a5.88,5.88,0,0,1-5.86-6.3l2.64-36.37a5.87,5.87,0,0,1,5.86-5.45h1.15a5.87,5.87,0,0,1,5.85,5.45l2.64,36.37A5.87,5.87,0,0,1,68,92.79Z"/><path class="cls-2" d="M73.68,32.33a8.94,8.94,0,0,1-17.88,0c0-4.93,8.94-13.48,8.94-13.48S73.68,27.4,73.68,32.33Z"/></g></g></svg>