<?xml version="1.0" standalone="no"?>
<!DOCTYPE svg PUBLIC "-//W3C//DTD SVG 1.1//EN" "http://www.w3.org/Graphics/SVG/1.1/DTD/svg11.dtd" >
<svg xmlns="http://www.w3.org/2000/svg" xmlns:xlink="http://www.w3.org/1999/xlink" version="1.1">
<metadata>
Created by FontForge 20190801 at Mon Apr  4 12:24:49 2016
 By www-data
Copyright 2010 The Amirim Project Authors, with Reserved Font Name 'Source'. Source is a trademark of Adobe Systems Incorporated in the United States and/or other countries.
</metadata>
<defs>
<font id="AssistantRegular" horiz-adv-x="0" >
  <font-face 
    font-family="AssistantRegular"
    font-weight="400"
    font-stretch="normal"
    units-per-em="1000"
    panose-1="0 0 5 0 0 0 0 0 0 0"
    ascent="800"
    descent="-200"
    x-height="485"
    cap-height="657"
    bbox="-454 -259 1141 1021"
    underline-thickness="50"
    underline-position="-100"
    unicode-range="U+0020-FB4B"
  />
<missing-glyph horiz-adv-x="648" 
d="M90 660h468v-660h-468v660zM326 383l50 94l71 128h-247l71 -128l51 -94h4zM283 340l-133 239v-476zM496 579l-131 -239l131 -237v476zM458 54l-78 140l-54 103h-4l-56 -103l-79 -140h271z" />
    <glyph glyph-name="fi" unicode="fi" horiz-adv-x="526" 
d="M169 568v-83h105v-60h-105v-425h-73v425h-66v55l66 5v84q0 75 34.5 116t102.5 41q39 0 78 -16l-16 -56q-28 12 -56 12q-70 0 -70 -98zM369 485h72v-485h-72v485zM370 603q-14 14 -14 37q0 22 14 35.5t36 13.5t36 -13.5t14 -35.5q0 -23 -14 -37t-36 -14t-36 14z" />
    <glyph glyph-name="fl" unicode="fl" horiz-adv-x="534" 
d="M169 568v-83h105v-60h-105v-425h-73v425h-66v55l66 5v84q0 75 34.5 116t102.5 41q39 0 78 -16l-16 -56q-28 12 -56 12q-70 0 -70 -98zM388 13.5q-19 25.5 -19 75.5v625h72v-631q0 -17 6.5 -25.5t16.5 -8.5q8 0 18 2l10 -56q-19 -7 -44 -7q-41 0 -60 25.5z" />
    <glyph glyph-name=".notdef" horiz-adv-x="648" 
d="M90 660h468v-660h-468v660zM326 383l50 94l71 128h-247l71 -128l51 -94h4zM283 340l-133 239v-476zM496 579l-131 -239l131 -237v476zM458 54l-78 140l-54 103h-4l-56 -103l-79 -140h271z" />
    <glyph glyph-name=".null" 
 />
    <glyph glyph-name="nonmarkingreturn" horiz-adv-x="333" 
 />
    <glyph glyph-name="space" unicode=" " horiz-adv-x="200" 
 />
    <glyph glyph-name="exclam" unicode="!" horiz-adv-x="282" 
d="M106 582l-2 88h74l-2 -88l-10 -388h-50zM102 4.5q-16 16.5 -16 41.5q0 26 16 42.5t39 16.5t39 -16.5t16 -42.5q0 -25 -16 -41.5t-39 -16.5t-39 16.5z" />
    <glyph glyph-name="quotedbl" unicode="&#x22;" horiz-adv-x="409" 
d="M83 605l-2 86h78l-2 -86l-14 -162h-46zM251 605l-2 86h78l-2 -86l-14 -162h-46z" />
    <glyph glyph-name="numbersign" unicode="#" horiz-adv-x="492" 
d="M116 207h-81v52h87l19 153h-86v52h92l24 186h48l-23 -186h137l24 186h48l-23 -186h80v-52h-86l-19 -153h85v-52h-91l-25 -207h-49l25 207h-137l-25 -207h-49zM308 259l19 153h-137l-19 -153h137z" />
    <glyph glyph-name="dollar" unicode="$" horiz-adv-x="492" 
d="M390 45q-42 -46 -112 -55v-100h-55v99q-47 4 -92 25.5t-77 51.5l34 50q78 -67 157 -67q56 0 86 29t30 79q0 39 -18 66t-44.5 44t-71.5 40q-48 24 -77.5 44.5t-50 53t-20.5 79.5q0 66 39.5 110.5t104.5 53.5v100h55v-99q44 -4 76.5 -23t63.5 -51l-39 -44
q-32 31 -58.5 44.5t-65.5 13.5q-47 0 -75.5 -28t-28.5 -73q0 -33 16 -56t40 -38t66 -35q52 -26 83.5 -47t53.5 -58t22 -92q0 -71 -42 -117z" />
    <glyph glyph-name="percent" unicode="%" horiz-adv-x="817" 
d="M75.5 316q-39.5 55 -39.5 153q0 97 39.5 151.5t107.5 54.5t107.5 -54.5t39.5 -151.5q0 -98 -39.5 -153t-107.5 -55t-107.5 55zM563 669h51l-363 -681h-51zM249.5 349q24.5 42 24.5 120t-24.5 119t-66.5 41t-66.5 -41t-24.5 -119t24.5 -120t66.5 -42t66.5 42zM526.5 43
q-39.5 55 -39.5 153q0 97 39.5 151.5t107.5 54.5t107.5 -54.5t39.5 -151.5q0 -98 -39.5 -153t-107.5 -55t-107.5 55zM699.5 76q24.5 42 24.5 120t-24 119t-66 41t-66.5 -41t-24.5 -119t24.5 -120t66.5 -42q41 0 65.5 42z" />
    <glyph glyph-name="ampersand" unicode="&#x26;" horiz-adv-x="600" 
d="M566 -12q-70 20 -148 77q-84 -77 -187 -77q-57 0 -102 23t-70.5 64.5t-25.5 93.5q0 60 34.5 103.5t96.5 87.5q-44 85 -44 155q0 66 41.5 110t106.5 44q58 0 91 -35t33 -92q0 -40 -20.5 -74t-50.5 -60.5t-78 -60.5q32 -53 76.5 -103.5t93.5 -91.5q64 82 96 200h68
q-42 -142 -115 -238q68 -48 124 -65zM216 396q57 39 86.5 71t29.5 73q0 32 -16 54t-48 22q-38 0 -61 -28t-23 -71q0 -54 32 -121zM143 82q39 -35 96 -35q66 0 131 57q-109 95 -177 205q-43 -34 -66 -66t-23 -70q0 -56 39 -91z" />
    <glyph glyph-name="quotesingle" unicode="'" horiz-adv-x="242" 
d="M83 605l-2 86h78l-2 -86l-14 -162h-46z" />
    <glyph glyph-name="parenleft" unicode="(" horiz-adv-x="297" 
d="M116.5 40.5q-33.5 110.5 -33.5 237.5t33.5 237.5t98.5 216.5l45 -22q-57 -94 -86.5 -205t-29.5 -227t29.5 -227t86.5 -205l-45 -22q-65 106 -98.5 216.5z" />
    <glyph glyph-name="parenright" unicode=")" horiz-adv-x="297" 
d="M37 -154q57 94 86.5 205t29.5 227t-29.5 227t-86.5 205l45 22q65 -106 98.5 -216.5t33.5 -237.5t-33.5 -237.5t-98.5 -216.5z" />
    <glyph glyph-name="asterisk" unicode="*" horiz-adv-x="412" 
d="M100 457l56 93l-95 39l14 42l100 -26l9 107h44l9 -105l100 24l14 -42l-95 -39l56 -93l-37 -26l-68 85l-70 -85z" />
    <glyph glyph-name="plus" unicode="+" horiz-adv-x="492" 
d="M216 302h-182v56h182v197h60v-197h182v-56h-182v-197h-60v197z" />
    <glyph glyph-name="comma" unicode="," horiz-adv-x="242" 
d="M172.5 81q17.5 -24 17.5 -66q0 -61 -33.5 -108.5t-90.5 -72.5l-19 44q41 18 63.5 49t23.5 72q-3 -1 -10 -1q-24 0 -40 14.5t-16 39.5q0 24 17 38.5t40 14.5q30 0 47.5 -24z" />
    <glyph glyph-name="hyphen" unicode="-" horiz-adv-x="308" 
d="M41 279h227v-57h-227v57z" />
    <glyph glyph-name="period" unicode="." horiz-adv-x="242" 
d="M82 4.5q-16 16.5 -16 41.5q0 26 16 42.5t39 16.5t39 -16.5t16 -42.5q0 -25 -16 -41.5t-39 -16.5t-39 16.5z" />
    <glyph glyph-name="slash" unicode="/" horiz-adv-x="352" 
d="M287 710h54l-277 -870h-54z" />
    <glyph glyph-name="zero" unicode="0" horiz-adv-x="492" 
d="M98 75q-53 87 -53 246t53 244t148 85t148 -85t53 -244t-53 -246t-148 -87t-148 87zM341.5 115.5q34.5 68.5 34.5 205.5t-34.5 203.5t-95.5 66.5t-95.5 -66.5t-34.5 -203.5t34.5 -205.5t95.5 -68.5t95.5 68.5z" />
    <glyph glyph-name="one" unicode="1" horiz-adv-x="451" 
d="M49 61h147v485h-116v47q81 14 133 45h56v-577h133v-61h-353v61z" />
    <glyph glyph-name="two" unicode="2" horiz-adv-x="492" 
d="M40 43q113 114 175 183t95.5 127t33.5 109q0 58 -32 93t-94 35q-38 0 -73.5 -21t-65.5 -57l-43 42q42 46 88 71t103 25q87 0 138 -50.5t51 -134.5q0 -58 -32.5 -119t-85.5 -123t-151 -165l24 1q56 4 83 4h193v-63h-407v43z" />
    <glyph glyph-name="three" unicode="3" horiz-adv-x="492" 
d="M27 78l37 48q35 -36 74.5 -56.5t92.5 -20.5q61 0 99 33.5t38 89.5q0 132 -209 132v57q98 0 142 34t44 90q0 48 -31 76.5t-84 28.5q-76 0 -139 -66l-40 47q84 79 181 79q83 0 135 -42.5t52 -117.5q0 -56 -31.5 -94.5t-86.5 -58.5v-4q62 -14 101.5 -57t39.5 -106
q0 -55 -27.5 -96.5t-74.5 -63.5t-105 -22q-126 0 -208 90z" />
    <glyph glyph-name="four" unicode="4" horiz-adv-x="492" 
d="M463 180h-89v-180h-69v180h-288v47l279 411h78v-400h89v-58zM305 238v198q0 38 5 120h-4q-20 -36 -31 -53l-21 -35l-159 -230h210z" />
    <glyph glyph-name="five" unicode="5" horiz-adv-x="492" 
d="M113.5 12q-49.5 24 -88.5 63l37 48q34 -34 72.5 -54t91.5 -20q40 0 73 19t52 53.5t19 79.5q0 68 -38 107t-102 39q-32 0 -56.5 -9t-55.5 -30l-40 25l21 305h313v-63h-249l-18 -199q25 14 49 21t53 7q87 0 142 -50.5t55 -149.5q0 -66 -29.5 -115t-78 -75t-104.5 -26
q-69 0 -118.5 24z" />
    <glyph glyph-name="six" unicode="6" horiz-adv-x="492" 
d="M403 338q48 -51 48 -147q0 -59 -25 -105t-67.5 -72t-92.5 -26q-64 0 -113 34.5t-76.5 103.5t-27.5 167q0 124 33 204t87 116.5t121 36.5q88 0 149 -66l-41 -46q-20 24 -47.5 37.5t-58.5 13.5q-76 0 -124 -67.5t-50 -216.5q31 39 72 61.5t81 22.5q84 0 132 -51zM349 87
q33 41 33 104q0 67 -31 104.5t-92 37.5q-34 0 -70.5 -21.5t-68.5 -66.5q8 -96 45 -147.5t102 -51.5q49 0 82 41z" />
    <glyph glyph-name="seven" unicode="7" horiz-adv-x="492" 
d="M230 313.5q42 129.5 136 261.5h-322v63h406v-44q-74 -96 -114.5 -184t-57.5 -182t-23 -228h-75q8 184 50 313.5z" />
    <glyph glyph-name="eight" unicode="8" horiz-adv-x="492" 
d="M142 10.5q-47 22.5 -74 62.5t-27 90q0 58 35 102t87 72v4q-90 63 -90 147q0 48 23 84.5t63.5 57t90.5 20.5q82 0 130.5 -47t48.5 -122q0 -46 -27 -87.5t-62 -68.5v-4q52 -31 81.5 -68t29.5 -95q0 -47 -25.5 -86t-71.5 -61.5t-106 -22.5q-59 0 -106 22.5zM365 478
q0 51 -31 84t-85 33q-47 0 -77.5 -29.5t-30.5 -77.5q0 -53 39 -84t113 -60q72 63 72 134zM344.5 75.5q36.5 32.5 36.5 83.5q0 41 -23.5 68.5t-57.5 44.5t-98 42q-43 -27 -69 -64t-26 -81q0 -54 41 -90t102 -36q58 0 94.5 32.5z" />
    <glyph glyph-name="nine" unicode="9" horiz-adv-x="492" 
d="M338.5 615.5q49.5 -34.5 77 -103t27.5 -167.5q0 -124 -33 -204t-87 -116.5t-121 -36.5q-90 0 -149 66l41 46q20 -24 47.5 -37.5t57.5 -13.5q76 0 124 67t50 216q-31 -39 -71.5 -61t-80.5 -22q-85 0 -133 50.5t-48 147.5q0 58 25 104.5t67.5 72.5t92.5 26
q64 0 113.5 -34.5zM302.5 326q36.5 21 68.5 66q-7 96 -44 148t-102 52q-49 0 -82 -40.5t-33 -104.5q0 -67 31 -104.5t92 -37.5q33 0 69.5 21z" />
    <glyph glyph-name="colon" unicode=":" horiz-adv-x="242" 
d="M82 370.5q-16 16.5 -16 41.5q0 26 16 42.5t39 16.5t39 -16.5t16 -42.5q0 -25 -16 -41.5t-39 -16.5t-39 16.5zM82 4.5q-16 16.5 -16 41.5q0 26 16 42.5t39 16.5t39 -16.5t16 -42.5q0 -25 -16 -41.5t-39 -16.5t-39 16.5z" />
    <glyph glyph-name="semicolon" unicode=";" horiz-adv-x="242" 
d="M82 370.5q-16 16.5 -16 41.5q0 26 16 42.5t39 16.5t39 -16.5t16 -42.5q0 -25 -16 -41.5t-39 -16.5t-39 16.5zM172.5 81q17.5 -24 17.5 -66q0 -61 -33.5 -108.5t-90.5 -72.5l-19 44q41 18 63.5 49t23.5 72q-3 -1 -10 -1q-24 0 -40 14.5t-16 39.5q0 24 17 38.5t40 14.5
q30 0 47.5 -24z" />
    <glyph glyph-name="less" unicode="&#x3c;" horiz-adv-x="492" 
d="M34 302v60l424 167v-64l-349 -131v-4l349 -131v-64z" />
    <glyph glyph-name="equal" unicode="=" horiz-adv-x="492" 
d="M34 464h424v-56h-424v56zM34 252h424v-56h-424v56z" />
    <glyph glyph-name="greater" unicode="&#x3e;" horiz-adv-x="492" 
d="M34 199l350 131v4l-350 131v64l424 -167v-60l-424 -167v64z" />
    <glyph glyph-name="question" unicode="?" horiz-adv-x="419" 
d="M158 222q0 49 20 86.5t58 84.5q32 38 47.5 66t15.5 60q0 44 -26 73t-75 29q-33 0 -63.5 -15.5t-54.5 -43.5l-42 39q72 81 168 81q75 0 120 -43t45 -115q0 -41 -18 -74t-55 -79q-36 -44 -55 -78.5t-19 -77.5q0 -14 1 -21h-65q-2 20 -2 28zM156 4.5q-16 16.5 -16 41.5
q0 26 16 42.5t39 16.5t39 -16.5t16 -42.5q0 -25 -16 -41.5t-39 -16.5t-39 16.5z" />
    <glyph glyph-name="at" unicode="@" horiz-adv-x="839" 
d="M221 -111.5q-79 41.5 -124.5 122t-45.5 192.5q0 129 56.5 229.5t151 155.5t204.5 55q99 0 172.5 -41t113 -115t39.5 -172q0 -82 -29.5 -142t-74.5 -91t-92 -31q-42 0 -70 19.5t-32 56.5h-2q-26 -31 -57.5 -50t-63.5 -19q-52 0 -86 37t-34 103q0 53 24 107t67.5 88.5
t99.5 34.5q53 0 81 -48h2l10 40h50l-38 -197q-8 -34 -8 -55q0 -66 64 -66q32 0 63.5 25.5t52 73.5t20.5 111q0 83 -32.5 146.5t-95 99t-150.5 35.5q-90 0 -171 -48.5t-130.5 -137t-49.5 -201.5q0 -95 38 -165t106 -107t154 -37t164 46l20 -44q-85 -52 -189 -52
q-99 0 -178 41.5zM476 170l29 163q-15 24 -30.5 33.5t-36.5 9.5q-38 0 -68 -26.5t-46.5 -67t-16.5 -80.5q0 -48 19.5 -70.5t52.5 -22.5q45 0 97 61z" />
    <glyph glyph-name="A" unicode="A" horiz-adv-x="539" 
d="M391 207h-245l-67 -207h-75l225 657h82l224 -657h-78zM372 266l-34 106q-40 125 -68 223h-4q-33 -121 -67 -223l-34 -106h207z" />
    <glyph glyph-name="B" unicode="B" horiz-adv-x="585" 
d="M92 657h190q105 0 164.5 -39.5t59.5 -121.5q0 -50 -26 -88.5t-72 -53.5v-4q63 -12 99.5 -52.5t36.5 -105.5q0 -94 -66.5 -143t-180.5 -49h-205v657zM267 375q166 0 166 112q0 59 -40 85t-122 26h-105v-223h101zM285 59q90 0 138 33.5t48 101.5q0 124 -186 124h-119v-259
h119z" />
    <glyph glyph-name="C" unicode="C" horiz-adv-x="569" 
d="M189.5 29q-64.5 41 -101 118t-36.5 181q0 103 37 180.5t103 119t149 41.5q55 0 101 -23t77 -57l-41 -49q-57 64 -136 64q-64 0 -112 -33.5t-74.5 -95t-26.5 -145.5t25.5 -146.5t73 -96.5t111.5 -34q46 0 83.5 19t72.5 57l41 -46q-40 -47 -89 -71t-111 -24
q-82 0 -146.5 41z" />
    <glyph glyph-name="D" unicode="D" horiz-adv-x="613" 
d="M92 657h161q150 0 228.5 -85t78.5 -241t-78.5 -243.5t-225.5 -87.5h-164v657zM247 61q118 0 177.5 70.5t59.5 199.5q0 127 -59.5 196t-177.5 69h-81v-535h81z" />
    <glyph glyph-name="E" unicode="E" horiz-adv-x="524" 
d="M92 657h373v-63h-299v-217h252v-62h-252v-252h309v-63h-383v657z" />
    <glyph glyph-name="F" unicode="F" horiz-adv-x="490" 
d="M92 657h373v-63h-299v-232h253v-62h-253v-300h-74v657z" />
    <glyph glyph-name="G" unicode="G" horiz-adv-x="614" 
d="M192.5 29q-66.5 41 -103.5 118t-37 181t38 181t106 118.5t155 41.5q109 0 187 -80l-41 -49q-60 64 -144 64q-68 0 -118.5 -33.5t-78 -95t-27.5 -145.5q0 -128 59 -202.5t164 -74.5q37 0 71 11.5t55 30.5v179h-144v62h212v-272q-33 -35 -85 -55.5t-116 -20.5
q-86 0 -152.5 41z" />
    <glyph glyph-name="H" unicode="H" horiz-adv-x="648" 
d="M92 657h74v-278h317v278h74v-657h-74v314h-317v-314h-74v657z" />
    <glyph glyph-name="I" unicode="I" horiz-adv-x="257" 
d="M92 657h74v-657h-74v657z" />
    <glyph glyph-name="J" unicode="J" horiz-adv-x="475" 
d="M34 91l53 37q22 -39 51 -57t66 -18q55 0 81.5 34.5t26.5 109.5v460h74v-467q0 -90 -43 -146t-133 -56q-119 0 -176 103z" />
    <glyph glyph-name="K" unicode="K" horiz-adv-x="573" 
d="M92 657h74v-339h2l285 339h84l-207 -249l238 -408h-83l-201 351l-118 -139v-212h-74v657z" />
    <glyph glyph-name="L" unicode="L" horiz-adv-x="481" 
d="M92 657h74v-594h290v-63h-364v657z" />
    <glyph glyph-name="M" unicode="M" horiz-adv-x="721" 
d="M92 657h91l129 -360l48 -139h4q7 19 19 57q16 48 28 82l127 360h92v-657h-69v380q0 60 9 190h-4l-52 -149l-128 -353h-52l-129 353l-52 149h-4l2 -25q8 -106 8 -165v-380h-67v657z" />
    <glyph glyph-name="N" unicode="N" horiz-adv-x="644" 
d="M92 657h76l248 -426l72 -135h4l-3 44q-1 16 -4 67.5t-3 93.5v356h70v-657h-76l-248 426l-72 135h-4l3 -48q7 -87 7 -153v-360h-70v657z" />
    <glyph glyph-name="O" unicode="O" horiz-adv-x="661" 
d="M186 30q-63 42 -98.5 120t-35.5 181t35.5 179.5t98.5 117.5t145 41q81 0 144 -41t98.5 -117.5t35.5 -179.5t-35.5 -181t-98.5 -120t-144 -42q-82 0 -145 42zM436.5 87.5q45.5 34.5 70.5 97t25 146.5q0 83 -25 144.5t-70.5 95t-105.5 33.5q-61 0 -106.5 -33.5t-70.5 -95
t-25 -144.5q0 -84 25 -147t71 -97t106 -34t105.5 34.5z" />
    <glyph glyph-name="P" unicode="P" horiz-adv-x="562" 
d="M92 657h182q117 0 180.5 -44.5t63.5 -146.5q0 -99 -64 -149.5t-176 -50.5h-112v-266h-74v657zM267 327q91 0 134 33.5t43 105.5t-44 101.5t-137 29.5h-97v-270h101z" />
    <glyph glyph-name="Q" unicode="Q" horiz-adv-x="661" 
d="M620 -149q-38 -14 -90 -14q-86 0 -147 42t-90 111q-71 9 -126 53.5t-85 118.5t-30 169q0 103 35.5 179.5t98.5 117.5t145 41q81 0 144 -41t98.5 -117.5t35.5 -179.5q0 -94 -29.5 -167t-82.5 -117.5t-123 -55.5q21 -44 64 -67.5t99 -23.5q34 0 68 10zM154 182.5
q25 -63.5 70.5 -98t106.5 -34.5q60 0 105.5 34.5t70.5 98t25 148.5q0 83 -25 144.5t-70.5 95t-105.5 33.5q-61 0 -106.5 -33.5t-70.5 -95t-25 -144.5q0 -85 25 -148.5z" />
    <glyph glyph-name="R" unicode="R" horiz-adv-x="563" 
d="M453 0l-163 284h-124v-284h-74v657h201q226 0 226 -182q0 -75 -40.5 -122t-112.5 -62l171 -291h-84zM166 344h115q80 0 122 33t42 98t-41 93.5t-123 28.5h-115v-253z" />
    <glyph glyph-name="S" unicode="S" horiz-adv-x="530" 
d="M144.5 14q-58.5 26 -101.5 72l45 51q36 -39 84 -61.5t100 -22.5q67 0 105.5 31t38.5 83q0 33 -14 55t-36 35t-62 31l-95 42q-58 25 -95.5 64t-37.5 104q0 49 26 88t72.5 61t103.5 22t106.5 -22t84.5 -59l-40 -47q-65 63 -151 63q-58 0 -93 -28t-35 -74q0 -31 16 -52
t37 -33t57 -28l95 -42q65 -27 100.5 -67t35.5 -108q0 -52 -27 -94t-77 -66t-116 -24q-68 0 -126.5 26z" />
    <glyph glyph-name="T" unicode="T" horiz-adv-x="533" 
d="M230 594h-202v63h477v-63h-201v-594h-74v594z" />
    <glyph glyph-name="U" unicode="U" horiz-adv-x="643" 
d="M152 53.5q-63 65.5 -63 212.5v391h74v-391q0 -114 43 -163.5t115 -49.5q74 0 118 49.5t44 163.5v391h71v-391q0 -147 -63.5 -212.5t-169.5 -65.5t-169 65.5z" />
    <glyph glyph-name="V" unicode="V" horiz-adv-x="509" 
d="M1 657h79l110 -362q16 -57 23 -78q17 -64 41 -140h4q11 33 46 152l19 66l110 362h75l-210 -657h-85z" />
    <glyph glyph-name="W" unicode="W" horiz-adv-x="782" 
d="M24 657h77l72 -365l40 -213h4q15 71 47 213l95 365h68l94 -365q12 -54 19 -81l30 -132h4l11 59q17 95 28 154l72 365h72l-139 -657h-88l-105 409q-4 19 -7.5 34t-5.5 26q-8 36 -19 89h-4l-34 -149l-102 -409h-87z" />
    <glyph glyph-name="X" unicode="X" horiz-adv-x="505" 
d="M208 340l-180 317h82l94 -175l52 -94h4q25 53 47 94l92 175h78l-180 -321l193 -336h-82l-101 183q-14 28 -44 81q-2 4 -5.5 10.5t-7.5 13.5h-4q-15 -32 -43 -86l-10 -19l-100 -183h-77z" />
    <glyph glyph-name="Y" unicode="Y" horiz-adv-x="468" 
d="M197 258l-197 399h79l88 -191l17 -37q40 -87 49 -105h4l17 35q42 88 50 107l88 191h77l-198 -399v-258h-74v258z" />
    <glyph glyph-name="Z" unicode="Z" horiz-adv-x="539" 
d="M46 44l354 550h-322v63h414v-44l-354 -550h357v-63h-449v44z" />
    <glyph glyph-name="bracketleft" unicode="[" horiz-adv-x="297" 
d="M95 708h174v-42h-119v-776h119v-42h-174v860z" />
    <glyph glyph-name="backslash" unicode="\" horiz-adv-x="352" 
d="M12 710h54l276 -870h-54z" />
    <glyph glyph-name="bracketright" unicode="]" horiz-adv-x="297" 
d="M28 -110h119v776h-119v42h174v-860h-174v42z" />
    <glyph glyph-name="asciicircum" unicode="^" horiz-adv-x="492" 
d="M213 670h66l152 -385h-64l-119 316h-4l-49 -133l-69 -183h-65z" />
    <glyph glyph-name="underscore" unicode="_" horiz-adv-x="500" 
d="M12 -73h476v-51h-476v51z" />
    <glyph glyph-name="grave" unicode="`" horiz-adv-x="540" 
d="M134 726l52 48l140 -164l-38 -37z" />
    <glyph glyph-name="a" unicode="a" horiz-adv-x="501" 
d="M93 24q-40 36 -40 101q0 79 72 121.5t230 59.5q0 57 -23.5 93.5t-80.5 36.5q-69 0 -147 -53l-29 50q96 64 188 64q84 0 124 -52.5t40 -144.5v-300h-60l-6 59h-3q-86 -71 -163 -71q-62 0 -102 36zM282.5 63.5q33.5 16.5 72.5 51.5v142q-125 -15 -177.5 -46t-52.5 -82
q0 -41 25 -61.5t64 -20.5q35 0 68.5 16.5z" />
    <glyph glyph-name="b" unicode="b" horiz-adv-x="551" 
d="M222 4.5q-37 16.5 -69 45.5h-3l-7 -50h-58v714h72v-198l-2 -89q81 70 156 70q93 0 142.5 -66.5t49.5 -180.5q0 -80 -29 -139.5t-77 -91t-104 -31.5q-34 0 -71 16.5zM356.5 74.5q33.5 24.5 52.5 69.5t19 105q0 87 -32.5 136.5t-101.5 49.5q-62 0 -137 -70v-262
q32 -27 64.5 -40t59.5 -13q42 0 75.5 24.5z" />
    <glyph glyph-name="c" unicode="c" horiz-adv-x="454" 
d="M157.5 18.5q-51.5 30.5 -81 87.5t-29.5 136q0 78 31.5 136t84.5 88.5t115 30.5q79 0 141 -58l-38 -48q-24 22 -48 33.5t-52 11.5q-45 0 -81 -24.5t-56.5 -68.5t-20.5 -101q0 -87 43 -140t113 -53q63 0 118 50l32 -49q-33 -29 -73 -45.5t-83 -16.5q-64 0 -115.5 30.5z" />
    <glyph glyph-name="d" unicode="d" horiz-adv-x="552" 
d="M102.5 55q-53.5 67 -53.5 187q0 76 29 134t77.5 89.5t104.5 31.5q39 0 70 -14t68 -43l-3 84v190h72v-714h-60l-6 59h-3q-31 -32 -69.5 -51.5t-80.5 -19.5q-92 0 -145.5 67zM330.5 67q31.5 17 64.5 52v263q-32 28 -62 40.5t-62 12.5q-41 0 -74.5 -25t-53 -69t-19.5 -99
q0 -90 36.5 -141t103.5 -51q35 0 66.5 17z" />
    <glyph glyph-name="e" unicode="e" horiz-adv-x="492" 
d="M452 226h-335q5 -85 52.5 -132t116.5 -47q64 0 123 39l27 -48q-36 -23 -74 -36.5t-85 -13.5q-64 0 -116.5 30.5t-83 88.5t-30.5 135q0 76 30.5 134t80.5 89.5t106 31.5q90 0 140.5 -60.5t50.5 -166.5q0 -26 -3 -44zM390 279q0 77 -33 118t-92 41q-54 0 -96 -41t-50 -118
h271z" />
    <glyph glyph-name="f" unicode="f" horiz-adv-x="284" 
d="M169 568v-83h105v-60h-105v-425h-73v425h-66v55l66 5v84q0 75 34.5 116t102.5 41q39 0 78 -16l-16 -56q-28 12 -56 12q-70 0 -70 -98z" />
    <glyph glyph-name="g" unicode="g" horiz-adv-x="500" 
d="M101.5 -191q-54.5 35 -54.5 96q0 31 18.5 60t52.5 52v4q-19 12 -31 32t-12 47q0 28 15.5 51.5t37.5 38.5v4q-26 21 -44 55t-18 75q0 51 24 90.5t65 61t90 21.5q33 0 67 -12h168v-57h-103q19 -18 31 -46t12 -59q0 -50 -23 -88.5t-63 -59.5t-89 -21q-40 0 -74 17
q-16 -13 -24.5 -26.5t-8.5 -33.5q0 -26 19.5 -40.5t66.5 -14.5h97q85 0 126 -28t41 -87q0 -44 -30 -82.5t-85 -61.5t-126 -23q-91 0 -145.5 35zM321.5 237.5q31.5 33.5 31.5 86.5q0 54 -31 86.5t-77 32.5t-77.5 -32.5t-31.5 -86.5q0 -53 31.5 -86.5t77.5 -33.5
q45 0 76.5 33.5zM339.5 -159.5q36.5 14.5 56.5 39t20 51.5q0 34 -25 48.5t-76 14.5h-89q-31 0 -62 8q-53 -37 -53 -87q0 -41 39 -65t107 -24q46 0 82.5 14.5z" />
    <glyph glyph-name="h" unicode="h" horiz-adv-x="540" 
d="M85 714h72v-198l-2 -102q40 40 78 61.5t84 21.5q76 0 112 -47.5t36 -141.5v-308h-73v299q0 70 -22.5 102t-73.5 32q-36 0 -67 -18.5t-72 -59.5v-355h-72v714z" />
    <glyph glyph-name="i" unicode="i" horiz-adv-x="242" 
d="M85 485h72v-485h-72v485zM86 603q-14 14 -14 37q0 22 14 35.5t36 13.5t36 -13.5t14 -35.5q0 -23 -14 -37t-36 -14t-36 14z" />
    <glyph glyph-name="j" unicode="j" horiz-adv-x="242" 
d="M86 603q-14 14 -14 37q0 22 14 35.5t36 13.5t36 -13.5t14 -35.5q0 -23 -14 -37t-36 -14t-36 14zM88 485h72v-549q0 -76 -30.5 -116t-96.5 -40q-37 0 -69 12l15 56q24 -8 47 -8q35 0 48 24t13 73z" />
    <glyph glyph-name="k" unicode="k" horiz-adv-x="487" 
d="M85 714h71v-494h3l215 265h81l-162 -194l184 -291h-79l-147 240l-95 -112v-128h-71v714z" />
    <glyph glyph-name="l" unicode="l" horiz-adv-x="250" 
d="M104 13.5q-19 25.5 -19 75.5v625h72v-631q0 -17 6.5 -25.5t16.5 -8.5q8 0 18 2l10 -56q-19 -7 -44 -7q-41 0 -60 25.5z" />
    <glyph glyph-name="m" unicode="m" horiz-adv-x="825" 
d="M85 485h60l6 -72h3q77 84 151 84q103 0 134 -94q42 46 81 70t80 24q147 0 147 -189v-308h-73v299q0 70 -23 102t-72 32q-57 0 -127 -78v-355h-73v299q0 69 -23 101.5t-71 32.5q-57 0 -128 -78v-355h-72v485z" />
    <glyph glyph-name="n" unicode="n" horiz-adv-x="543" 
d="M85 485h60l6 -72h3q40 40 78.5 62t84.5 22q76 0 112 -47.5t36 -141.5v-308h-73v299q0 70 -22.5 102t-73.5 32q-36 0 -67 -18.5t-72 -59.5v-355h-72v485z" />
    <glyph glyph-name="o" unicode="o" horiz-adv-x="540" 
d="M159 18.5q-51 30.5 -81.5 88t-30.5 135.5t30.5 136t81.5 88.5t111 30.5t111 -30.5t81.5 -88.5t30.5 -136t-30.5 -135.5t-81.5 -88t-111 -30.5t-111 30.5zM346.5 73q33.5 24 52.5 68t19 101t-19 101t-52.5 68.5t-76.5 24.5t-76.5 -24.5t-52 -68.5t-18.5 -101
q0 -87 41 -140t106 -53q43 0 76.5 24z" />
    <glyph glyph-name="p" unicode="p" horiz-adv-x="552" 
d="M85 485h60l6 -58h3q85 70 157 70q93 0 142.5 -66.5t49.5 -180.5q0 -80 -29 -139.5t-77 -91t-104 -31.5q-65 0 -138 57l2 -86v-167h-72v693zM356.5 74.5q33.5 24.5 52.5 69.5t19 105q0 87 -32.5 136.5t-101.5 49.5q-61 0 -137 -70v-262q33 -28 65 -40.5t59 -12.5
q42 0 75.5 24.5z" />
    <glyph glyph-name="q" unicode="q" horiz-adv-x="552" 
d="M395 -32l3 90q-72 -70 -150 -70q-92 0 -145.5 67t-53.5 187q0 76 29 134t77.5 89.5t104.5 31.5q40 0 72.5 -14.5t66.5 -43.5h3l7 46h58v-693h-72v176zM330.5 67q31.5 17 64.5 52v263q-32 28 -62 40.5t-62 12.5q-41 0 -74.5 -25t-53 -69t-19.5 -99q0 -90 36.5 -141
t103.5 -51q35 0 66.5 17z" />
    <glyph glyph-name="r" unicode="r" horiz-adv-x="340" 
d="M85 485h60l6 -89h3q25 47 61 74t77 27q29 0 50 -10l-14 -64q-26 8 -46 8q-34 0 -67.5 -28t-57.5 -87v-316h-72v485z" />
    <glyph glyph-name="s" unicode="s" horiz-adv-x="416" 
d="M112 6.5q-47 18.5 -83 48.5l37 49q36 -29 70 -44t76 -15q48 0 74 23t26 58t-29.5 56t-83.5 40q-69 25 -108 54.5t-39 84.5q0 59 44.5 97.5t120.5 38.5q41 0 79 -15t68 -39l-35 -47q-29 21 -55 32t-57 11q-46 0 -70 -21.5t-24 -52.5q0 -22 14.5 -38t35.5 -25.5t59 -24.5
q51 -19 80 -34t50 -42.5t21 -70.5q0 -39 -20.5 -71.5t-60 -51.5t-93.5 -19q-50 0 -97 18.5z" />
    <glyph glyph-name="t" unicode="t" horiz-adv-x="331" 
d="M129 29q-31 41 -31 117v279h-73v55l76 5l9 137h61v-137h133v-60h-133v-281q0 -48 17.5 -72t59.5 -24q21 0 56 13l15 -55q-54 -18 -87 -18q-72 0 -103 41z" />
    <glyph glyph-name="u" unicode="u" horiz-adv-x="540" 
d="M114 35.5q-36 47.5 -36 141.5v308h72v-299q0 -70 23 -102.5t74 -32.5q37 0 67.5 20t68.5 66v348h73v-485h-61l-6 77h-3q-37 -43 -75.5 -66t-85.5 -23q-75 0 -111 47.5z" />
    <glyph glyph-name="v" unicode="v" horiz-adv-x="459" 
d="M12 485h75l96 -283l46 -142h4l46 142l96 283h72l-174 -485h-84z" />
    <glyph glyph-name="w" unicode="w" horiz-adv-x="710" 
d="M24 485h75l76 -289l9 -43q14 -60 20 -91h4q19 78 34 134l78 289h73l79 -289l34 -134h4l32 134l74 289h70l-132 -485h-90l-74 271l-19 79q-2 8 -14 60h-4q-22 -99 -35 -141l-72 -269h-85z" />
    <glyph glyph-name="x" unicode="x" horiz-adv-x="436" 
d="M174 253l-148 232h79l68 -111q32 -54 49 -80h4l45 80l63 111h76l-147 -239l159 -246h-79l-75 118q-30 52 -53 87h-4q-16 -26 -34 -58l-17 -29l-70 -118h-76z" />
    <glyph glyph-name="y" unicode="y" horiz-adv-x="459" 
d="M31 -202l14 59q20 -8 38 -8q40 0 68 30t45 81l12 37l-196 488h75l104 -278l48 -136h4q14 42 29 92l13 44l91 278h71l-184 -530q-28 -78 -69.5 -122.5t-107.5 -44.5q-30 0 -55 10z" />
    <glyph glyph-name="z" unicode="z" horiz-adv-x="419" 
d="M30 39l263 386h-234v60h326v-39l-263 -386h272v-60h-364v39z" />
    <glyph glyph-name="braceleft" unicode="{" horiz-adv-x="297" 
d="M139 -123.5q-27 28.5 -27 103.5q0 38 4 102q4 60 4 94t-19.5 56t-66.5 23v46q47 1 66.5 23t19.5 55q0 34 -4 96q-4 64 -4 101q0 75 27 103.5t88 28.5h42v-42h-27q-41 0 -56 -22t-15 -73q0 -42 3 -86q0 -13 1.5 -43t1.5 -55q0 -48 -13 -73t-45 -34v-4q31 -9 44.5 -34.5
t13.5 -72.5q0 -25 -1.5 -55t-1.5 -43q-3 -43 -3 -86q0 -51 15 -73t56 -22h27v-42h-42q-61 0 -88 28.5z" />
    <glyph glyph-name="bar" unicode="|" horiz-adv-x="237" 
d="M92 750h53v-1000h-53v1000z" />
    <glyph glyph-name="braceright" unicode="}" horiz-adv-x="297" 
d="M28 -110h27q41 0 56 22t15 73q0 43 -3 86q0 13 -1.5 43t-1.5 55q0 47 13.5 72.5t44.5 34.5v4q-31 9 -44.5 34t-13.5 73q0 25 1.5 55t1.5 43q3 44 3 86q0 51 -15 73t-56 22h-27v42h42q61 0 88 -28.5t27 -103.5q0 -37 -4 -101q-4 -62 -4 -96q0 -33 19.5 -55t66.5 -23v-46
q-47 -1 -66.5 -23t-19.5 -56t4 -94q4 -64 4 -102q0 -75 -27 -103.5t-88 -28.5h-42v42z" />
    <glyph glyph-name="asciitilde" unicode="~" horiz-adv-x="492" 
d="M283 271.5q-23 12.5 -52 35.5q-23 19 -40 28.5t-35 9.5q-44 0 -77 -61l-42 28q25 45 56.5 67t64.5 22q28 0 50.5 -12t53.5 -36q24 -19 40.5 -28.5t33.5 -9.5q46 0 77 61l42 -30q-25 -44 -56.5 -65.5t-64.5 -21.5q-28 0 -51 12.5z" />
    <glyph glyph-name="uni00A0" unicode="&#xa0;" horiz-adv-x="202" 
 />
    <glyph glyph-name="exclamdown" unicode="&#xa1;" horiz-adv-x="282" 
d="M102 396.5q-16 16.5 -16 42.5q0 25 16 41.5t39 16.5t39 -16.5t16 -41.5q0 -26 -16 -42.5t-39 -16.5t-39 16.5zM106 -98l10 389h50l10 -389l2 -87h-74z" />
    <glyph glyph-name="cent" unicode="&#xa2;" horiz-adv-x="492" 
d="M383.5 91.5q-36.5 -16.5 -75.5 -18.5v-104h-48v105q-91 10 -145 72t-54 164q0 100 55.5 161.5t143.5 73.5v108h48v-105q75 -4 131 -58l-36 -46q-45 40 -95 43v-354q57 4 109 49l33 -47q-30 -27 -66.5 -43.5zM167.5 194.5q33.5 -45.5 92.5 -57.5v346q-58 -13 -92 -59
t-34 -114q0 -70 33.5 -115.5z" />
    <glyph glyph-name="sterling" unicode="&#xa3;" horiz-adv-x="492" 
d="M447 63v-63h-393v44q51 28 78.5 77t27.5 107q0 26 -7 59h-100v48l67 3h19q-2 8 -10.5 36t-13 52t-4.5 44q0 83 50 131.5t132 48.5q92 0 152 -74l-43 -42q-45 55 -105 55q-54 0 -84 -33t-30 -88q0 -25 5.5 -50t15.5 -60q1 -5 5 -20h160v-51h-149q6 -28 6 -60
q0 -53 -15.5 -90t-48.5 -70v-4h285z" />
    <glyph glyph-name="currency" unicode="&#xa4;" horiz-adv-x="492" 
d="M28 146l64 66q-37 50 -37 117t36 118l-63 66l39 41l67 -69q23 19 52 29t60 10t60 -10t52 -29l67 69l40 -41l-65 -66q37 -50 37 -118q0 -67 -37 -117l65 -66l-40 -41l-67 69q-23 -19 -52 -29t-60 -10q-62 0 -112 39l-67 -69zM333 229q36 39 36 100q0 40 -16.5 72t-45 50
t-61.5 18t-61.5 -18t-45 -50t-16.5 -72q0 -61 36 -100t87 -39t87 39z" />
    <glyph glyph-name="yen" unicode="&#xa5;" horiz-adv-x="492" 
d="M209 160h-162v44h162v67h-162v43h143l-165 324h76l82 -177l62 -135h4q9 18 15.5 32.5t11.5 25.5q24 53 36 77l82 177h74l-167 -324h145v-43h-164v-67h164v-44h-164v-160h-73v160z" />
    <glyph glyph-name="brokenbar" unicode="&#xa6;" horiz-adv-x="237" 
d="M145 585v-468v-196h-53v459v205h53z" />
    <glyph glyph-name="section" unicode="&#xa7;" horiz-adv-x="492" 
d="M424 209q-22 -30 -63 -54q30 -35 30 -82q0 -58 -44 -96t-112 -38q-52 0 -95.5 18t-74.5 51l45 41q26 -26 56 -39.5t69 -13.5q41 0 65 21t24 52q0 36 -28.5 57.5t-87.5 46.5q-52 22 -84 41t-54.5 51.5t-22.5 79.5q0 42 23 75t63 55q-32 34 -32 82q0 52 38.5 89.5
t108.5 37.5q81 0 151 -57l-36 -47q-27 22 -53.5 34t-58.5 12q-42 0 -62.5 -19t-20.5 -47q0 -33 27.5 -54t86.5 -47q53 -23 85.5 -42.5t55.5 -52t23 -80.5q0 -45 -22 -75zM366.5 225.5q15.5 19.5 15.5 52.5q0 32 -17.5 55t-43.5 37.5t-71 34.5q-54 24 -74 36
q-32 -17 -48.5 -38.5t-16.5 -52.5t17.5 -53t43 -36.5t69.5 -33.5q50 -21 76 -37q34 16 49.5 35.5z" />
    <glyph glyph-name="dieresis" unicode="&#xa8;" horiz-adv-x="540" 
d="M142.5 603q-13.5 13 -13.5 33t13.5 33.5t33.5 13.5t33 -13.5t13 -33.5q0 -19 -13.5 -32.5t-32.5 -13.5q-20 0 -33.5 13zM331.5 603.5q-13.5 13.5 -13.5 32.5q0 20 13 33.5t33 13.5t33.5 -13.5t13.5 -33.5t-13.5 -33t-33.5 -13q-19 0 -32.5 13.5z" />
    <glyph glyph-name="copyright" unicode="&#xa9;" horiz-adv-x="744" 
d="M211 30.5q-74 41.5 -117.5 117.5t-43.5 175t43.5 174t117 115.5t161.5 40.5q87 0 161 -41t117.5 -116t43.5 -173q0 -99 -43.5 -175t-117.5 -117.5t-161 -41.5t-161 41.5zM511.5 65q63.5 37 101 104.5t37.5 153.5t-37.5 152.5t-101 103t-139.5 36.5t-140 -36.5
t-101.5 -103t-37.5 -152.5t37.5 -153.5t101.5 -104.5t140 -37t139.5 37zM288 149q-41 24 -65 68.5t-24 105.5q0 56 25.5 99t67 66t90.5 23q39 0 68 -14.5t56 -41.5l-32 -36q-22 22 -42.5 32t-46.5 10q-56 0 -91 -38.5t-35 -99.5q0 -68 33.5 -107.5t88.5 -39.5q31 0 56 11.5
t50 33.5l27 -39q-31 -28 -62 -42.5t-73 -14.5q-50 0 -91 24z" />
    <glyph glyph-name="ordfeminine" unicode="&#xaa;" horiz-adv-x="343" 
d="M65.5 414.5q-26.5 25.5 -26.5 68.5q0 52 47.5 80t152.5 39q-1 37 -15.5 57.5t-48.5 20.5q-25 0 -52.5 -10.5t-50.5 -24.5l-21 39q71 42 132 42q111 0 111 -131v-198h-44l-7 38h-4q-52 -46 -103 -46q-44 0 -70.5 25.5zM239 477v89q-78 -9 -111.5 -28.5t-33.5 -50.5
q0 -52 59 -52q43 0 86 42z" />
    <glyph glyph-name="guillemotleft" unicode="&#xab;" horiz-adv-x="422" 
d="M44 224v56l137 157l33 -28l-119 -157l119 -158l-33 -27zM198 224v56l137 157l33 -28l-119 -157l119 -158l-33 -27z" />
    <glyph glyph-name="logicalnot" unicode="&#xac;" horiz-adv-x="492" 
d="M399 302h-365v56h424v-253h-59v197z" />
    <glyph glyph-name="uni00AD" unicode="&#xad;" horiz-adv-x="308" 
d="M41 279h227v-57h-227v57z" />
    <glyph glyph-name="registered" unicode="&#xae;" horiz-adv-x="418" 
d="M115 345.5q-43 24.5 -68 69t-25 101.5t25 102t68 70t94 25t93.5 -25t67.5 -70t25 -102t-25 -101.5t-67.5 -69t-93.5 -24.5t-94 24.5zM285 375.5q34 20.5 53.5 57t19.5 83.5t-19.5 84t-53.5 58t-76 21t-76 -21t-53.5 -58t-19.5 -84t19.5 -83.5t53.5 -57t76 -20.5t76 20.5z
M137 621h75q34 0 55.5 -15t21.5 -49q0 -19 -10.5 -34.5t-27.5 -21.5l47 -84h-43l-37 72h-42v-72h-39v204zM202 520q22 0 34 8.5t12 25.5q0 35 -43 35h-29v-69h26z" />
    <glyph glyph-name="macron" unicode="&#xaf;" horiz-adv-x="540" 
d="M140 654h260v-52h-260v52z" />
    <glyph glyph-name="degree" unicode="&#xb0;" horiz-adv-x="326" 
d="M76.5 468.5q-35.5 34.5 -35.5 89.5q0 57 35.5 92t86.5 35t87 -35t36 -92q0 -55 -36 -89.5t-87 -34.5t-86.5 34.5zM218.5 499.5q21.5 23.5 21.5 58.5q0 37 -21.5 60.5t-55.5 23.5t-55 -23.5t-21 -60.5q0 -36 21.5 -59t54.5 -23q34 0 55.5 23.5z" />
    <glyph glyph-name="plusminus" unicode="&#xb1;" horiz-adv-x="492" 
d="M216 305h-182v56h182v194h60v-194h182v-56h-182v-183h-60v183zM34 56h424v-56h-424v56z" />
    <glyph glyph-name="acute" unicode="&#xb4;" horiz-adv-x="540" 
d="M214 610l140 164l52 -48l-154 -153z" />
    <glyph glyph-name="paragraph" unicode="&#xb6;" horiz-adv-x="548" 
d="M109 284q-68 53 -68 161q0 110 64.5 161t174.5 51h44v-426h-32q-115 0 -183 53zM378 657h74v-737h-74v737z" />
    <glyph glyph-name="periodcentered" unicode="&#xb7;" horiz-adv-x="242" 
d="M82 280.5q-16 16.5 -16 41.5q0 26 16 42.5t39 16.5t39 -16.5t16 -42.5q0 -25 -16 -41.5t-39 -16.5t-39 16.5z" />
    <glyph glyph-name="cedilla" unicode="&#xb8;" horiz-adv-x="540" 
d="M178 -186q61 4 85.5 15.5t24.5 34.5q0 20 -18 31t-60 17l43 91h49l-29 -67q36 -9 54 -25.5t18 -45.5q0 -81 -159 -89z" />
    <glyph glyph-name="ordmasculine" unicode="&#xba;" horiz-adv-x="363" 
d="M105.5 409.5q-34.5 20.5 -55 59t-20.5 89.5q0 52 20.5 90t54.5 58t76 20t76 -20t54.5 -58t20.5 -90q0 -51 -20.5 -89.5t-55 -59t-75.5 -20.5t-75.5 20.5zM249 469.5q25 33.5 25 88.5t-25 88.5t-68 33.5t-68 -33.5t-25 -88.5t25.5 -88.5t67.5 -33.5q43 0 68 33.5z" />
    <glyph glyph-name="guillemotright" unicode="&#xbb;" horiz-adv-x="422" 
d="M54 94l119 158l-119 157l33 28l136 -157v-56l-136 -157zM208 94l119 158l-119 157l33 28l136 -157v-56l-136 -157z" />
    <glyph glyph-name="onequarter" unicode="&#xbc;" horiz-adv-x="789" 
d="M159 279v312h-84v38q31 6 52.5 15.5t41.5 24.5h48v-390h-58zM600 669l-363 -681h-51l363 681h51zM754 107h-58v-107h-53v107h-177v29l167 254h63v-241h58v-42zM643 149v75l5 107h-4l-52 -82l-65 -100h116z" />
    <glyph glyph-name="onehalf" unicode="&#xbd;" horiz-adv-x="803" 
d="M159 591h-84v38q31 6 52.5 15.5t41.5 24.5h48v-390h-58v312zM532 669h51l-363 -681h-51zM490 34q104 94 145.5 143t41.5 91q0 39 -21 62t-57 23q-24 0 -46 -16t-40 -42l-35 32q23 34 56.5 54.5t71.5 20.5q59 0 93.5 -32.5t34.5 -93.5q0 -36 -18.5 -70t-46 -65t-86.5 -92
h171v-49h-264v34z" />
    <glyph glyph-name="threequarters" unicode="&#xbe;" horiz-adv-x="803" 
d="M277 298.5q-39 -31.5 -97 -31.5q-45 0 -82.5 21t-60.5 55l39 30q19 -28 45 -44t56 -16q34 0 57.5 20t23.5 53q0 35 -32.5 53.5t-92.5 18.5v38q51 0 80.5 21t29.5 53q0 29 -20 47t-54 18q-21 0 -42 -13.5t-39 -35.5l-35 31q54 64 124 64q52 0 88 -28.5t36 -75.5
q0 -34 -19 -58.5t-52 -38.5q37 -9 61.5 -34t24.5 -63q0 -53 -39 -84.5zM635 669l-363 -681h-51l363 681h51zM768 107h-58v-107h-53v107h-177v29l167 254h63v-241h58v-42zM657 149v75l5 107h-4l-52 -82l-65 -100h116z" />
    <glyph glyph-name="questiondown" unicode="&#xbf;" horiz-adv-x="419" 
d="M185 396.5q-16 16.5 -16 42.5q0 25 16 41.5t39 16.5t39 -16.5t16 -41.5q0 -26 -16 -42.5t-39 -16.5t-39 16.5zM93 -154q-45 43 -45 114q0 42 18 75t55 79t55.5 79.5t18.5 76.5q0 14 -1 21h65q2 -20 2 -28q0 -49 -20 -87t-58 -83q-32 -41 -47.5 -68.5t-15.5 -59.5
q0 -44 26 -72.5t75 -28.5q33 0 63.5 15.5t54.5 42.5l42 -38q-72 -81 -168 -81q-75 0 -120 43z" />
    <glyph glyph-name="Agrave" unicode="&#xc0;" horiz-adv-x="539" 
d="M391 207h-245l-67 -207h-75l225 657h82l224 -657h-78zM372 266l-34 106q-40 125 -68 223h-4q-33 -121 -67 -223l-34 -106h207zM139 814l42 49l137 -127l-32 -37z" />
    <glyph glyph-name="Aacute" unicode="&#xc1;" horiz-adv-x="539" 
d="M391 207h-245l-67 -207h-75l225 657h82l224 -657h-78zM372 266l-34 106q-40 125 -68 223h-4q-33 -121 -67 -223l-34 -106h207zM218 736l137 127l42 -49l-147 -115z" />
    <glyph glyph-name="Acircumflex" unicode="&#xc2;" horiz-adv-x="539" 
d="M391 207h-245l-67 -207h-75l225 657h82l224 -657h-78zM372 266l-34 106q-40 125 -68 223h-4q-33 -121 -67 -223l-34 -106h207zM124 725l106 113h76l106 -113l-32 -24l-110 94h-4l-110 -94z" />
    <glyph glyph-name="Atilde" unicode="&#xc3;" horiz-adv-x="539" 
d="M391 207h-245l-67 -207h-75l225 657h82l224 -657h-78zM372 266l-34 106q-40 125 -68 223h-4q-33 -121 -67 -223l-34 -106h207zM295.5 722q-20.5 11 -43.5 31q-17 16 -30 23.5t-28 7.5q-20 0 -33.5 -18t-16.5 -50l-50 3q2 55 28.5 87.5t69.5 32.5q28 0 48.5 -11t43.5 -31
q17 -16 30 -23.5t28 -7.5q20 0 33 18t17 51l50 -4q-2 -55 -28.5 -87.5t-69.5 -32.5q-28 0 -48.5 11z" />
    <glyph glyph-name="Adieresis" unicode="&#xc4;" horiz-adv-x="539" 
d="M391 207h-245l-67 -207h-75l225 657h82l224 -657h-78zM372 266l-34 106q-40 125 -68 223h-4q-33 -121 -67 -223l-34 -106h207zM134 730.5q-13 12.5 -13 33.5q0 20 13 32.5t33 12.5t32.5 -12.5t12.5 -32.5q0 -21 -12.5 -33.5t-32.5 -12.5t-33 12.5zM336.5 730.5
q-12.5 12.5 -12.5 33.5q0 20 12.5 32.5t32.5 12.5t33 -12.5t13 -32.5q0 -21 -13 -33.5t-33 -12.5t-32.5 12.5z" />
    <glyph glyph-name="Aring" unicode="&#xc5;" horiz-adv-x="539" 
d="M391 207h-245l-67 -207h-75l225 657h82l224 -657h-78zM372 266l-34 106q-40 125 -68 223h-4q-33 -121 -67 -223l-34 -106h207zM199.5 724q-26.5 25 -26.5 64q0 41 26.5 65.5t68.5 24.5q41 0 68 -25t27 -65q0 -39 -27.5 -64t-67.5 -25q-42 0 -68.5 25zM305 747.5
q15 14.5 15 40.5q0 25 -15 40.5t-37 15.5q-23 0 -38 -15t-15 -41t15 -40.5t38 -14.5q22 0 37 14.5z" />
    <glyph glyph-name="AE" unicode="&#xc6;" horiz-adv-x="819" 
d="M771 63v-63h-367v198h-211l-104 -198h-77l349 657h400v-63h-283v-217h235v-62h-235v-252h293zM404 257v341h-4l-45 -88l-67 -131l-64 -122h180z" />
    <glyph glyph-name="Ccedilla" unicode="&#xc7;" horiz-adv-x="569" 
d="M189.5 29q-64.5 41 -101 118t-36.5 181q0 103 37 180.5t103 119t149 41.5q55 0 101 -23t77 -57l-41 -49q-57 64 -136 64q-64 0 -112 -33.5t-74.5 -95t-26.5 -145.5t25.5 -146.5t73 -96.5t111.5 -34q46 0 83.5 19t72.5 57l41 -46q-40 -47 -89 -71t-111 -24
q-82 0 -146.5 41z" />
    <glyph glyph-name="Egrave" unicode="&#xc8;" horiz-adv-x="524" 
d="M92 657h373v-63h-299v-217h252v-62h-252v-252h309v-63h-383v657zM155 814l42 49l137 -127l-32 -37z" />
    <glyph glyph-name="Eacute" unicode="&#xc9;" horiz-adv-x="524" 
d="M92 657h373v-63h-299v-217h252v-62h-252v-252h309v-63h-383v657zM234 736l137 127l42 -49l-147 -115z" />
    <glyph glyph-name="Ecircumflex" unicode="&#xca;" horiz-adv-x="524" 
d="M92 657h373v-63h-299v-217h252v-62h-252v-252h309v-63h-383v657zM140 725l106 113h76l106 -113l-32 -24l-110 94h-4l-110 -94z" />
    <glyph glyph-name="Edieresis" unicode="&#xcb;" horiz-adv-x="524" 
d="M92 657h373v-63h-299v-217h252v-62h-252v-252h309v-63h-383v657zM150 730.5q-13 12.5 -13 33.5q0 20 13 32.5t33 12.5t32.5 -12.5t12.5 -32.5q0 -21 -12.5 -33.5t-32.5 -12.5t-33 12.5zM352.5 730.5q-12.5 12.5 -12.5 33.5q0 20 12.5 32.5t32.5 12.5t33 -12.5t13 -32.5
q0 -21 -13 -33.5t-33 -12.5t-32.5 12.5z" />
    <glyph glyph-name="Igrave" unicode="&#xcc;" horiz-adv-x="257" 
d="M92 657h74v-657h-74v657zM0 814l42 49l137 -127l-32 -37z" />
    <glyph glyph-name="Iacute" unicode="&#xcd;" horiz-adv-x="257" 
d="M92 657h74v-657h-74v657zM79 736l137 127l42 -49l-147 -115z" />
    <glyph glyph-name="Icircumflex" unicode="&#xce;" horiz-adv-x="257" 
d="M92 657h74v-657h-74v657zM-15 725l106 113h76l106 -113l-32 -24l-110 94h-4l-110 -94z" />
    <glyph glyph-name="Idieresis" unicode="&#xcf;" horiz-adv-x="257" 
d="M92 657h74v-657h-74v657zM-5 730.5q-13 12.5 -13 33.5q0 20 13 32.5t33 12.5t32.5 -12.5t12.5 -32.5q0 -21 -12.5 -33.5t-32.5 -12.5t-33 12.5zM197.5 730.5q-12.5 12.5 -12.5 33.5q0 20 12.5 32.5t32.5 12.5t33 -12.5t13 -32.5q0 -21 -13 -33.5t-33 -12.5t-32.5 12.5z
" />
    <glyph glyph-name="Eth" unicode="&#xd0;" horiz-adv-x="634" 
d="M503.5 572q78.5 -85 78.5 -241t-78.5 -243.5t-225.5 -87.5h-164v323h-80v41l80 3v290h161q150 0 228.5 -85zM446.5 131.5q59.5 70.5 59.5 199.5q0 127 -59.5 196t-177.5 69h-81v-229h152v-44h-152v-262h81q118 0 177.5 70.5z" />
    <glyph glyph-name="Ntilde" unicode="&#xd1;" horiz-adv-x="644" 
d="M92 657h76l248 -426l72 -135h4l-3 44q-1 16 -4 67.5t-3 93.5v356h70v-657h-76l-248 426l-72 135h-4l3 -48q7 -87 7 -153v-360h-70v657zM353.5 722q-20.5 11 -43.5 31q-17 16 -30 23.5t-28 7.5q-20 0 -33.5 -18t-16.5 -50l-50 3q2 55 28.5 87.5t69.5 32.5q28 0 48.5 -11
t43.5 -31q17 -16 30 -23.5t28 -7.5q20 0 33 18t17 51l50 -4q-2 -55 -28.5 -87.5t-69.5 -32.5q-28 0 -48.5 11z" />
    <glyph glyph-name="Ograve" unicode="&#xd2;" horiz-adv-x="661" 
d="M186 30q-63 42 -98.5 120t-35.5 181t35.5 179.5t98.5 117.5t145 41q81 0 144 -41t98.5 -117.5t35.5 -179.5t-35.5 -181t-98.5 -120t-144 -42q-82 0 -145 42zM436.5 87.5q45.5 34.5 70.5 97t25 146.5q0 83 -25 144.5t-70.5 95t-105.5 33.5q-61 0 -106.5 -33.5t-70.5 -95
t-25 -144.5q0 -84 25 -147t71 -97t106 -34t105.5 34.5zM202 814l42 49l137 -127l-32 -37z" />
    <glyph glyph-name="Oacute" unicode="&#xd3;" horiz-adv-x="661" 
d="M186 30q-63 42 -98.5 120t-35.5 181t35.5 179.5t98.5 117.5t145 41q81 0 144 -41t98.5 -117.5t35.5 -179.5t-35.5 -181t-98.5 -120t-144 -42q-82 0 -145 42zM436.5 87.5q45.5 34.5 70.5 97t25 146.5q0 83 -25 144.5t-70.5 95t-105.5 33.5q-61 0 -106.5 -33.5t-70.5 -95
t-25 -144.5q0 -84 25 -147t71 -97t106 -34t105.5 34.5zM281 736l137 127l42 -49l-147 -115z" />
    <glyph glyph-name="Ocircumflex" unicode="&#xd4;" horiz-adv-x="661" 
d="M186 30q-63 42 -98.5 120t-35.5 181t35.5 179.5t98.5 117.5t145 41q81 0 144 -41t98.5 -117.5t35.5 -179.5t-35.5 -181t-98.5 -120t-144 -42q-82 0 -145 42zM436.5 87.5q45.5 34.5 70.5 97t25 146.5q0 83 -25 144.5t-70.5 95t-105.5 33.5q-61 0 -106.5 -33.5t-70.5 -95
t-25 -144.5q0 -84 25 -147t71 -97t106 -34t105.5 34.5zM187 725l106 113h76l106 -113l-32 -24l-110 94h-4l-110 -94z" />
    <glyph glyph-name="Otilde" unicode="&#xd5;" horiz-adv-x="661" 
d="M186 30q-63 42 -98.5 120t-35.5 181t35.5 179.5t98.5 117.5t145 41q81 0 144 -41t98.5 -117.5t35.5 -179.5t-35.5 -181t-98.5 -120t-144 -42q-82 0 -145 42zM436.5 87.5q45.5 34.5 70.5 97t25 146.5q0 83 -25 144.5t-70.5 95t-105.5 33.5q-61 0 -106.5 -33.5t-70.5 -95
t-25 -144.5q0 -84 25 -147t71 -97t106 -34t105.5 34.5zM358.5 722q-20.5 11 -43.5 31q-17 16 -30 23.5t-28 7.5q-20 0 -33.5 -18t-16.5 -50l-50 3q2 55 28.5 87.5t69.5 32.5q28 0 48.5 -11t43.5 -31q17 -16 30 -23.5t28 -7.5q20 0 33 18t17 51l50 -4q-2 -55 -28.5 -87.5
t-69.5 -32.5q-28 0 -48.5 11z" />
    <glyph glyph-name="Odieresis" unicode="&#xd6;" horiz-adv-x="661" 
d="M186 30q-63 42 -98.5 120t-35.5 181t35.5 179.5t98.5 117.5t145 41q81 0 144 -41t98.5 -117.5t35.5 -179.5t-35.5 -181t-98.5 -120t-144 -42q-82 0 -145 42zM436.5 87.5q45.5 34.5 70.5 97t25 146.5q0 83 -25 144.5t-70.5 95t-105.5 33.5q-61 0 -106.5 -33.5t-70.5 -95
t-25 -144.5q0 -84 25 -147t71 -97t106 -34t105.5 34.5zM197 730.5q-13 12.5 -13 33.5q0 20 13 32.5t33 12.5t32.5 -12.5t12.5 -32.5q0 -21 -12.5 -33.5t-32.5 -12.5t-33 12.5zM399.5 730.5q-12.5 12.5 -12.5 33.5q0 20 12.5 32.5t32.5 12.5t33 -12.5t13 -32.5
q0 -21 -13 -33.5t-33 -12.5t-32.5 12.5z" />
    <glyph glyph-name="multiply" unicode="&#xd7;" horiz-adv-x="492" 
d="M51 169l156 161l-156 160l39 41l156 -162l156 162l40 -41l-156 -160l156 -161l-40 -41l-156 162l-156 -162z" />
    <glyph glyph-name="Oslash" unicode="&#xd8;" horiz-adv-x="661" 
d="M545 564q33 -43 50 -102.5t17 -130.5q0 -103 -35.5 -181t-98.5 -120t-144 -42q-104 0 -177 68l-64 -84l-42 32l70 92q-66 93 -66 235q0 103 35.5 179.5t98.5 117.5t145 41q104 0 175 -65l62 81l42 -32zM169 158l297 389q-52 57 -132 57q-61 0 -106.5 -33.5t-70.5 -95
t-25 -144.5q0 -102 37 -173zM498 502l-298 -390q53 -59 134 -59q60 0 105.5 34.5t70.5 97t25 146.5q0 102 -37 171z" />
    <glyph glyph-name="Ugrave" unicode="&#xd9;" horiz-adv-x="643" 
d="M152 53.5q-63 65.5 -63 212.5v391h74v-391q0 -114 43 -163.5t115 -49.5q74 0 118 49.5t44 163.5v391h71v-391q0 -147 -63.5 -212.5t-169.5 -65.5t-169 65.5zM192 814l42 49l137 -127l-32 -37z" />
    <glyph glyph-name="Uacute" unicode="&#xda;" horiz-adv-x="643" 
d="M152 53.5q-63 65.5 -63 212.5v391h74v-391q0 -114 43 -163.5t115 -49.5q74 0 118 49.5t44 163.5v391h71v-391q0 -147 -63.5 -212.5t-169.5 -65.5t-169 65.5zM271 736l137 127l42 -49l-147 -115z" />
    <glyph glyph-name="Ucircumflex" unicode="&#xdb;" horiz-adv-x="643" 
d="M152 53.5q-63 65.5 -63 212.5v391h74v-391q0 -114 43 -163.5t115 -49.5q74 0 118 49.5t44 163.5v391h71v-391q0 -147 -63.5 -212.5t-169.5 -65.5t-169 65.5zM177 725l106 113h76l106 -113l-32 -24l-110 94h-4l-110 -94z" />
    <glyph glyph-name="Udieresis" unicode="&#xdc;" horiz-adv-x="643" 
d="M152 53.5q-63 65.5 -63 212.5v391h74v-391q0 -114 43 -163.5t115 -49.5q74 0 118 49.5t44 163.5v391h71v-391q0 -147 -63.5 -212.5t-169.5 -65.5t-169 65.5zM187 730.5q-13 12.5 -13 33.5q0 20 13 32.5t33 12.5t32.5 -12.5t12.5 -32.5q0 -21 -12.5 -33.5t-32.5 -12.5
t-33 12.5zM389.5 730.5q-12.5 12.5 -12.5 33.5q0 20 12.5 32.5t32.5 12.5t33 -12.5t13 -32.5q0 -21 -13 -33.5t-33 -12.5t-32.5 12.5z" />
    <glyph glyph-name="Yacute" unicode="&#xdd;" horiz-adv-x="468" 
d="M197 258l-197 399h79l88 -191l17 -37q40 -87 49 -105h4l17 35q42 88 50 107l88 191h77l-198 -399v-258h-74v258zM184 736l137 127l42 -49l-147 -115z" />
    <glyph glyph-name="Thorn" unicode="&#xde;" horiz-adv-x="578" 
d="M92 657h74v-112h122q115 0 177.5 -44.5t62.5 -146.5q0 -99 -64 -149.5t-176 -50.5h-122v-154h-74v657zM277 214q91 0 134 34t43 106t-42.5 101t-134.5 29h-111v-270h111z" />
    <glyph glyph-name="germandbls" unicode="&#xdf;" horiz-adv-x="567" 
d="M242 38l30 51q28 -22 53.5 -33t54.5 -11q42 0 65.5 25t23.5 60q0 28 -13 47t-31 31.5t-51 30.5q-34 18 -55 32.5t-35.5 37.5t-14.5 57q0 31 12 54.5t35 53.5q22 29 33 50.5t11 49.5q0 40 -22.5 65t-64.5 25q-55 0 -85.5 -40.5t-30.5 -119.5v-504h-72v519q0 94 50 149.5
t139 55.5q73 0 115 -41t42 -102q0 -37 -13.5 -63.5t-38.5 -58.5q-21 -25 -31 -44t-10 -41q0 -29 19.5 -46.5t62.5 -40.5q38 -20 61.5 -36.5t40 -45t16.5 -71.5q0 -63 -43 -104.5t-113 -41.5q-75 0 -140 50z" />
    <glyph glyph-name="agrave" unicode="&#xe0;" horiz-adv-x="501" 
d="M93 24q-40 36 -40 101q0 79 72 121.5t230 59.5q0 57 -23.5 93.5t-80.5 36.5q-69 0 -147 -53l-29 50q96 64 188 64q84 0 124 -52.5t40 -144.5v-300h-60l-6 59h-3q-86 -71 -163 -71q-62 0 -102 36zM282.5 63.5q33.5 16.5 72.5 51.5v142q-125 -15 -177.5 -46t-52.5 -82
q0 -41 25 -61.5t64 -20.5q35 0 68.5 16.5zM133 726l52 48l140 -164l-38 -37z" />
    <glyph glyph-name="aacute" unicode="&#xe1;" horiz-adv-x="501" 
d="M93 24q-40 36 -40 101q0 79 72 121.5t230 59.5q0 57 -23.5 93.5t-80.5 36.5q-69 0 -147 -53l-29 50q96 64 188 64q84 0 124 -52.5t40 -144.5v-300h-60l-6 59h-3q-86 -71 -163 -71q-62 0 -102 36zM282.5 63.5q33.5 16.5 72.5 51.5v142q-125 -15 -177.5 -46t-52.5 -82
q0 -41 25 -61.5t64 -20.5q35 0 68.5 16.5zM213 610l140 164l52 -48l-154 -153z" />
    <glyph glyph-name="acircumflex" unicode="&#xe2;" horiz-adv-x="501" 
d="M93 24q-40 36 -40 101q0 79 72 121.5t230 59.5q0 57 -23.5 93.5t-80.5 36.5q-69 0 -147 -53l-29 50q96 64 188 64q84 0 124 -52.5t40 -144.5v-300h-60l-6 59h-3q-86 -71 -163 -71q-62 0 -102 36zM282.5 63.5q33.5 16.5 72.5 51.5v142q-125 -15 -177.5 -46t-52.5 -82
q0 -41 25 -61.5t64 -20.5q35 0 68.5 16.5zM118 598l115 141h72l115 -141l-32 -29l-117 116h-4l-117 -116z" />
    <glyph glyph-name="atilde" unicode="&#xe3;" horiz-adv-x="501" 
d="M93 24q-40 36 -40 101q0 79 72 121.5t230 59.5q0 57 -23.5 93.5t-80.5 36.5q-69 0 -147 -53l-29 50q96 64 188 64q84 0 124 -52.5t40 -144.5v-300h-60l-6 59h-3q-86 -71 -163 -71q-62 0 -102 36zM282.5 63.5q33.5 16.5 72.5 51.5v142q-125 -15 -177.5 -46t-52.5 -82
q0 -41 25 -61.5t64 -20.5q35 0 68.5 16.5zM297 590.5q-19 12.5 -43 36.5q-19 19 -31 28t-27 9q-43 0 -48 -82l-50 3q3 61 26.5 97t72.5 36q26 0 45 -13t42 -37q17 -18 30 -27.5t28 -9.5q22 0 34 22.5t14 60.5l50 -4q-3 -60 -26.5 -96t-71.5 -36q-26 0 -45 12.5z" />
    <glyph glyph-name="adieresis" unicode="&#xe4;" horiz-adv-x="501" 
d="M93 24q-40 36 -40 101q0 79 72 121.5t230 59.5q0 57 -23.5 93.5t-80.5 36.5q-69 0 -147 -53l-29 50q96 64 188 64q84 0 124 -52.5t40 -144.5v-300h-60l-6 59h-3q-86 -71 -163 -71q-62 0 -102 36zM282.5 63.5q33.5 16.5 72.5 51.5v142q-125 -15 -177.5 -46t-52.5 -82
q0 -41 25 -61.5t64 -20.5q35 0 68.5 16.5zM141.5 603q-13.5 13 -13.5 33t13.5 33.5t33.5 13.5t33 -13.5t13 -33.5q0 -19 -13.5 -32.5t-32.5 -13.5q-20 0 -33.5 13zM330.5 603.5q-13.5 13.5 -13.5 32.5q0 20 13 33.5t33 13.5t33.5 -13.5t13.5 -33.5t-13.5 -33t-33.5 -13
q-19 0 -32.5 13.5z" />
    <glyph glyph-name="aring" unicode="&#xe5;" horiz-adv-x="501" 
d="M93 24q-40 36 -40 101q0 79 72 121.5t230 59.5q0 57 -23.5 93.5t-80.5 36.5q-69 0 -147 -53l-29 50q96 64 188 64q84 0 124 -52.5t40 -144.5v-300h-60l-6 59h-3q-86 -71 -163 -71q-62 0 -102 36zM282.5 63.5q33.5 16.5 72.5 51.5v142q-125 -15 -177.5 -46t-52.5 -82
q0 -41 25 -61.5t64 -20.5q35 0 68.5 16.5zM192 580q-29 27 -29 70t29 70.5t77 27.5t77 -27.5t29 -70.5t-29 -70t-77 -27t-77 27zM311 604.5q17 17.5 17 45.5q0 29 -17 46.5t-42 17.5t-42 -17.5t-17 -46.5q0 -28 17 -45.5t42 -17.5t42 17.5z" />
    <glyph glyph-name="ae" unicode="&#xe6;" horiz-adv-x="785" 
d="M100 24q-40 36 -40 100q0 79 71.5 122t225.5 60q0 130 -103 130q-65 0 -143 -53l-29 50q96 64 180 64q54 0 89 -28.5t51 -79.5q28 51 70 79.5t91 28.5q87 0 135.5 -61t48.5 -167q0 -25 -3 -43h-319q1 -52 21.5 -92.5t56 -63t78.5 -22.5q34 0 62 10.5t58 30.5l27 -51
q-37 -24 -73 -37t-83 -13q-56 0 -97.5 25.5t-73.5 67.5q-48 -45 -100 -69t-99 -24q-62 0 -102 36zM682 275q0 79 -31.5 121t-88.5 42q-54 0 -92 -45t-45 -118h257zM299 68q42 21 77 58q-19 43 -19 106l-1 25q-119 -15 -171.5 -46t-52.5 -82q0 -41 25 -61.5t64 -20.5
q36 0 78 21z" />
    <glyph glyph-name="ccedilla" unicode="&#xe7;" horiz-adv-x="454" 
d="M327 -89.5q18 -16.5 18 -45.5q0 -81 -159 -89l-8 38q61 4 85.5 15.5t24.5 34.5q0 20 -18 31t-60 17l37 77q-58 6 -103.5 38t-71 87t-25.5 128q0 78 31.5 136t84.5 88.5t115 30.5q79 0 141 -58l-38 -48q-24 22 -48 33.5t-52 11.5q-45 0 -81 -24.5t-56.5 -68.5t-20.5 -101
q0 -87 43 -140t113 -53q63 0 118 50l32 -49q-58 -52 -133 -61l-23 -53q36 -9 54 -25.5z" />
    <glyph glyph-name="egrave" unicode="&#xe8;" horiz-adv-x="492" 
d="M452 226h-335q5 -85 52.5 -132t116.5 -47q64 0 123 39l27 -48q-36 -23 -74 -36.5t-85 -13.5q-64 0 -116.5 30.5t-83 88.5t-30.5 135q0 76 30.5 134t80.5 89.5t106 31.5q90 0 140.5 -60.5t50.5 -166.5q0 -26 -3 -44zM390 279q0 77 -33 118t-92 41q-54 0 -96 -41t-50 -118
h271zM130 726l52 48l140 -164l-38 -37z" />
    <glyph glyph-name="eacute" unicode="&#xe9;" horiz-adv-x="492" 
d="M452 226h-335q5 -85 52.5 -132t116.5 -47q64 0 123 39l27 -48q-36 -23 -74 -36.5t-85 -13.5q-64 0 -116.5 30.5t-83 88.5t-30.5 135q0 76 30.5 134t80.5 89.5t106 31.5q90 0 140.5 -60.5t50.5 -166.5q0 -26 -3 -44zM390 279q0 77 -33 118t-92 41q-54 0 -96 -41t-50 -118
h271zM210 610l140 164l52 -48l-154 -153z" />
    <glyph glyph-name="ecircumflex" unicode="&#xea;" horiz-adv-x="492" 
d="M452 226h-335q5 -85 52.5 -132t116.5 -47q64 0 123 39l27 -48q-36 -23 -74 -36.5t-85 -13.5q-64 0 -116.5 30.5t-83 88.5t-30.5 135q0 76 30.5 134t80.5 89.5t106 31.5q90 0 140.5 -60.5t50.5 -166.5q0 -26 -3 -44zM390 279q0 77 -33 118t-92 41q-54 0 -96 -41t-50 -118
h271zM115 598l115 141h72l115 -141l-32 -29l-117 116h-4l-117 -116z" />
    <glyph glyph-name="edieresis" unicode="&#xeb;" horiz-adv-x="492" 
d="M452 226h-335q5 -85 52.5 -132t116.5 -47q64 0 123 39l27 -48q-36 -23 -74 -36.5t-85 -13.5q-64 0 -116.5 30.5t-83 88.5t-30.5 135q0 76 30.5 134t80.5 89.5t106 31.5q90 0 140.5 -60.5t50.5 -166.5q0 -26 -3 -44zM390 279q0 77 -33 118t-92 41q-54 0 -96 -41t-50 -118
h271zM138.5 603q-13.5 13 -13.5 33t13.5 33.5t33.5 13.5t33 -13.5t13 -33.5q0 -19 -13.5 -32.5t-32.5 -13.5q-20 0 -33.5 13zM327.5 603.5q-13.5 13.5 -13.5 32.5q0 20 13 33.5t33 13.5t33.5 -13.5t13.5 -33.5t-13.5 -33t-33.5 -13q-19 0 -32.5 13.5z" />
    <glyph glyph-name="igrave" unicode="&#xec;" horiz-adv-x="242" 
d="M85 485h72v-485h-72v485zM-14 726l52 48l140 -164l-38 -37z" />
    <glyph glyph-name="iacute" unicode="&#xed;" horiz-adv-x="242" 
d="M85 485h72v-485h-72v485zM66 610l140 164l52 -48l-154 -153z" />
    <glyph glyph-name="icircumflex" unicode="&#xee;" horiz-adv-x="242" 
d="M85 485h72v-485h-72v485zM-29 598l115 141h72l115 -141l-32 -29l-117 116h-4l-117 -116z" />
    <glyph glyph-name="idieresis" unicode="&#xef;" horiz-adv-x="242" 
d="M85 485h72v-485h-72v485zM-5.5 603q-13.5 13 -13.5 33t13.5 33.5t33.5 13.5t33 -13.5t13 -33.5q0 -19 -13.5 -32.5t-32.5 -13.5q-20 0 -33.5 13zM183.5 603.5q-13.5 13.5 -13.5 32.5q0 20 13 33.5t33 13.5t33.5 -13.5t13.5 -33.5t-13.5 -33t-33.5 -13q-19 0 -32.5 13.5z
" />
    <glyph glyph-name="eth" unicode="&#xf0;" horiz-adv-x="542" 
d="M481 256q0 -80 -26.5 -140.5t-75 -94t-111.5 -33.5q-56 0 -105 28.5t-78.5 82t-29.5 123.5q0 66 26.5 116.5t73.5 78.5t106 28q40 0 75 -16.5t61 -49.5q-25 116 -108 198l-141 -73l-21 37l128 66q-48 38 -115 75l34 47q83 -45 138 -92l142 73l21 -38l-129 -66
q135 -138 135 -350zM374.5 104.5q35.5 55.5 35.5 148.5q0 21 -2 59q-31 43 -65 59.5t-72 16.5q-69 0 -108 -46.5t-39 -119.5q0 -51 20 -90t53 -61t73 -22q69 0 104.5 55.5z" />
    <glyph glyph-name="ntilde" unicode="&#xf1;" horiz-adv-x="543" 
d="M85 485h60l6 -72h3q40 40 78.5 62t84.5 22q76 0 112 -47.5t36 -141.5v-308h-73v299q0 70 -22.5 102t-73.5 32q-36 0 -67 -18.5t-72 -59.5v-355h-72v485zM319 590.5q-19 12.5 -43 36.5q-19 19 -31 28t-27 9q-43 0 -48 -82l-50 3q3 61 26.5 97t72.5 36q26 0 45 -13t42 -37
q17 -18 30 -27.5t28 -9.5q22 0 34 22.5t14 60.5l50 -4q-3 -60 -26.5 -96t-71.5 -36q-26 0 -45 12.5z" />
    <glyph glyph-name="ograve" unicode="&#xf2;" horiz-adv-x="540" 
d="M159 18.5q-51 30.5 -81.5 88t-30.5 135.5t30.5 136t81.5 88.5t111 30.5t111 -30.5t81.5 -88.5t30.5 -136t-30.5 -135.5t-81.5 -88t-111 -30.5t-111 30.5zM346.5 73q33.5 24 52.5 68t19 101t-19 101t-52.5 68.5t-76.5 24.5t-76.5 -24.5t-52 -68.5t-18.5 -101
q0 -87 41 -140t106 -53q43 0 76.5 24zM134 726l52 48l140 -164l-38 -37z" />
    <glyph glyph-name="oacute" unicode="&#xf3;" horiz-adv-x="540" 
d="M159 18.5q-51 30.5 -81.5 88t-30.5 135.5t30.5 136t81.5 88.5t111 30.5t111 -30.5t81.5 -88.5t30.5 -136t-30.5 -135.5t-81.5 -88t-111 -30.5t-111 30.5zM346.5 73q33.5 24 52.5 68t19 101t-19 101t-52.5 68.5t-76.5 24.5t-76.5 -24.5t-52 -68.5t-18.5 -101
q0 -87 41 -140t106 -53q43 0 76.5 24zM214 610l140 164l52 -48l-154 -153z" />
    <glyph glyph-name="ocircumflex" unicode="&#xf4;" horiz-adv-x="540" 
d="M159 18.5q-51 30.5 -81.5 88t-30.5 135.5t30.5 136t81.5 88.5t111 30.5t111 -30.5t81.5 -88.5t30.5 -136t-30.5 -135.5t-81.5 -88t-111 -30.5t-111 30.5zM346.5 73q33.5 24 52.5 68t19 101t-19 101t-52.5 68.5t-76.5 24.5t-76.5 -24.5t-52 -68.5t-18.5 -101
q0 -87 41 -140t106 -53q43 0 76.5 24zM119 598l115 141h72l115 -141l-32 -29l-117 116h-4l-117 -116z" />
    <glyph glyph-name="otilde" unicode="&#xf5;" horiz-adv-x="540" 
d="M159 18.5q-51 30.5 -81.5 88t-30.5 135.5t30.5 136t81.5 88.5t111 30.5t111 -30.5t81.5 -88.5t30.5 -136t-30.5 -135.5t-81.5 -88t-111 -30.5t-111 30.5zM346.5 73q33.5 24 52.5 68t19 101t-19 101t-52.5 68.5t-76.5 24.5t-76.5 -24.5t-52 -68.5t-18.5 -101
q0 -87 41 -140t106 -53q43 0 76.5 24zM298 590.5q-19 12.5 -43 36.5q-19 19 -31 28t-27 9q-43 0 -48 -82l-50 3q3 61 26.5 97t72.5 36q26 0 45 -13t42 -37q17 -18 30 -27.5t28 -9.5q22 0 34 22.5t14 60.5l50 -4q-3 -60 -26.5 -96t-71.5 -36q-26 0 -45 12.5z" />
    <glyph glyph-name="odieresis" unicode="&#xf6;" horiz-adv-x="540" 
d="M159 18.5q-51 30.5 -81.5 88t-30.5 135.5t30.5 136t81.5 88.5t111 30.5t111 -30.5t81.5 -88.5t30.5 -136t-30.5 -135.5t-81.5 -88t-111 -30.5t-111 30.5zM346.5 73q33.5 24 52.5 68t19 101t-19 101t-52.5 68.5t-76.5 24.5t-76.5 -24.5t-52 -68.5t-18.5 -101
q0 -87 41 -140t106 -53q43 0 76.5 24zM142.5 603q-13.5 13 -13.5 33t13.5 33.5t33.5 13.5t33 -13.5t13 -33.5q0 -19 -13.5 -32.5t-32.5 -13.5q-20 0 -33.5 13zM331.5 603.5q-13.5 13.5 -13.5 32.5q0 20 13 33.5t33 13.5t33.5 -13.5t13.5 -33.5t-13.5 -33t-33.5 -13
q-19 0 -32.5 13.5z" />
    <glyph glyph-name="divide" unicode="&#xf7;" horiz-adv-x="492" 
d="M210.5 473.5q-14.5 14.5 -14.5 36.5t14.5 36t35.5 14t35.5 -14t14.5 -36t-14.5 -36.5t-35.5 -14.5t-35.5 14.5zM34 358h424v-56h-424v56zM210.5 113.5q-14.5 14.5 -14.5 36.5t14.5 36t35.5 14t35.5 -14t14.5 -36t-14.5 -36.5t-35.5 -14.5t-35.5 14.5z" />
    <glyph glyph-name="oslash" unicode="&#xf8;" horiz-adv-x="540" 
d="M439 414q54 -68 54 -172q0 -78 -30.5 -135.5t-81.5 -88t-111 -30.5q-38 0 -74 13t-65 38l-51 -62l-34 27l55 66q-54 70 -54 172q0 78 30.5 136t81.5 88.5t111 30.5q38 0 74.5 -13t64.5 -38l51 61l34 -27zM146 126l222 269q-40 42 -98 42q-43 0 -77 -24.5t-53.5 -68
t-19.5 -99.5q0 -72 26 -119zM394 359l-222 -270q40 -42 98 -42q43 0 77.5 24.5t54 68t19.5 99.5q0 69 -27 120z" />
    <glyph glyph-name="ugrave" unicode="&#xf9;" horiz-adv-x="540" 
d="M114 35.5q-36 47.5 -36 141.5v308h72v-299q0 -70 23 -102.5t74 -32.5q37 0 67.5 20t68.5 66v348h73v-485h-61l-6 77h-3q-37 -43 -75.5 -66t-85.5 -23q-75 0 -111 47.5zM137 726l52 48l140 -164l-38 -37z" />
    <glyph glyph-name="uacute" unicode="&#xfa;" horiz-adv-x="540" 
d="M114 35.5q-36 47.5 -36 141.5v308h72v-299q0 -70 23 -102.5t74 -32.5q37 0 67.5 20t68.5 66v348h73v-485h-61l-6 77h-3q-37 -43 -75.5 -66t-85.5 -23q-75 0 -111 47.5zM217 610l140 164l52 -48l-154 -153z" />
    <glyph glyph-name="ucircumflex" unicode="&#xfb;" horiz-adv-x="540" 
d="M114 35.5q-36 47.5 -36 141.5v308h72v-299q0 -70 23 -102.5t74 -32.5q37 0 67.5 20t68.5 66v348h73v-485h-61l-6 77h-3q-37 -43 -75.5 -66t-85.5 -23q-75 0 -111 47.5zM122 598l115 141h72l115 -141l-32 -29l-117 116h-4l-117 -116z" />
    <glyph glyph-name="udieresis" unicode="&#xfc;" horiz-adv-x="540" 
d="M114 35.5q-36 47.5 -36 141.5v308h72v-299q0 -70 23 -102.5t74 -32.5q37 0 67.5 20t68.5 66v348h73v-485h-61l-6 77h-3q-37 -43 -75.5 -66t-85.5 -23q-75 0 -111 47.5zM145.5 603q-13.5 13 -13.5 33t13.5 33.5t33.5 13.5t33 -13.5t13 -33.5q0 -19 -13.5 -32.5
t-32.5 -13.5q-20 0 -33.5 13zM334.5 603.5q-13.5 13.5 -13.5 32.5q0 20 13 33.5t33 13.5t33.5 -13.5t13.5 -33.5t-13.5 -33t-33.5 -13q-19 0 -32.5 13.5z" />
    <glyph glyph-name="yacute" unicode="&#xfd;" horiz-adv-x="459" 
d="M31 -202l14 59q20 -8 38 -8q40 0 68 30t45 81l12 37l-196 488h75l104 -278l48 -136h4q14 42 29 92l13 44l91 278h71l-184 -530q-28 -78 -69.5 -122.5t-107.5 -44.5q-30 0 -55 10zM185 610l140 164l52 -48l-154 -153z" />
    <glyph glyph-name="thorn" unicode="&#xfe;" horiz-adv-x="552" 
d="M85 714h72v-197l-1 -85q82 65 152 65q94 0 144.5 -66.5t50.5 -180.5q0 -80 -29 -139.5t-77 -91t-104 -31.5q-66 0 -137 55l1 -84v-167h-72v922zM356.5 74.5q33.5 24.5 52.5 69.5t19 105q0 87 -32.5 136.5t-101.5 49.5q-61 0 -137 -70v-262q33 -28 65 -40.5t59 -12.5
q42 0 75.5 24.5z" />
    <glyph glyph-name="ydieresis" unicode="&#xff;" horiz-adv-x="459" 
d="M31 -202l14 59q20 -8 38 -8q40 0 68 30t45 81l12 37l-196 488h75l104 -278l48 -136h4q14 42 29 92l13 44l91 278h71l-184 -530q-28 -78 -69.5 -122.5t-107.5 -44.5q-30 0 -55 10zM113.5 603q-13.5 13 -13.5 33t13.5 33.5t33.5 13.5t33 -13.5t13 -33.5q0 -19 -13.5 -32.5
t-32.5 -13.5q-20 0 -33.5 13zM302.5 603.5q-13.5 13.5 -13.5 32.5q0 20 13 33.5t33 13.5t33.5 -13.5t13.5 -33.5t-13.5 -33t-33.5 -13q-19 0 -32.5 13.5z" />
    <glyph glyph-name="Amacron" unicode="&#x100;" horiz-adv-x="539" 
d="M391 207h-245l-67 -207h-75l225 657h82l224 -657h-78zM372 266l-34 106q-40 125 -68 223h-4q-33 -121 -67 -223l-34 -106h207zM137 789h262v-52h-262v52z" />
    <glyph glyph-name="amacron" unicode="&#x101;" horiz-adv-x="501" 
d="M93 24q-40 36 -40 101q0 79 72 121.5t230 59.5q0 57 -23.5 93.5t-80.5 36.5q-69 0 -147 -53l-29 50q96 64 188 64q84 0 124 -52.5t40 -144.5v-300h-60l-6 59h-3q-86 -71 -163 -71q-62 0 -102 36zM282.5 63.5q33.5 16.5 72.5 51.5v142q-125 -15 -177.5 -46t-52.5 -82
q0 -41 25 -61.5t64 -20.5q35 0 68.5 16.5zM139 654h260v-52h-260v52z" />
    <glyph glyph-name="Abreve" unicode="&#x102;" horiz-adv-x="539" 
d="M391 207h-245l-67 -207h-75l225 657h82l224 -657h-78zM372 266l-34 106q-40 125 -68 223h-4q-33 -121 -67 -223l-34 -106h207zM167 743q-36 36 -42 91l45 8q6 -39 31 -63.5t67 -24.5t67 24.5t31 63.5l45 -8q-6 -55 -42 -91t-101 -36t-101 36z" />
    <glyph glyph-name="abreve" unicode="&#x103;" horiz-adv-x="501" 
d="M93 24q-40 36 -40 101q0 79 72 121.5t230 59.5q0 57 -23.5 93.5t-80.5 36.5q-69 0 -147 -53l-29 50q96 64 188 64q84 0 124 -52.5t40 -144.5v-300h-60l-6 59h-3q-86 -71 -163 -71q-62 0 -102 36zM282.5 63.5q33.5 16.5 72.5 51.5v142q-125 -15 -177.5 -46t-52.5 -82
q0 -41 25 -61.5t64 -20.5q35 0 68.5 16.5zM158 615q-38 44 -43 106l47 7q6 -44 33 -75.5t74 -31.5t74 31.5t33 75.5l47 -7q-5 -62 -43 -106t-111 -44t-111 44z" />
    <glyph glyph-name="Ccaron" unicode="&#x10c;" horiz-adv-x="569" 
d="M189.5 29q-64.5 41 -101 118t-36.5 181q0 103 37 180.5t103 119t149 41.5q55 0 101 -23t77 -57l-41 -49q-57 64 -136 64q-64 0 -112 -33.5t-74.5 -95t-26.5 -145.5t25.5 -146.5t73 -96.5t111.5 -34q46 0 83.5 19t72.5 57l41 -46q-40 -47 -89 -71t-111 -24
q-82 0 -146.5 41zM183 820l32 24l110 -94h4l110 94l32 -24l-106 -113h-76z" />
    <glyph glyph-name="ccaron" unicode="&#x10d;" horiz-adv-x="454" 
d="M157.5 18.5q-51.5 30.5 -81 87.5t-29.5 136q0 78 31.5 136t84.5 88.5t115 30.5q79 0 141 -58l-38 -48q-24 22 -48 33.5t-52 11.5q-45 0 -81 -24.5t-56.5 -68.5t-20.5 -101q0 -87 43 -140t113 -53q63 0 118 50l32 -49q-33 -29 -73 -45.5t-83 -16.5q-64 0 -115.5 30.5z
M121 714l32 30l117 -117h4l117 117l32 -30l-115 -140h-72z" />
    <glyph glyph-name="Emacron" unicode="&#x112;" horiz-adv-x="524" 
d="M92 657h373v-63h-299v-217h252v-62h-252v-252h309v-63h-383v657zM153 789h262v-52h-262v52z" />
    <glyph glyph-name="emacron" unicode="&#x113;" horiz-adv-x="492" 
d="M452 226h-335q5 -85 52.5 -132t116.5 -47q64 0 123 39l27 -48q-36 -23 -74 -36.5t-85 -13.5q-64 0 -116.5 30.5t-83 88.5t-30.5 135q0 76 30.5 134t80.5 89.5t106 31.5q90 0 140.5 -60.5t50.5 -166.5q0 -26 -3 -44zM390 279q0 77 -33 118t-92 41q-54 0 -96 -41t-50 -118
h271zM136 654h260v-52h-260v52z" />
    <glyph glyph-name="Ebreve" unicode="&#x114;" horiz-adv-x="524" 
d="M92 657h373v-63h-299v-217h252v-62h-252v-252h309v-63h-383v657zM183 743q-36 36 -42 91l45 8q6 -39 31 -63.5t67 -24.5t67 24.5t31 63.5l45 -8q-6 -55 -42 -91t-101 -36t-101 36z" />
    <glyph glyph-name="ebreve" unicode="&#x115;" horiz-adv-x="492" 
d="M452 226h-335q5 -85 52.5 -132t116.5 -47q64 0 123 39l27 -48q-36 -23 -74 -36.5t-85 -13.5q-64 0 -116.5 30.5t-83 88.5t-30.5 135q0 76 30.5 134t80.5 89.5t106 31.5q90 0 140.5 -60.5t50.5 -166.5q0 -26 -3 -44zM390 279q0 77 -33 118t-92 41q-54 0 -96 -41t-50 -118
h271zM155 615q-38 44 -43 106l47 7q6 -44 33 -75.5t74 -31.5t74 31.5t33 75.5l47 -7q-5 -62 -43 -106t-111 -44t-111 44z" />
    <glyph glyph-name="Eogonek" unicode="&#x118;" horiz-adv-x="524" 
d="M348 -187.5q-26 22.5 -26 63.5q0 38 21.5 71t52.5 53h-304v657h373v-63h-299v-217h252v-62h-252v-252h309v-63h-3q-35 -5 -63.5 -37.5t-28.5 -71.5q0 -23 14 -35.5t34 -12.5q22 0 41 14l21 -40q-14 -11 -35.5 -19t-40.5 -8q-40 0 -66 22.5z" />
    <glyph glyph-name="eogonek" unicode="&#x119;" horiz-adv-x="492" 
d="M293.5 -183q-24.5 22 -24.5 62q0 34 18 64t43 53q-21 -8 -53 -8q-64 0 -116.5 30.5t-83 88.5t-30.5 135q0 76 30.5 134t80.5 89.5t106 31.5q90 0 140.5 -60.5t50.5 -166.5q0 -26 -3 -44h-332q3 -81 48 -130t118 -49q64 0 123 39l27 -48q-63 -45 -87.5 -78.5t-24.5 -66.5
q0 -23 13.5 -35.5t33.5 -12.5q24 0 41 13l20 -37q-13 -11 -35 -18.5t-40 -7.5q-39 0 -63.5 22zM390 279q0 77 -33 118t-92 41q-56 0 -97.5 -43t-48.5 -116h271z" />
    <glyph glyph-name="Gdotaccent" unicode="&#x120;" horiz-adv-x="614" 
d="M192.5 29q-66.5 41 -103.5 118t-37 181t38 181t106 118.5t155 41.5q109 0 187 -80l-41 -49q-60 64 -144 64q-68 0 -118.5 -33.5t-78 -95t-27.5 -145.5q0 -128 59 -202.5t164 -74.5q37 0 71 11.5t55 30.5v179h-144v62h212v-272q-33 -35 -85 -55.5t-116 -20.5
q-86 0 -152.5 41zM313.5 730q-15.5 14 -15.5 37q0 21 15.5 35t37.5 14t37.5 -14t15.5 -35q0 -23 -15.5 -37t-37.5 -14t-37.5 14z" />
    <glyph glyph-name="gdotaccent" unicode="&#x121;" horiz-adv-x="500" 
d="M101.5 -191q-54.5 35 -54.5 96q0 31 18.5 60t52.5 52v4q-19 12 -31 32t-12 47q0 28 15.5 51.5t37.5 38.5v4q-26 21 -44 55t-18 75q0 51 24 90.5t65 61t90 21.5q33 0 67 -12h168v-57h-103q19 -18 31 -46t12 -59q0 -50 -23 -88.5t-63 -59.5t-89 -21q-40 0 -74 17
q-16 -13 -24.5 -26.5t-8.5 -33.5q0 -26 19.5 -40.5t66.5 -14.5h97q85 0 126 -28t41 -87q0 -44 -30 -82.5t-85 -61.5t-126 -23q-91 0 -145.5 35zM321.5 237.5q31.5 33.5 31.5 86.5q0 54 -31 86.5t-77 32.5t-77.5 -32.5t-31.5 -86.5q0 -53 31.5 -86.5t77.5 -33.5
q45 0 76.5 33.5zM339.5 -159.5q36.5 14.5 56.5 39t20 51.5q0 34 -25 48.5t-76 14.5h-89q-31 0 -62 8q-53 -37 -53 -87q0 -41 39 -65t107 -24q46 0 82.5 14.5zM222 603q-14 14 -14 37q0 22 14 35.5t36 13.5t36 -13.5t14 -35.5q0 -23 -14 -37t-36 -14t-36 14z" />
    <glyph glyph-name="Hbar" unicode="&#x126;" horiz-adv-x="683" 
d="M650 492h-73v-492h-74v314h-317v-314h-74v492h-79v39l79 5v121h74v-121h317v121h74v-121h73v-44zM503 492h-317v-113h317v113z" />
    <glyph glyph-name="hbar" unicode="&#x127;" horiz-adv-x="540" 
d="M429 411.5q36 -47.5 36 -141.5v-270h-73v261q0 70 -22.5 102t-73.5 32q-36 0 -67 -18.5t-72 -59.5v-317h-72v574h-75v39l75 4v97h72v-97h184v-43h-184v-96l-2 -102q40 40 78 61.5t84 21.5q76 0 112 -47.5z" />
    <glyph glyph-name="Imacron" unicode="&#x12a;" horiz-adv-x="257" 
d="M92 657h74v-657h-74v657zM-2 789h262v-52h-262v52z" />
    <glyph glyph-name="imacron" unicode="&#x12b;" horiz-adv-x="242" 
d="M85 485h72v-485h-72v485zM-8 654h260v-52h-260v52z" />
    <glyph glyph-name="dotlessi" unicode="&#x131;" horiz-adv-x="242" 
d="M85 485h72v-485h-72v485z" />
    <glyph glyph-name="Lslash" unicode="&#x141;" horiz-adv-x="483" 
d="M461 63v-63h-364v244l-73 -40l-27 47l100 55v351h74v-318l178 95l27 -48l-205 -108v-215h290z" />
    <glyph glyph-name="lslash" unicode="&#x142;" horiz-adv-x="256" 
d="M202 51l10 -56q-19 -7 -44 -7q-41 0 -60 25.5t-19 75.5v251l-60 -38l-28 47l88 55v310h72v-273l54 35l27 -47l-81 -51v-295q0 -17 6.5 -25.5t16.5 -8.5q8 0 18 2z" />
    <glyph glyph-name="Omacron" unicode="&#x14c;" horiz-adv-x="661" 
d="M186 30q-63 42 -98.5 120t-35.5 181t35.5 179.5t98.5 117.5t145 41q81 0 144 -41t98.5 -117.5t35.5 -179.5t-35.5 -181t-98.5 -120t-144 -42q-82 0 -145 42zM436.5 87.5q45.5 34.5 70.5 97t25 146.5q0 83 -25 144.5t-70.5 95t-105.5 33.5q-61 0 -106.5 -33.5t-70.5 -95
t-25 -144.5q0 -84 25 -147t71 -97t106 -34t105.5 34.5zM200 789h262v-52h-262v52z" />
    <glyph glyph-name="omacron" unicode="&#x14d;" horiz-adv-x="540" 
d="M159 18.5q-51 30.5 -81.5 88t-30.5 135.5t30.5 136t81.5 88.5t111 30.5t111 -30.5t81.5 -88.5t30.5 -136t-30.5 -135.5t-81.5 -88t-111 -30.5t-111 30.5zM346.5 73q33.5 24 52.5 68t19 101t-19 101t-52.5 68.5t-76.5 24.5t-76.5 -24.5t-52 -68.5t-18.5 -101
q0 -87 41 -140t106 -53q43 0 76.5 24zM140 654h260v-52h-260v52z" />
    <glyph glyph-name="Obreve" unicode="&#x14e;" horiz-adv-x="661" 
d="M186 30q-63 42 -98.5 120t-35.5 181t35.5 179.5t98.5 117.5t145 41q81 0 144 -41t98.5 -117.5t35.5 -179.5t-35.5 -181t-98.5 -120t-144 -42q-82 0 -145 42zM436.5 87.5q45.5 34.5 70.5 97t25 146.5q0 83 -25 144.5t-70.5 95t-105.5 33.5q-61 0 -106.5 -33.5t-70.5 -95
t-25 -144.5q0 -84 25 -147t71 -97t106 -34t105.5 34.5zM230 743q-36 36 -42 91l45 8q6 -39 31 -63.5t67 -24.5t67 24.5t31 63.5l45 -8q-6 -55 -42 -91t-101 -36t-101 36z" />
    <glyph glyph-name="obreve" unicode="&#x14f;" horiz-adv-x="540" 
d="M159 18.5q-51 30.5 -81.5 88t-30.5 135.5t30.5 136t81.5 88.5t111 30.5t111 -30.5t81.5 -88.5t30.5 -136t-30.5 -135.5t-81.5 -88t-111 -30.5t-111 30.5zM346.5 73q33.5 24 52.5 68t19 101t-19 101t-52.5 68.5t-76.5 24.5t-76.5 -24.5t-52 -68.5t-18.5 -101
q0 -87 41 -140t106 -53q43 0 76.5 24zM159 615q-38 44 -43 106l47 7q6 -44 33 -75.5t74 -31.5t74 31.5t33 75.5l47 -7q-5 -62 -43 -106t-111 -44t-111 44z" />
    <glyph glyph-name="OE" unicode="&#x152;" horiz-adv-x="844" 
d="M135 88q-83 88 -83 243t83 240.5t236 85.5h414v-63h-282v-217h235v-62h-235v-252h292v-63h-427q-150 0 -233 88zM429 61v535h-52q-122 0 -185 -68.5t-63 -196.5t63 -199t185 -71h52z" />
    <glyph glyph-name="oe" unicode="&#x153;" horiz-adv-x="841" 
d="M155.5 18.5q-49.5 30.5 -79 88t-29.5 135.5t29.5 136t79.5 88.5t109 30.5q58 0 105.5 -33t73.5 -95q28 60 73.5 94t99.5 34q88 0 137.5 -61.5t49.5 -166.5q0 -27 -4 -43h-323q1 -52 22.5 -92.5t57 -63t78.5 -22.5q34 0 63 10.5t59 30.5l27 -51q-76 -50 -158 -50
q-58 0 -106 33.5t-75 92.5q-28 -62 -74 -94t-107 -32q-59 0 -108.5 30.5zM739 275q0 79 -33 121t-91 42q-53 0 -92 -45t-46 -118h262zM369 102q40 53 40 140q0 57 -18 101t-51 68.5t-75 24.5q-41 0 -73.5 -24.5t-51 -68.5t-18.5 -101t18.5 -101t51 -68t73.5 -24q64 0 104 53
z" />
    <glyph glyph-name="Sacute" unicode="&#x15a;" horiz-adv-x="530" 
d="M144.5 14q-58.5 26 -101.5 72l45 51q36 -39 84 -61.5t100 -22.5q67 0 105.5 31t38.5 83q0 33 -14 55t-36 35t-62 31l-95 42q-58 25 -95.5 64t-37.5 104q0 49 26 88t72.5 61t103.5 22t106.5 -22t84.5 -59l-40 -47q-65 63 -151 63q-58 0 -93 -28t-35 -74q0 -31 16 -52
t37 -33t57 -28l95 -42q65 -27 100.5 -67t35.5 -108q0 -52 -27 -94t-77 -66t-116 -24q-68 0 -126.5 26zM226 736l137 127l42 -49l-147 -115z" />
    <glyph glyph-name="sacute" unicode="&#x15b;" horiz-adv-x="416" 
d="M112 6.5q-47 18.5 -83 48.5l37 49q36 -29 70 -44t76 -15q48 0 74 23t26 58t-29.5 56t-83.5 40q-69 25 -108 54.5t-39 84.5q0 59 44.5 97.5t120.5 38.5q41 0 79 -15t68 -39l-35 -47q-29 21 -55 32t-57 11q-46 0 -70 -21.5t-24 -52.5q0 -22 14.5 -38t35.5 -25.5t59 -24.5
q51 -19 80 -34t50 -42.5t21 -70.5q0 -39 -20.5 -71.5t-60 -51.5t-93.5 -19q-50 0 -97 18.5zM163 610l140 164l52 -48l-154 -153z" />
    <glyph glyph-name="Scaron" unicode="&#x160;" horiz-adv-x="530" 
d="M144.5 14q-58.5 26 -101.5 72l45 51q36 -39 84 -61.5t100 -22.5q67 0 105.5 31t38.5 83q0 33 -14 55t-36 35t-62 31l-95 42q-58 25 -95.5 64t-37.5 104q0 49 26 88t72.5 61t103.5 22t106.5 -22t84.5 -59l-40 -47q-65 63 -151 63q-58 0 -93 -28t-35 -74q0 -31 16 -52
t37 -33t57 -28l95 -42q65 -27 100.5 -67t35.5 -108q0 -52 -27 -94t-77 -66t-116 -24q-68 0 -126.5 26zM132 820l32 24l110 -94h4l110 94l32 -24l-106 -113h-76z" />
    <glyph glyph-name="scaron" unicode="&#x161;" horiz-adv-x="416" 
d="M112 6.5q-47 18.5 -83 48.5l37 49q36 -29 70 -44t76 -15q48 0 74 23t26 58t-29.5 56t-83.5 40q-69 25 -108 54.5t-39 84.5q0 59 44.5 97.5t120.5 38.5q41 0 79 -15t68 -39l-35 -47q-29 21 -55 32t-57 11q-46 0 -70 -21.5t-24 -52.5q0 -22 14.5 -38t35.5 -25.5t59 -24.5
q51 -19 80 -34t50 -42.5t21 -70.5q0 -39 -20.5 -71.5t-60 -51.5t-93.5 -19q-50 0 -97 18.5zM68 714l32 30l117 -117h4l117 117l32 -30l-115 -140h-72z" />
    <glyph glyph-name="Umacron" unicode="&#x16a;" horiz-adv-x="643" 
d="M152 53.5q-63 65.5 -63 212.5v391h74v-391q0 -114 43 -163.5t115 -49.5q74 0 118 49.5t44 163.5v391h71v-391q0 -147 -63.5 -212.5t-169.5 -65.5t-169 65.5zM190 789h262v-52h-262v52z" />
    <glyph glyph-name="umacron" unicode="&#x16b;" horiz-adv-x="540" 
d="M114 35.5q-36 47.5 -36 141.5v308h72v-299q0 -70 23 -102.5t74 -32.5q37 0 67.5 20t68.5 66v348h73v-485h-61l-6 77h-3q-37 -43 -75.5 -66t-85.5 -23q-75 0 -111 47.5zM143 654h260v-52h-260v52z" />
    <glyph glyph-name="Ydieresis" unicode="&#x178;" horiz-adv-x="468" 
d="M197 258l-197 399h79l88 -191l17 -37q40 -87 49 -105h4l17 35q42 88 50 107l88 191h77l-198 -399v-258h-74v258zM100 730.5q-13 12.5 -13 33.5q0 20 13 32.5t33 12.5t32.5 -12.5t12.5 -32.5q0 -21 -12.5 -33.5t-32.5 -12.5t-33 12.5zM302.5 730.5q-12.5 12.5 -12.5 33.5
q0 20 12.5 32.5t32.5 12.5t33 -12.5t13 -32.5q0 -21 -13 -33.5t-33 -12.5t-32.5 12.5z" />
    <glyph glyph-name="Zcaron" unicode="&#x17d;" horiz-adv-x="539" 
d="M46 44l354 550h-322v63h414v-44l-354 -550h357v-63h-449v44zM136 820l32 24l110 -94h4l110 94l32 -24l-106 -113h-76z" />
    <glyph glyph-name="zcaron" unicode="&#x17e;" horiz-adv-x="419" 
d="M30 39l263 386h-234v60h326v-39l-263 -386h272v-60h-364v39zM78 714l32 30l117 -117h4l117 117l32 -30l-115 -140h-72z" />
    <glyph glyph-name="uni018F" unicode="&#x18f;" horiz-adv-x="655" 
d="M531 580.5q72 -88.5 72 -250.5q0 -107 -34 -184t-96.5 -117.5t-146.5 -40.5q-83 0 -143 41.5t-92 117.5t-32 178l1 21h470q-3 127 -55.5 194t-149.5 67q-48 0 -90 -17.5t-73 -47.5l-36 51q37 34 89 55t115 21q129 0 201 -88.5zM467.5 112.5q53.5 62.5 61.5 177.5h-395
q4 -112 56 -176t136 -64q88 0 141.5 62.5z" />
    <glyph glyph-name="florin" unicode="&#x192;" horiz-adv-x="492" 
d="M289 471l-7 -63h129v-57h-136l-27 -244q-11 -99 -47.5 -151.5t-113.5 -52.5q-43 0 -71 15l15 55q20 -9 50 -11q46 1 68.5 40t31.5 119l25 230h-90v52l69 5h27l6 57q11 102 49 153t113 51q39 0 77 -18l-16 -57q-16 7 -28.5 11t-29.5 4q-79 0 -94 -138z" />
    <glyph glyph-name="Gcaron" unicode="&#x1e6;" horiz-adv-x="614" 
d="M192.5 29q-66.5 41 -103.5 118t-37 181t38 181t106 118.5t155 41.5q109 0 187 -80l-41 -49q-60 64 -144 64q-68 0 -118.5 -33.5t-78 -95t-27.5 -145.5q0 -128 59 -202.5t164 -74.5q37 0 71 11.5t55 30.5v179h-144v62h212v-272q-33 -35 -85 -55.5t-116 -20.5
q-86 0 -152.5 41zM207 820l32 24l110 -94h4l110 94l32 -24l-106 -113h-76z" />
    <glyph glyph-name="gcaron" unicode="&#x1e7;" horiz-adv-x="500" 
d="M101.5 -191q-54.5 35 -54.5 96q0 31 18.5 60t52.5 52v4q-19 12 -31 32t-12 47q0 28 15.5 51.5t37.5 38.5v4q-26 21 -44 55t-18 75q0 51 24 90.5t65 61t90 21.5q33 0 67 -12h168v-57h-103q19 -18 31 -46t12 -59q0 -50 -23 -88.5t-63 -59.5t-89 -21q-40 0 -74 17
q-16 -13 -24.5 -26.5t-8.5 -33.5q0 -26 19.5 -40.5t66.5 -14.5h97q85 0 126 -28t41 -87q0 -44 -30 -82.5t-85 -61.5t-126 -23q-91 0 -145.5 35zM321.5 237.5q31.5 33.5 31.5 86.5q0 54 -31 86.5t-77 32.5t-77.5 -32.5t-31.5 -86.5q0 -53 31.5 -86.5t77.5 -33.5
q45 0 76.5 33.5zM339.5 -159.5q36.5 14.5 56.5 39t20 51.5q0 34 -25 48.5t-76 14.5h-89q-31 0 -62 8q-53 -37 -53 -87q0 -41 39 -65t107 -24q46 0 82.5 14.5zM107 714l32 30l117 -117h4l117 117l32 -30l-115 -140h-72z" />
    <glyph glyph-name="uni0250" unicode="&#x250;" horiz-adv-x="508" 
d="M123.5 42.5q-46.5 54.5 -46.5 149.5v293h60l7 -70h2q37 38 82.5 60t92.5 22q58 0 94 -33t36 -93q0 -83 -72 -129t-229 -64q0 -55 29 -92.5t99 -37.5q66 0 139 54l30 -51q-90 -63 -178 -63q-99 0 -145.5 54.5zM327 275.5q53 32.5 53 86.5q0 38 -22.5 56.5t-58.5 18.5
q-74 0 -149 -79v-130q124 15 177 47.5z" />
    <glyph glyph-name="uni0254" unicode="&#x254;" horiz-adv-x="454" 
d="M98 4.5q-40 16.5 -73 45.5l32 49q55 -50 118 -50q69 0 112.5 53t43.5 140q0 57 -19.5 101t-53 68.5t-75.5 24.5q-34 0 -59.5 -11.5t-51.5 -33.5l-38 48q32 27 69 42.5t88 15.5q58 0 107 -30.5t78.5 -88t29.5 -136.5q0 -78 -29.5 -135.5t-80.5 -88t-115 -30.5
q-43 0 -83 16.5z" />
    <glyph glyph-name="uni0259" unicode="&#x259;" horiz-adv-x="492" 
d="M91 50.5q-54 62.5 -54 171.5q0 21 4 45h332q-3 77 -43 124t-107 47t-128 -43l-27 52q76 50 166 50q61 0 109 -30t75 -87.5t27 -136.5q0 -77 -27.5 -135t-75 -89t-106.5 -31q-91 0 -145 62.5zM330 91q36 44 43 123h-271q0 -82 35.5 -124.5t97.5 -42.5q59 0 95 44z" />
    <glyph glyph-name="uni025B" unicode="&#x25b;" horiz-adv-x="436" 
d="M107 28q-56 40 -56 105q0 49 30.5 79t77.5 43v4q-38 14 -60 43.5t-22 64.5q0 62 50 96t123 34q77 0 146 -49l-30 -49q-30 19 -57 29t-57 10q-45 0 -73.5 -20.5t-28.5 -58.5q0 -37 30 -58.5t89 -21.5h53v-53h-67q-63 0 -97 -22.5t-34 -64.5t36 -67t95 -25q35 0 65.5 10.5
t63.5 35.5l32 -49q-41 -30 -80.5 -43t-88.5 -13q-84 0 -140 40z" />
    <glyph glyph-name="uni0283" unicode="&#x283;" horiz-adv-x="242" 
d="M-38 -208l15 56q24 -8 47 -8q35 0 48 24t13 73v634q0 77 32.5 117t104.5 40q31 0 59 -13l-15 -56q-23 9 -37 9q-41 0 -56 -24.5t-15 -73.5v-634q0 -76 -30.5 -116t-96.5 -40q-35 0 -69 12z" />
    <glyph glyph-name="uni028E" unicode="&#x28e;" horiz-adv-x="459" 
d="M208 560q27 77 68.5 121.5t107.5 44.5q30 0 55 -10l-14 -58q-23 7 -38 7q-40 0 -68 -29.5t-45 -80.5l-22 -67l195 -488h-75l-103 277l-35 96q-5 18 -14 41h-4l-19 -63q-21 -68 -23 -74l-90 -277h-72z" />
    <glyph glyph-name="uni0292" unicode="&#x292;" horiz-adv-x="419" 
d="M86.5 -199q-45.5 21 -83.5 56l37 47q31 -29 66.5 -46t86.5 -17q37 0 67.5 19.5t49 54.5t18.5 80q0 65 -36.5 101.5t-103.5 36.5q-20 0 -31.5 -3.5t-32.5 -13.5l-30 43l197 266h-247v60h336v-39l-194 -262q24 2 33 2q84 0 133.5 -52.5t49.5 -135.5q0 -67 -28.5 -116.5
t-75 -75.5t-100.5 -26q-66 0 -111.5 21z" />
    <glyph glyph-name="uni0294" unicode="&#x294;" horiz-adv-x="412" 
d="M149 325q90 51 129.5 98.5t39.5 111.5q0 60 -34 95t-96 35q-49 0 -84.5 -20t-65.5 -54l-39 48q79 87 193 87q88 0 144 -49.5t56 -140.5q0 -79 -42.5 -133.5t-128.5 -111.5v-291h-72v325z" />
    <glyph glyph-name="uni0295" unicode="&#x295;" horiz-adv-x="433" 
d="M200 291q-86 57 -128.5 111.5t-42.5 133.5q0 90 59 140t151 50q108 0 183 -87l-39 -48q-27 34 -60.5 54t-78.5 20q-66 0 -103.5 -35t-37.5 -95q0 -64 39.5 -111.5t130.5 -98.5v-325h-73v291z" />
    <glyph glyph-name="uni02A7" unicode="&#x2a7;" horiz-adv-x="418" 
d="M292 -208l14 56q26 -8 47 -8q35 0 48.5 24.5t13.5 72.5v634q0 76 32.5 116.5t103.5 40.5q33 0 59 -13l-14 -56q-23 9 -38 9q-40 0 -55.5 -24.5t-15.5 -73.5v-634q0 -76 -30 -116t-97 -40q-36 0 -68 12zM129 29q-31 41 -31 117v279h-73v55l76 5l9 137h61v-137h133v-60
h-133v-281q0 -48 17.5 -72t59.5 -24q21 0 56 13l15 -55q-54 -18 -87 -18q-72 0 -103 41z" />
    <glyph glyph-name="uni02B9" unicode="&#x2b9;" horiz-adv-x="242" 
 />
    <glyph glyph-name="circumflex" unicode="&#x2c6;" horiz-adv-x="540" 
d="M119 598l115 141h72l115 -141l-32 -29l-117 116h-4l-117 -116z" />
    <glyph glyph-name="caron" unicode="&#x2c7;" horiz-adv-x="540" 
d="M119 714l32 30l117 -117h4l117 117l32 -30l-115 -140h-72z" />
    <glyph glyph-name="uni02C8" unicode="&#x2c8;" horiz-adv-x="110" 
d="M23 726h63l-6 -194h-51z" />
    <glyph glyph-name="uni02D0" unicode="&#x2d0;" horiz-adv-x="242" 
d="M85 372h72l3 -128h-78zM82 217h78l-3 -130h-72z" />
    <glyph glyph-name="breve" unicode="&#x2d8;" horiz-adv-x="540" 
d="M159 615q-38 44 -43 106l47 7q6 -44 33 -75.5t74 -31.5t74 31.5t33 75.5l47 -7q-5 -62 -43 -106t-111 -44t-111 44z" />
    <glyph glyph-name="dotaccent" unicode="&#x2d9;" horiz-adv-x="540" 
d="M234 603q-14 14 -14 37q0 22 14 35.5t36 13.5t36 -13.5t14 -35.5q0 -23 -14 -37t-36 -14t-36 14z" />
    <glyph glyph-name="ring" unicode="&#x2da;" horiz-adv-x="540" 
d="M193 580q-29 27 -29 70t29 70.5t77 27.5t77 -27.5t29 -70.5t-29 -70t-77 -27t-77 27zM312 604.5q17 17.5 17 45.5q0 29 -17 46.5t-42 17.5t-42 -17.5t-17 -46.5q0 -28 17 -45.5t42 -17.5t42 17.5z" />
    <glyph glyph-name="ogonek" unicode="&#x2db;" horiz-adv-x="540" 
 />
    <glyph glyph-name="tilde" unicode="&#x2dc;" horiz-adv-x="540" 
d="M298 590.5q-19 12.5 -43 36.5q-19 19 -31 28t-27 9q-43 0 -48 -82l-50 3q3 61 26.5 97t72.5 36q26 0 45 -13t42 -37q17 -18 30 -27.5t28 -9.5q22 0 34 22.5t14 60.5l50 -4q-3 -60 -26.5 -96t-71.5 -36q-26 0 -45 12.5z" />
    <glyph glyph-name="hungarumlaut" unicode="&#x2dd;" horiz-adv-x="540" 
d="M178 587l87 172l52 -27l-98 -164zM325 587l87 172l52 -27l-98 -164z" />
    <glyph glyph-name="gravecomb" unicode="&#x300;" 
d="M-136 726l52 48l140 -164l-38 -37z" />
    <glyph glyph-name="acutecomb" unicode="&#x301;" 
d="M-56 610l140 164l52 -48l-154 -153z" />
    <glyph glyph-name="uni0302" unicode="&#x302;" 
d="M-151 598l115 141h72l115 -141l-32 -29l-117 116h-4l-117 -116z" />
    <glyph glyph-name="tildecomb" unicode="&#x303;" 
d="M28 590.5q-19 12.5 -43 36.5q-19 19 -31 28t-27 9q-43 0 -48 -82l-50 3q3 61 26.5 97t72.5 36q26 0 45 -13t42 -37q17 -18 30 -27.5t28 -9.5q22 0 34 22.5t14 60.5l50 -4q-3 -60 -26.5 -96t-71.5 -36q-26 0 -45 12.5z" />
    <glyph glyph-name="uni0304" unicode="&#x304;" 
d="M-130 654h260v-52h-260v52z" />
    <glyph glyph-name="uni0306" unicode="&#x306;" 
d="M-111 615q-38 44 -43 106l47 7q6 -44 33 -75.5t74 -31.5t74 31.5t33 75.5l47 -7q-5 -62 -43 -106t-111 -44t-111 44z" />
    <glyph glyph-name="uni0307" unicode="&#x307;" 
d="M-36 603q-14 14 -14 37q0 22 14 35.5t36 13.5t36 -13.5t14 -35.5q0 -23 -14 -37t-36 -14t-36 14z" />
    <glyph glyph-name="uni0308" unicode="&#x308;" 
d="M-127.5 603q-13.5 13 -13.5 33t13.5 33.5t33.5 13.5t33 -13.5t13 -33.5q0 -19 -13.5 -32.5t-32.5 -13.5q-20 0 -33.5 13zM61.5 603.5q-13.5 13.5 -13.5 32.5q0 20 13 33.5t33 13.5t33.5 -13.5t13.5 -33.5t-13.5 -33t-33.5 -13q-19 0 -32.5 13.5z" />
    <glyph glyph-name="uni030A" unicode="&#x30a;" 
d="M-77 580q-29 27 -29 70t29 70.5t77 27.5t77 -27.5t29 -70.5t-29 -70t-77 -27t-77 27zM42 604.5q17 17.5 17 45.5q0 29 -17 46.5t-42 17.5t-42 -17.5t-17 -46.5q0 -28 17 -45.5t42 -17.5t42 17.5z" />
    <glyph glyph-name="uni030B" unicode="&#x30b;" 
d="M-92 587l87 172l52 -27l-98 -164zM55 587l87 172l52 -27l-98 -164z" />
    <glyph glyph-name="uni030C" unicode="&#x30c;" 
d="M-151 714l32 30l117 -117h4l117 117l32 -30l-115 -140h-72z" />
    <glyph glyph-name="uni031E" unicode="&#x31e;" 
d="M-23 -142h-71v44h188v-44h-71v-105h-46v105z" />
    <glyph glyph-name="dotbelowcomb" unicode="&#x323;" 
d="M-36 -189q-14 14 -14 37q0 22 14 35.5t36 13.5t36 -13.5t14 -35.5q0 -23 -14 -37t-36 -14t-36 14z" />
    <glyph glyph-name="uni0327" unicode="&#x327;" 
d="M-92 -186q61 4 85.5 15.5t24.5 34.5q0 20 -18 31t-60 17l43 91h49l-29 -67q36 -9 54 -25.5t18 -45.5q0 -81 -159 -89z" />
    <glyph glyph-name="uni032E" unicode="&#x32e;" 
d="M-111 -187q-38 44 -43 106l47 7q6 -44 33 -75.5t74 -31.5t74 31.5t33 75.5l47 -7q-5 -62 -43 -106t-111 -44t-111 44z" />
    <glyph glyph-name="uni0331" unicode="&#x331;" 
d="M-130 -116h260v-52h-260v52z" />
    <glyph glyph-name="uni0361" unicode="&#x361;" 
d="M-454 590q208 127 454 127t454 -127l-22 -38q-92 57 -204.5 85t-227.5 28t-227.5 -28t-204.5 -85z" />
    <glyph glyph-name="theta" unicode="&#x3b8;" horiz-adv-x="518" 
d="M404.5 631q52.5 -95 52.5 -271q0 -189 -51.5 -280.5t-146.5 -91.5t-146.5 91.5t-51.5 280.5q0 176 52.5 271t145.5 95t145.5 -95zM170.5 596q-33.5 -69 -37.5 -208h252q-4 139 -37.5 208t-88.5 69t-88.5 -69zM385 335h-252q5 -286 126 -286t126 286z" />
    <glyph glyph-name="pi" unicode="&#x3c0;" horiz-adv-x="578" 
d="M403.5 16.5q-23.5 28.5 -23.5 86.5l2 137l3 183h-181q0 -92 -7.5 -193t-21.5 -234l-74 4q35 220 35 423h-113v57l69 5h462v-62h-99q-7 -132 -7 -326q0 -25 11 -36.5t34 -11.5q8 0 40 5l10 -56q-32 -10 -64 -10q-52 0 -75.5 28.5z" />
    <glyph glyph-name="chi" unicode="&#x3c7;" horiz-adv-x="474" 
d="M9 -179l194 342l-190 314l72 20l152 -268h4l130 256h78l-173 -321l204 -336l-70 -19l-169 294h-4l-155 -294z" />
    <glyph glyph-name="uni05B0" unicode="&#x5b0;" 
d="M85 -84q8 -9 8 -22t-8 -22t-21 -9t-21.5 9.5t-8.5 21.5t8.5 21.5t21.5 9.5t21 -9zM85 -179q8 -10 8 -23t-8 -22t-21 -9t-21.5 9.5t-8.5 21.5q0 13 8.5 23t21.5 10t21 -10z" />
    <glyph glyph-name="uni05B1" unicode="&#x5b1;" 
d="M85 -84q8 -9 8 -22t-8 -22t-21 -9t-21.5 9.5t-8.5 21.5t8.5 21.5t21.5 9.5t21 -9zM189 -84q8 -9 8 -22t-8 -22t-21 -9t-21.5 9.5t-8.5 21.5t8.5 21.5t21.5 9.5t21 -9zM293 -84q8 -9 8 -22t-8 -22t-21 -9t-21.5 9.5t-8.5 21.5t8.5 21.5t21.5 9.5t21 -9zM136 -179
q8 -10 8 -23t-8 -22t-21 -9q-12 0 -21 9.5t-9 21.5t9 22.5t21 10.5q13 0 21 -10zM293 -179q8 -10 8 -23t-8 -22t-21 -9t-21.5 9.5t-8.5 21.5q0 13 8.5 23t21.5 10t21 -10z" />
    <glyph glyph-name="uni05B2" unicode="&#x5b2;" 
d="M282 -84q8 -9 8 -22t-8 -22t-21 -9t-21.5 9.5t-8.5 21.5t8.5 21.5t21.5 9.5t21 -9zM192 -120h-158v35h158v-35zM282 -179q8 -10 8 -23t-8 -22t-21 -9t-21.5 9.5t-8.5 21.5q0 13 8.5 23t21.5 10t21 -10z" />
    <glyph glyph-name="uni05B3" unicode="&#x5b3;" 
d="M282 -84q8 -9 8 -22t-8 -22t-21 -9t-21.5 9.5t-8.5 21.5t8.5 21.5t21.5 9.5t21 -9zM192 -120h-67l7 -100h-39l7 100h-66v35h158v-35zM282 -179q8 -10 8 -23t-8 -22t-21 -9t-21.5 9.5t-8.5 21.5q0 13 8.5 23t21.5 10t21 -10z" />
    <glyph glyph-name="uni05B4" unicode="&#x5b4;" 
d="M85 -84q8 -9 8 -22t-8 -22t-21 -9t-21.5 9.5t-8.5 21.5t8.5 21.5t21.5 9.5t21 -9z" />
    <glyph glyph-name="uni05B5" unicode="&#x5b5;" 
d="M85 -84q8 -9 8 -22t-8 -22t-21 -9t-21.5 9.5t-8.5 21.5t8.5 21.5t21.5 9.5t21 -9zM192 -84q8 -9 8 -22t-8 -22t-21 -9q-12 0 -21 9.5t-9 21.5t9 21.5t21 9.5q13 0 21 -9z" />
    <glyph glyph-name="uni05B6" unicode="&#x5b6;" 
d="M85 -84q8 -9 8 -22t-8 -22t-21 -9t-21.5 9.5t-8.5 21.5t8.5 21.5t21.5 9.5t21 -9zM192 -84q8 -9 8 -22t-8 -22t-21 -9q-12 0 -21 9.5t-9 21.5t9 21.5t21 9.5q13 0 21 -9zM138 -169q8 -9 8 -22t-8 -22.5t-21 -9.5t-21.5 9.5t-8.5 22.5q0 12 8.5 21.5t21.5 9.5t21 -9z" />
    <glyph glyph-name="uni05B7" unicode="&#x5b7;" 
d="M192 -104h-158v35h158v-35z" />
    <glyph glyph-name="uni05B8" unicode="&#x5b8;" 
d="M192 -104h-67l7 -100h-39l7 100h-66v35h158v-35z" />
    <glyph glyph-name="uni05B9" unicode="&#x5b9;" 
d="M85 565q8 -9 8 -22t-8 -22.5t-21 -9.5t-21.5 9.5t-8.5 22.5q0 12 8.5 21.5t21.5 9.5t21 -9z" />
    <glyph glyph-name="uni05BA" unicode="&#x5ba;" 
d="M42.5 520.5q-8.5 9.5 -8.5 22.5q0 12 8.5 21.5t21.5 9.5t21 -9t8 -22t-8 -22.5t-21 -9.5t-21.5 9.5z" />
    <glyph glyph-name="uni05BB" unicode="&#x5bb;" 
d="M85 -84q8 -9 8 -22t-8 -22t-21 -9t-21.5 9.5t-8.5 21.5t8.5 21.5t21.5 9.5t21 -9zM151.5 -144.5q8.5 -9.5 8.5 -22.5q0 -12 -8.5 -21.5t-21.5 -9.5q-12 0 -21 9.5t-9 21.5q0 13 8.5 22.5t21.5 9.5t21.5 -9.5zM218 -205.5q8 -9.5 8 -22.5t-8 -22t-21 -9t-22 9.5t-9 21.5
q0 13 9 22.5t22 9.5t21 -9.5z" />
    <glyph glyph-name="uni05BC" unicode="&#x5bc;" 
d="M85 312.5q8 -9.5 8 -22.5t-8 -22.5t-21 -9.5t-21.5 9.5t-8.5 22.5t8.5 22.5t21.5 9.5t21 -9.5z" />
    <glyph glyph-name="uni05BE" unicode="&#x5be;" horiz-adv-x="315" 
d="M45 555h225v-61h-225v61z" />
    <glyph glyph-name="uni05BF" unicode="&#x5bf;" 
d="M221 532h-189v39h189v-39z" />
    <glyph glyph-name="uni05C0" unicode="&#x5c0;" horiz-adv-x="200" 
d="M77 645h47v-745h-47v745z" />
    <glyph glyph-name="uni05C1" unicode="&#x5c1;" 
d="M85 576.5q8 -9.5 8 -22.5t-8 -22.5t-21 -9.5t-21.5 9.5t-8.5 22.5t8.5 22.5t21.5 9.5t21 -9.5z" />
    <glyph glyph-name="uni05C2" unicode="&#x5c2;" 
d="M85 576.5q8 -9.5 8 -22.5t-8 -22.5t-21 -9.5t-21.5 9.5t-8.5 22.5t8.5 22.5t21.5 9.5t21 -9.5z" />
    <glyph glyph-name="uni05C3" unicode="&#x5c3;" horiz-adv-x="249" 
d="M67 415l58 56l56 -56l-56 -58zM67 75l58 57l56 -57l-56 -58z" />
    <glyph glyph-name="uni05C7" unicode="&#x5c7;" 
d="M128 -104h-40l12 -100h-39l13 100h-40v35h94v-35z" />
    <glyph glyph-name="uni05D0" unicode="&#x5d0;" horiz-adv-x="560" 
d="M441 0l-227 341l-107 -341h-74l109 344l27 66l-92 145h79l89 -140l94 -139l23 83l60 196h75l-113 -347l141 -208h-84z" />
    <glyph glyph-name="uni05D1" unicode="&#x5d1;" horiz-adv-x="526" 
d="M487 61v-61h-148h-288v61h288v311q0 65 -28 93.5t-80 28.5h-180v61h197q168 0 168 -186v-308h71z" />
    <glyph glyph-name="uni05D2" unicode="&#x5d2;" horiz-adv-x="372" 
d="M252 0l-25 136q-29 -55 -71.5 -92t-101.5 -58l-28 62q67 24 113 63t75 100v184q0 50 -12.5 72.5t-47.5 28.5l-64 10l11 60l84 -13q58 -9 82 -45t24 -107v-193l35 -208h-74z" />
    <glyph glyph-name="uni05D3" unicode="&#x5d3;" horiz-adv-x="536" 
d="M306 377q0 77 27 117h-280v61h428v-61h-74q-24 -41 -24 -117v-377h-77v377z" />
    <glyph glyph-name="uni05D4" unicode="&#x5d4;" horiz-adv-x="546" 
d="M403 372q0 65 -28 93.5t-80 28.5h-234v61h251q168 0 168 -186v-369h-77v372zM60 270l11 67h66v-337h-77v270z" />
    <glyph glyph-name="uni05D5" unicode="&#x5d5;" horiz-adv-x="224" 
d="M78 438l-13 117h76l14 -117v-438h-77v438z" />
    <glyph glyph-name="uni05D6" unicode="&#x5d6;" horiz-adv-x="361" 
d="M127 377q0 75 28 117h-100v61h251v-61h-79q-23 -39 -23 -117v-377h-77v377z" />
    <glyph glyph-name="uni05D7" unicode="&#x5d7;" horiz-adv-x="563" 
d="M451 504.5q44 -50.5 44 -149.5v-355h-77v358q0 67 -27.5 101.5t-80.5 34.5h-170v-494h-77v529v26h264q80 0 124 -50.5z" />
    <glyph glyph-name="uni05D8" unicode="&#x5d8;" horiz-adv-x="553" 
d="M49 555h77l58 -494q116 12 185.5 76t64.5 195v25q0 62 -32 100t-96 42l-50 3l5 62l56 -4q88 -5 138.5 -53t53.5 -140l1 -28q6 -172 -102 -256t-292 -93z" />
    <glyph glyph-name="uni05D9" unicode="&#x5d9;" horiz-adv-x="224" 
d="M78 438l-13 117h76l14 -117v-149l-1 -63l-76 -16v228z" />
    <glyph glyph-name="uni05DA" unicode="&#x5da;" horiz-adv-x="503" 
d="M357 372q0 65 -28 93.5t-80 28.5h-194v61h211q168 0 168 -186v-569h-77v572z" />
    <glyph glyph-name="uni05DB" unicode="&#x5db;" horiz-adv-x="471" 
d="M45 61h132q81 0 122 47t41 138v63q0 91 -41 138t-122 47h-132v61h147q108 0 166.5 -64t58.5 -185v-57q0 -121 -58.5 -185t-166.5 -64h-147v61z" />
    <glyph glyph-name="uni05DC" unicode="&#x5dc;" horiz-adv-x="476" 
d="M430 555v-65l-193 -490h-77l193 494h-310v223h71v-162h316z" />
    <glyph glyph-name="uni05DD" unicode="&#x5dd;" horiz-adv-x="580" 
d="M512 369v-369h-77h-341h-19v555h77h192q168 0 168 -186zM435 61v311q0 65 -28 93.5t-80 28.5h-175v-433h283z" />
    <glyph glyph-name="uni05DE" unicode="&#x5de;" horiz-adv-x="605" 
d="M494.5 65q-59.5 -76 -170.5 -76q-38 0 -82 9l8 61q33 -8 68 -8q83 0 122.5 57.5t39.5 171.5q0 218 -143 218q-54 0 -87 -31t-45 -81l-71 -386h-77l74 389l-77 166h80l50 -120q20 63 64 94.5t100 31.5q95 0 150.5 -65.5t55.5 -212.5q0 -142 -59.5 -218z" />
    <glyph glyph-name="uni05DF" unicode="&#x5df;" horiz-adv-x="224" 
d="M78 438l-13 117h76l14 -117v-638h-77v638z" />
    <glyph glyph-name="uni05E0" unicode="&#x5e0;" horiz-adv-x="368" 
d="M48 61h174v333q0 49 -19.5 72.5t-58.5 29.5l-67 10l11 60l87 -13q60 -10 92 -49.5t32 -107.5v-396h-251v61z" />
    <glyph glyph-name="uni05E1" unicode="&#x5e1;" horiz-adv-x="565" 
d="M117 -10l-61 504l-7 61h273q88 0 137.5 -54.5t52.5 -148.5l1 -31q10 -313 -396 -331zM373 130q69 58 63 193v24q0 65 -31.5 106t-88.5 41h-183l52 -433q119 11 188 69z" />
    <glyph glyph-name="uni05E2" unicode="&#x5e2;" horiz-adv-x="531" 
d="M478 555q0 -206 -15.5 -307t-73 -160t-184.5 -84l-168 -33l-11 62l177 34l-129 488h77l122 -468q62 25 89 77.5t33 134t7 256.5h76z" />
    <glyph glyph-name="uni05E3" unicode="&#x5e3;" horiz-adv-x="547" 
d="M425.5 491.5q51.5 -63.5 52.5 -184.5v-507h-77v509q0 185 -139 185h-105l-19 -92q-6 -31 -6 -56q0 -34 13.5 -54.5t42.5 -27.5l-19 -50q-57 9 -83 40t-26 85q0 32 7 66l32 150h179q96 0 147.5 -63.5z" />
    <glyph glyph-name="uni05E4" unicode="&#x5e4;" horiz-adv-x="541" 
d="M76 61h164q78 0 124.5 43.5t46.5 143.5v61q0 91 -35 138t-106 47h-105l-26 -111q-6 -28 -6 -50q0 -34 18.5 -53t61.5 -27l-16 -53q-70 7 -101.5 39.5t-31.5 90.5q0 28 6 59l38 166h175q97 0 150.5 -64t54.5 -184v-56q0 -130 -65 -190.5t-170 -60.5h-177v61z" />
    <glyph glyph-name="uni05E5" unicode="&#x5e5;" horiz-adv-x="466" 
d="M265 120l106 -320h-76l-249 755h75l112 -339l136 339h73z" />
    <glyph glyph-name="uni05E6" unicode="&#x5e6;" horiz-adv-x="517" 
d="M469 0h-79h-351v61h315l-295 494h80l142 -239l102 239h78l-138 -309z" />
    <glyph glyph-name="uni05E7" unicode="&#x5e7;" horiz-adv-x="549" 
d="M220 61q53 6 89 25t60 66t30 132l17 210h-360v61h442l-3 -55l-16 -201q-7 -145 -73.5 -220t-177.5 -79zM58 284l11 68h66v-552h-77v484z" />
    <glyph glyph-name="uni05E8" unicode="&#x5e8;" horiz-adv-x="473" 
d="M326 372q0 65 -28 93.5t-80 28.5h-177v61h194q168 0 168 -186v-369h-77v372z" />
    <glyph glyph-name="uni05E9" unicode="&#x5e9;" horiz-adv-x="630" 
d="M463.5 96q-113.5 -104 -344.5 -106l-70 565h74l34 -283q45 24 70 51.5t36.5 67.5t13.5 103l1 59h74l-1 -58q-2 -110 -44 -174.5t-143 -108.5l19 -154q159 10 238 95.5t78 255.5l-1 146h77l1 -143q1 -212 -112.5 -316z" />
    <glyph glyph-name="uni05EA" unicode="&#x5ea;" horiz-adv-x="605" 
d="M22 41q59 5 81.5 33.5t22.5 86.5v394h245q168 0 168 -186v-369h-77v372q0 65 -28 93.5t-80 28.5h-151v-325q0 -88 -41 -131.5t-132 -51.5z" />
    <glyph glyph-name="uni05F3" unicode="&#x5f3;" horiz-adv-x="213" 
d="M50 521l87 172l52 -27l-98 -164z" />
    <glyph glyph-name="uni05F4" unicode="&#x5f4;" horiz-adv-x="388" 
d="M50 521l87 172l52 -27l-98 -164zM197 521l86 172l53 -27l-98 -164z" />
    <glyph glyph-name="uni1E06" unicode="&#x1e06;" horiz-adv-x="585" 
d="M92 657h190q105 0 164.5 -39.5t59.5 -121.5q0 -50 -26 -88.5t-72 -53.5v-4q63 -12 99.5 -52.5t36.5 -105.5q0 -94 -66.5 -143t-180.5 -49h-205v657zM267 375q166 0 166 112q0 59 -40 85t-122 26h-105v-223h101zM285 59q90 0 138 33.5t48 101.5q0 124 -186 124h-119v-259
h119zM170 -116h260v-52h-260v52z" />
    <glyph glyph-name="uni1E07" unicode="&#x1e07;" horiz-adv-x="551" 
d="M222 4.5q-37 16.5 -69 45.5h-3l-7 -50h-58v714h72v-198l-2 -89q81 70 156 70q93 0 142.5 -66.5t49.5 -180.5q0 -80 -29 -139.5t-77 -91t-104 -31.5q-34 0 -71 16.5zM356.5 74.5q33.5 24.5 52.5 69.5t19 105q0 87 -32.5 136.5t-101.5 49.5q-62 0 -137 -70v-262
q32 -27 64.5 -40t59.5 -13q42 0 75.5 24.5zM150 -116h260v-52h-260v52z" />
    <glyph glyph-name="uni1E0C" unicode="&#x1e0c;" horiz-adv-x="613" 
d="M92 657h161q150 0 228.5 -85t78.5 -241t-78.5 -243.5t-225.5 -87.5h-164v657zM247 61q118 0 177.5 70.5t59.5 199.5q0 127 -59.5 196t-177.5 69h-81v-535h81zM267 -189q-14 14 -14 37q0 22 14 35.5t36 13.5t36 -13.5t14 -35.5q0 -23 -14 -37t-36 -14t-36 14z" />
    <glyph glyph-name="uni1E0D" unicode="&#x1e0d;" horiz-adv-x="552" 
d="M102.5 55q-53.5 67 -53.5 187q0 76 29 134t77.5 89.5t104.5 31.5q39 0 70 -14t68 -43l-3 84v190h72v-714h-60l-6 59h-3q-31 -32 -69.5 -51.5t-80.5 -19.5q-92 0 -145.5 67zM330.5 67q31.5 17 64.5 52v263q-32 28 -62 40.5t-62 12.5q-41 0 -74.5 -25t-53 -69t-19.5 -99
q0 -90 36.5 -141t103.5 -51q35 0 66.5 17zM258 -189q-14 14 -14 37q0 22 14 35.5t36 13.5t36 -13.5t14 -35.5q0 -23 -14 -37t-36 -14t-36 14z" />
    <glyph glyph-name="uni1E0E" unicode="&#x1e0e;" horiz-adv-x="613" 
d="M92 657h161q150 0 228.5 -85t78.5 -241t-78.5 -243.5t-225.5 -87.5h-164v657zM247 61q118 0 177.5 70.5t59.5 199.5q0 127 -59.5 196t-177.5 69h-81v-535h81zM173 -116h260v-52h-260v52z" />
    <glyph glyph-name="uni1E0F" unicode="&#x1e0f;" horiz-adv-x="552" 
d="M102.5 55q-53.5 67 -53.5 187q0 76 29 134t77.5 89.5t104.5 31.5q39 0 70 -14t68 -43l-3 84v190h72v-714h-60l-6 59h-3q-31 -32 -69.5 -51.5t-80.5 -19.5q-92 0 -145.5 67zM330.5 67q31.5 17 64.5 52v263q-32 28 -62 40.5t-62 12.5q-41 0 -74.5 -25t-53 -69t-19.5 -99
q0 -90 36.5 -141t103.5 -51q35 0 66.5 17zM164 -116h260v-52h-260v52z" />
    <glyph glyph-name="uni1E20" unicode="&#x1e20;" horiz-adv-x="614" 
d="M192.5 29q-66.5 41 -103.5 118t-37 181t38 181t106 118.5t155 41.5q109 0 187 -80l-41 -49q-60 64 -144 64q-68 0 -118.5 -33.5t-78 -95t-27.5 -145.5q0 -128 59 -202.5t164 -74.5q37 0 71 11.5t55 30.5v179h-144v62h212v-272q-33 -35 -85 -55.5t-116 -20.5
q-86 0 -152.5 41zM220 789h262v-52h-262v52z" />
    <glyph glyph-name="uni1E21" unicode="&#x1e21;" horiz-adv-x="500" 
d="M101.5 -191q-54.5 35 -54.5 96q0 31 18.5 60t52.5 52v4q-19 12 -31 32t-12 47q0 28 15.5 51.5t37.5 38.5v4q-26 21 -44 55t-18 75q0 51 24 90.5t65 61t90 21.5q33 0 67 -12h168v-57h-103q19 -18 31 -46t12 -59q0 -50 -23 -88.5t-63 -59.5t-89 -21q-40 0 -74 17
q-16 -13 -24.5 -26.5t-8.5 -33.5q0 -26 19.5 -40.5t66.5 -14.5h97q85 0 126 -28t41 -87q0 -44 -30 -82.5t-85 -61.5t-126 -23q-91 0 -145.5 35zM321.5 237.5q31.5 33.5 31.5 86.5q0 54 -31 86.5t-77 32.5t-77.5 -32.5t-31.5 -86.5q0 -53 31.5 -86.5t77.5 -33.5
q45 0 76.5 33.5zM339.5 -159.5q36.5 14.5 56.5 39t20 51.5q0 34 -25 48.5t-76 14.5h-89q-31 0 -62 8q-53 -37 -53 -87q0 -41 39 -65t107 -24q46 0 82.5 14.5zM128 654h260v-52h-260v52z" />
    <glyph glyph-name="uni1E24" unicode="&#x1e24;" horiz-adv-x="648" 
d="M92 657h74v-278h317v278h74v-657h-74v314h-317v-314h-74v657zM287 -189q-14 14 -14 37q0 22 14 35.5t36 13.5t36 -13.5t14 -35.5q0 -23 -14 -37t-36 -14t-36 14z" />
    <glyph glyph-name="uni1E25" unicode="&#x1e25;" horiz-adv-x="540" 
d="M85 714h72v-198l-2 -102q40 40 78 61.5t84 21.5q76 0 112 -47.5t36 -141.5v-308h-73v299q0 70 -22.5 102t-73.5 32q-36 0 -67 -18.5t-72 -59.5v-355h-72v714zM250 -189q-14 14 -14 37q0 22 14 35.5t36 13.5t36 -13.5t14 -35.5q0 -23 -14 -37t-36 -14t-36 14z" />
    <glyph glyph-name="uni1E2A" unicode="&#x1e2a;" horiz-adv-x="648" 
d="M92 657h74v-278h317v278h74v-657h-74v314h-317v-314h-74v657zM212 -187q-38 44 -43 106l47 7q6 -44 33 -75.5t74 -31.5t74 31.5t33 75.5l47 -7q-5 -62 -43 -106t-111 -44t-111 44z" />
    <glyph glyph-name="uni1E2B" unicode="&#x1e2b;" horiz-adv-x="540" 
d="M85 714h72v-198l-2 -102q40 40 78 61.5t84 21.5q76 0 112 -47.5t36 -141.5v-308h-73v299q0 70 -22.5 102t-73.5 32q-36 0 -67 -18.5t-72 -59.5v-355h-72v714zM175 -187q-38 44 -43 106l47 7q6 -44 33 -75.5t74 -31.5t74 31.5t33 75.5l47 -7q-5 -62 -43 -106t-111 -44
t-111 44z" />
    <glyph glyph-name="uni1E32" unicode="&#x1e32;" horiz-adv-x="573" 
d="M92 657h74v-339h2l285 339h84l-207 -249l238 -408h-83l-201 351l-118 -139v-212h-74v657zM291 -189q-14 14 -14 37q0 22 14 35.5t36 13.5t36 -13.5t14 -35.5q0 -23 -14 -37t-36 -14t-36 14z" />
    <glyph glyph-name="uni1E33" unicode="&#x1e33;" horiz-adv-x="487" 
d="M85 714h71v-494h3l215 265h81l-162 -194l184 -291h-79l-147 240l-95 -112v-128h-71v714zM232 -189q-14 14 -14 37q0 22 14 35.5t36 13.5t36 -13.5t14 -35.5q0 -23 -14 -37t-36 -14t-36 14z" />
    <glyph glyph-name="uni1E34" unicode="&#x1e34;" horiz-adv-x="573" 
d="M92 657h74v-339h2l285 339h84l-207 -249l238 -408h-83l-201 351l-118 -139v-212h-74v657zM197 -116h260v-52h-260v52z" />
    <glyph glyph-name="uni1E35" unicode="&#x1e35;" horiz-adv-x="487" 
d="M85 714h71v-494h3l215 265h81l-162 -194l184 -291h-79l-147 240l-95 -112v-128h-71v714zM138 -116h260v-52h-260v52z" />
    <glyph glyph-name="uni1E62" unicode="&#x1e62;" horiz-adv-x="530" 
d="M144.5 14q-58.5 26 -101.5 72l45 51q36 -39 84 -61.5t100 -22.5q67 0 105.5 31t38.5 83q0 33 -14 55t-36 35t-62 31l-95 42q-58 25 -95.5 64t-37.5 104q0 49 26 88t72.5 61t103.5 22t106.5 -22t84.5 -59l-40 -47q-65 63 -151 63q-58 0 -93 -28t-35 -74q0 -31 16 -52
t37 -33t57 -28l95 -42q65 -27 100.5 -67t35.5 -108q0 -52 -27 -94t-77 -66t-116 -24q-68 0 -126.5 26zM236 -189q-14 14 -14 37q0 22 14 35.5t36 13.5t36 -13.5t14 -35.5q0 -23 -14 -37t-36 -14t-36 14z" />
    <glyph glyph-name="uni1E63" unicode="&#x1e63;" horiz-adv-x="416" 
d="M112 6.5q-47 18.5 -83 48.5l37 49q36 -29 70 -44t76 -15q48 0 74 23t26 58t-29.5 56t-83.5 40q-69 25 -108 54.5t-39 84.5q0 59 44.5 97.5t120.5 38.5q41 0 79 -15t68 -39l-35 -47q-29 21 -55 32t-57 11q-46 0 -70 -21.5t-24 -52.5q0 -22 14.5 -38t35.5 -25.5t59 -24.5
q51 -19 80 -34t50 -42.5t21 -70.5q0 -39 -20.5 -71.5t-60 -51.5t-93.5 -19q-50 0 -97 18.5zM184 -189q-14 14 -14 37q0 22 14 35.5t36 13.5t36 -13.5t14 -35.5q0 -23 -14 -37t-36 -14t-36 14z" />
    <glyph glyph-name="uni1E6C" unicode="&#x1e6c;" horiz-adv-x="533" 
d="M230 594h-202v63h477v-63h-201v-594h-74v594zM231 -189q-14 14 -14 37q0 22 14 35.5t36 13.5t36 -13.5t14 -35.5q0 -23 -14 -37t-36 -14t-36 14z" />
    <glyph glyph-name="uni1E6D" unicode="&#x1e6d;" horiz-adv-x="331" 
d="M129 29q-31 41 -31 117v279h-73v55l76 5l9 137h61v-137h133v-60h-133v-281q0 -48 17.5 -72t59.5 -24q21 0 56 13l15 -55q-54 -18 -87 -18q-72 0 -103 41zM169 -189q-14 14 -14 37q0 22 14 35.5t36 13.5t36 -13.5t14 -35.5q0 -23 -14 -37t-36 -14t-36 14z" />
    <glyph glyph-name="uni1E6E" unicode="&#x1e6e;" horiz-adv-x="533" 
d="M230 594h-202v63h477v-63h-201v-594h-74v594zM137 -116h260v-52h-260v52z" />
    <glyph glyph-name="uni1E6F" unicode="&#x1e6f;" horiz-adv-x="331" 
d="M129 29q-31 41 -31 117v279h-73v55l76 5l9 137h61v-137h133v-60h-133v-281q0 -48 17.5 -72t59.5 -24q21 0 56 13l15 -55q-54 -18 -87 -18q-72 0 -103 41zM75 -116h260v-52h-260v52z" />
    <glyph glyph-name="uni1E7E" unicode="&#x1e7e;" horiz-adv-x="509" 
d="M1 657h79l110 -362q16 -57 23 -78q17 -64 41 -140h4q11 33 46 152l19 66l110 362h75l-210 -657h-85zM219 -189q-14 14 -14 37q0 22 14 35.5t36 13.5t36 -13.5t14 -35.5q0 -23 -14 -37t-36 -14t-36 14z" />
    <glyph glyph-name="uni1E7F" unicode="&#x1e7f;" horiz-adv-x="459" 
d="M12 485h75l96 -283l46 -142h4l46 142l96 283h72l-174 -485h-84zM195 -189q-14 14 -14 37q0 22 14 35.5t36 13.5t36 -13.5t14 -35.5q0 -23 -14 -37t-36 -14t-36 14z" />
    <glyph glyph-name="uni1E92" unicode="&#x1e92;" horiz-adv-x="539" 
d="M46 44l354 550h-322v63h414v-44l-354 -550h357v-63h-449v44zM246 -189q-14 14 -14 37q0 22 14 35.5t36 13.5t36 -13.5t14 -35.5q0 -23 -14 -37t-36 -14t-36 14z" />
    <glyph glyph-name="uni1E93" unicode="&#x1e93;" horiz-adv-x="419" 
d="M30 39l263 386h-234v60h326v-39l-263 -386h272v-60h-364v39zM189 -189q-14 14 -14 37q0 22 14 35.5t36 13.5t36 -13.5t14 -35.5q0 -23 -14 -37t-36 -14t-36 14z" />
    <glyph glyph-name="uni1E94" unicode="&#x1e94;" horiz-adv-x="539" 
d="M46 44l354 550h-322v63h414v-44l-354 -550h357v-63h-449v44zM152 -116h260v-52h-260v52z" />
    <glyph glyph-name="uni1E95" unicode="&#x1e95;" horiz-adv-x="419" 
d="M30 39l263 386h-234v60h326v-39l-263 -386h272v-60h-364v39zM95 -116h260v-52h-260v52z" />
    <glyph glyph-name="uni1E96" unicode="&#x1e96;" horiz-adv-x="540" 
d="M85 714h72v-198l-2 -102q40 40 78 61.5t84 21.5q76 0 112 -47.5t36 -141.5v-308h-73v299q0 70 -22.5 102t-73.5 32q-36 0 -67 -18.5t-72 -59.5v-355h-72v714zM156 -116h260v-52h-260v52z" />
    <glyph glyph-name="uni1EA0" unicode="&#x1ea0;" horiz-adv-x="539" 
d="M391 207h-245l-67 -207h-75l225 657h82l224 -657h-78zM372 266l-34 106q-40 125 -68 223h-4q-33 -121 -67 -223l-34 -106h207zM232 -189q-14 14 -14 37q0 22 14 35.5t36 13.5t36 -13.5t14 -35.5q0 -23 -14 -37t-36 -14t-36 14z" />
    <glyph glyph-name="uni1EA1" unicode="&#x1ea1;" horiz-adv-x="501" 
d="M93 24q-40 36 -40 101q0 79 72 121.5t230 59.5q0 57 -23.5 93.5t-80.5 36.5q-69 0 -147 -53l-29 50q96 64 188 64q84 0 124 -52.5t40 -144.5v-300h-60l-6 59h-3q-86 -71 -163 -71q-62 0 -102 36zM282.5 63.5q33.5 16.5 72.5 51.5v142q-125 -15 -177.5 -46t-52.5 -82
q0 -41 25 -61.5t64 -20.5q35 0 68.5 16.5zM211 -189q-14 14 -14 37q0 22 14 35.5t36 13.5t36 -13.5t14 -35.5q0 -23 -14 -37t-36 -14t-36 14z" />
    <glyph glyph-name="uni1EB8" unicode="&#x1eb8;" horiz-adv-x="524" 
d="M92 657h373v-63h-299v-217h252v-62h-252v-252h309v-63h-383v657zM254 -189q-14 14 -14 37q0 22 14 35.5t36 13.5t36 -13.5t14 -35.5q0 -23 -14 -37t-36 -14t-36 14z" />
    <glyph glyph-name="uni1EB9" unicode="&#x1eb9;" horiz-adv-x="492" 
d="M452 226h-335q5 -85 52.5 -132t116.5 -47q64 0 123 39l27 -48q-36 -23 -74 -36.5t-85 -13.5q-64 0 -116.5 30.5t-83 88.5t-30.5 135q0 76 30.5 134t80.5 89.5t106 31.5q90 0 140.5 -60.5t50.5 -166.5q0 -26 -3 -44zM390 279q0 77 -33 118t-92 41q-54 0 -96 -41t-50 -118
h271zM220 -189q-14 14 -14 37q0 22 14 35.5t36 13.5t36 -13.5t14 -35.5q0 -23 -14 -37t-36 -14t-36 14z" />
    <glyph glyph-name="uni1ECC" unicode="&#x1ecc;" horiz-adv-x="661" 
d="M186 30q-63 42 -98.5 120t-35.5 181t35.5 179.5t98.5 117.5t145 41q81 0 144 -41t98.5 -117.5t35.5 -179.5t-35.5 -181t-98.5 -120t-144 -42q-82 0 -145 42zM436.5 87.5q45.5 34.5 70.5 97t25 146.5q0 83 -25 144.5t-70.5 95t-105.5 33.5q-61 0 -106.5 -33.5t-70.5 -95
t-25 -144.5q0 -84 25 -147t71 -97t106 -34t105.5 34.5zM295 -189q-14 14 -14 37q0 22 14 35.5t36 13.5t36 -13.5t14 -35.5q0 -23 -14 -37t-36 -14t-36 14z" />
    <glyph glyph-name="uni1ECD" unicode="&#x1ecd;" horiz-adv-x="540" 
d="M159 18.5q-51 30.5 -81.5 88t-30.5 135.5t30.5 136t81.5 88.5t111 30.5t111 -30.5t81.5 -88.5t30.5 -136t-30.5 -135.5t-81.5 -88t-111 -30.5t-111 30.5zM346.5 73q33.5 24 52.5 68t19 101t-19 101t-52.5 68.5t-76.5 24.5t-76.5 -24.5t-52 -68.5t-18.5 -101
q0 -87 41 -140t106 -53q43 0 76.5 24zM234 -189q-14 14 -14 37q0 22 14 35.5t36 13.5t36 -13.5t14 -35.5q0 -23 -14 -37t-36 -14t-36 14z" />
    <glyph glyph-name="uni200E" unicode="&#x200e;" 
d="M14 792l63 66h-191v36h191l-63 63l25 27l105 -109l-105 -108z" />
    <glyph glyph-name="uni200F" unicode="&#x200f;" 
d="M-144 875l105 109l25 -26l-63 -64h193v-36h-192l62 -66l-25 -24z" />
    <glyph glyph-name="uni2010" unicode="&#x2010;" horiz-adv-x="308" 
d="M41 279h227v-57h-227v57z" />
    <glyph glyph-name="endash" unicode="&#x2013;" horiz-adv-x="480" 
d="M41 277h398v-52h-398v52z" />
    <glyph glyph-name="emdash" unicode="&#x2014;" horiz-adv-x="800" 
d="M41 277h718v-52h-718v52z" />
    <glyph glyph-name="quoteleft" unicode="&#x2018;" horiz-adv-x="242" 
d="M150.5 527.5q14.5 -12.5 14.5 -34.5q0 -24 -14 -38t-36 -14q-27 0 -42.5 22t-15.5 63q0 111 101 172l22 -35q-38 -27 -55.5 -55t-17.5 -69q2 1 8 1q21 0 35.5 -12.5z" />
    <glyph glyph-name="quoteright" unicode="&#x2019;" horiz-adv-x="242" 
d="M169.5 677q15.5 -22 15.5 -63q0 -112 -102 -172l-22 35q39 27 56.5 55t17.5 69q-3 -1 -9 -1q-20 0 -34.5 13t-14.5 34q0 24 13.5 38t35.5 14q28 0 43.5 -22z" />
    <glyph glyph-name="quotesinglbase" unicode="&#x201a;" horiz-adv-x="242" 
d="M169.5 93q15.5 -22 15.5 -63q0 -112 -102 -172l-22 35q39 27 56.5 55t17.5 69q-3 -1 -9 -1q-20 0 -34.5 13t-14.5 34q0 24 13.5 38t35.5 14q28 0 43.5 -22z" />
    <glyph glyph-name="quotedblleft" unicode="&#x201c;" horiz-adv-x="409" 
d="M150.5 527.5q14.5 -12.5 14.5 -34.5q0 -24 -14 -38t-36 -14q-27 0 -42.5 22t-15.5 63q0 111 101 172l22 -35q-38 -27 -55.5 -55t-17.5 -69q2 1 8 1q21 0 35.5 -12.5zM318.5 527.5q14.5 -12.5 14.5 -34.5q0 -24 -14 -38t-36 -14q-27 0 -42.5 22t-15.5 63q0 111 101 172
l22 -35q-38 -27 -55.5 -55t-17.5 -69q2 1 8 1q21 0 35.5 -12.5z" />
    <glyph glyph-name="quotedblright" unicode="&#x201d;" horiz-adv-x="409" 
d="M169.5 677q15.5 -22 15.5 -63q0 -112 -102 -172l-22 35q39 27 56.5 55t17.5 69q-3 -1 -9 -1q-20 0 -34.5 13t-14.5 34q0 24 13.5 38t35.5 14q28 0 43.5 -22zM337.5 677q15.5 -22 15.5 -63q0 -112 -102 -172l-22 35q39 27 56.5 55t17.5 69q-3 -1 -9 -1q-20 0 -34.5 13
t-14.5 34q0 24 13.5 38t35.5 14q28 0 43.5 -22z" />
    <glyph glyph-name="quotedblbase" unicode="&#x201e;" horiz-adv-x="409" 
d="M169.5 93q15.5 -22 15.5 -63q0 -112 -102 -172l-22 35q39 27 56.5 55t17.5 69q-3 -1 -9 -1q-20 0 -34.5 13t-14.5 34q0 24 13.5 38t35.5 14q28 0 43.5 -22zM337.5 93q15.5 -22 15.5 -63q0 -112 -102 -172l-22 35q39 27 56.5 55t17.5 69q-3 -1 -9 -1q-20 0 -34.5 13
t-14.5 34q0 24 13.5 38t35.5 14q28 0 43.5 -22z" />
    <glyph glyph-name="dagger" unicode="&#x2020;" horiz-adv-x="445" 
d="M195 499l-140 -4v63l140 -4l-4 158h63l-4 -158l140 4v-63l-140 4l4 -579h-63z" />
    <glyph glyph-name="daggerdbl" unicode="&#x2021;" horiz-adv-x="445" 
d="M195 78l-140 -4v63l140 -5l-4 184l4 184l-140 -5v63l140 -4l-4 158h63l-4 -158l140 4v-63l-140 5l4 -184l-4 -184l140 5v-63l-140 4l4 -158h-63z" />
    <glyph glyph-name="bullet" unicode="&#x2022;" horiz-adv-x="298" 
d="M72.5 178.5q-32.5 33.5 -32.5 84.5q0 52 32.5 85t76.5 33q45 0 77 -33t32 -85q0 -51 -32 -84.5t-77 -33.5q-44 0 -76.5 33.5z" />
    <glyph glyph-name="ellipsis" unicode="&#x2026;" horiz-adv-x="998" 
d="M127 4.5q-16 16.5 -16 41.5q0 26 16 42.5t39 16.5t39 -16.5t16 -42.5q0 -25 -16 -41.5t-39 -16.5t-39 16.5zM461 4.5q-16 16.5 -16 41.5q0 26 16 42.5t39 16.5t39 -16.5t16 -42.5q0 -25 -16 -41.5t-39 -16.5t-39 16.5zM795 4.5q-16 16.5 -16 41.5q0 26 16 42.5t39 16.5
t39 -16.5t16 -42.5q0 -25 -16 -41.5t-39 -16.5t-39 16.5z" />
    <glyph glyph-name="uni202D" unicode="&#x202d;" 
d="M-57 792l63 66h-162v36h160l-61 63l26 27l104 -109l-104 -108zM41 792l82 83l-82 82l25 27l105 -109l-105 -108z" />
    <glyph glyph-name="uni202E" unicode="&#x202e;" 
d="M-171 914l105 107l25 -26l-80 -81l80 -83l-25 -26zM-71 914l102 107l28 -26l-63 -66h161v-34h-161l63 -64l-28 -26z" />
    <glyph glyph-name="perthousand" unicode="&#x2030;" horiz-adv-x="1183" 
d="M81.5 314q-39.5 55 -39.5 153t39.5 152t107.5 54t107.5 -54t39.5 -152t-39.5 -153t-107.5 -55t-107.5 55zM561 669h51l-363 -681h-51zM255.5 347.5q24.5 41.5 24.5 119.5t-24.5 119t-66.5 41t-66.5 -41t-24.5 -119t24.5 -119.5t66.5 -41.5t66.5 41.5zM523.5 43
q-39.5 55 -39.5 153q0 97 39.5 151.5t107.5 54.5t107.5 -54.5t39.5 -151.5q0 -98 -39.5 -153t-107.5 -55t-107.5 55zM886.5 43q-39.5 55 -39.5 153q0 97 39.5 151.5t107.5 54.5t107.5 -54.5t39.5 -151.5q0 -98 -39.5 -153t-107.5 -55t-107.5 55zM696.5 76q24.5 42 24.5 120
t-24 119t-66 41t-66.5 -41t-24.5 -119t24.5 -120t66.5 -42q41 0 65.5 42zM1060.5 76q24.5 42 24.5 120t-24.5 119t-66.5 41t-66.5 -41t-24.5 -119t24.5 -120t66.5 -42t66.5 42z" />
    <glyph glyph-name="guilsinglleft" unicode="&#x2039;" horiz-adv-x="268" 
d="M44 224v56l137 157l33 -28l-119 -157l119 -158l-33 -27z" />
    <glyph glyph-name="guilsinglright" unicode="&#x203a;" horiz-adv-x="268" 
d="M54 94l119 158l-119 157l33 28l136 -157v-56l-136 -157z" />
    <glyph glyph-name="fraction" unicode="&#x2044;" horiz-adv-x="85" 
d="M197 669h51l-363 -681h-51z" />
    <glyph glyph-name="uni20AA" unicode="&#x20aa;" horiz-adv-x="734" 
d="M69 555h244q79 0 116.5 -49t37.5 -151v-154h-62v157q0 70 -21 103t-73 33h-165v-494h-77v555zM240 364h62v-296q120 4 185 41.5t89.5 109t23.5 190.5l-2 146h77l1 -146q1 -147 -41.5 -236t-137.5 -130.5t-257 -42.5v364z" />
    <glyph glyph-name="Euro" unicode="&#x20ac;" horiz-adv-x="492" 
d="M487 81q-71 -93 -171 -93q-90 0 -151 66t-78 183h-64v41l60 4q-1 12 -1 37q0 22 1 32h-60v41l64 4q16 119 80.5 186.5t162.5 67.5q43 0 82 -21.5t65 -56.5l-43 -41q-23 29 -49 44.5t-57 15.5q-68 0 -111 -51t-55 -144h261v-45h-265q-1 -10 -1 -30q0 -26 1 -39h225v-45
h-220q13 -89 54 -139.5t103 -50.5q37 0 66.5 18t56.5 55z" />
    <glyph glyph-name="uni210A" unicode="&#x210a;" horiz-adv-x="556" 
d="M168.5 -206q-44.5 14 -82.5 40l28 51q66 -45 145 -45q67 0 101.5 35.5t36.5 99.5l1 96q-30 -30 -68 -49t-80 -19q-92 0 -146 65.5t-54 180.5q0 74 29.5 130.5t78.5 87t105 30.5q39 0 71 -14t65 -43h3l6 45h61v-514q0 -89 -55 -140t-155 -51q-46 0 -90.5 14zM331.5 81.5
q31.5 17.5 65.5 53.5v247q-32 28 -62 40.5t-62 12.5q-41 0 -75 -24t-53.5 -66.5t-19.5 -95.5q0 -85 37 -135t103 -50q35 0 66.5 17.5z" />
    <glyph glyph-name="trademark" unicode="&#x2122;" horiz-adv-x="630" 
d="M104 626h-101v50h257v-50h-102v-259h-54v259zM310 676h67l49 -119l28 -80h4l28 80l48 119h67v-309h-51v143l6 103h-4l-75 -199h-44l-75 199h-4l7 -103v-143h-51v309z" />
    <glyph glyph-name="estimated" unicode="&#x212e;" horiz-adv-x="800" 
d="M222.5 33q-81.5 45 -129 122t-47.5 169t47.5 169t129 122t177.5 45t177.5 -45t129 -122t47.5 -169v-8h-574q-4 0 -4 -4v-184q0 -8 8 -20q41 -47 97.5 -73.5t120.5 -26.5q66 0 125.5 30t102.5 82h52q-51 -61 -124.5 -96.5t-157.5 -35.5q-96 0 -177.5 45zM620 334q6 0 6 6
v184q0 12 -10 22q-43 44 -98.5 69t-115.5 25q-63 0 -119 -26t-99 -72q-8 -12 -8 -22v-180q0 -6 4 -6h440z" />
    <glyph glyph-name="partialdiff" unicode="&#x2202;" horiz-adv-x="520" 
d="M424.5 594q55.5 -75 55.5 -227q0 -112 -32.5 -198t-92 -133.5t-136.5 -47.5q-48 0 -89.5 23.5t-66 66.5t-24.5 101q0 66 26 116.5t75 79t116 28.5q41 0 81 -19.5t71 -53.5q1 12 1 36q0 242 -144 242q-65 0 -114 -51l-34 46q66 66 155 66q97 0 152.5 -75zM340 107
q46 58 62 160q-63 77 -141 77q-75 0 -113.5 -44.5t-38.5 -115.5q0 -60 34 -97.5t83 -37.5q68 0 114 58z" />
    <glyph glyph-name="product" unicode="&#x220f;" horiz-adv-x="668" 
d="M90 638h488v-758h-75v694h-339v-694h-74v758z" />
    <glyph glyph-name="summation" unicode="&#x2211;" horiz-adv-x="500" 
d="M21 -72l243 331l-232 331v48h437v-63h-345v-4l219 -311l-229 -313v-4h384v-63h-477v48z" />
    <glyph glyph-name="minus" unicode="&#x2212;" horiz-adv-x="492" 
d="M34 358h424v-56h-424v56z" />
    <glyph glyph-name="uni2215" unicode="&#x2215;" horiz-adv-x="85" 
d="M197 669h51l-363 -681h-51z" />
    <glyph glyph-name="uni2219" unicode="&#x2219;" horiz-adv-x="498" 
d="M206 283.5q-16 16.5 -16 41.5q0 26 16 42.5t39 16.5t39 -16.5t16 -42.5q0 -25 -16 -41.5t-39 -16.5t-39 16.5z" />
    <glyph glyph-name="radical" unicode="&#x221a;" horiz-adv-x="552" 
d="M132 333l-71 -32l-18 42l127 56l119 -353l16 -61h4l4 21q1 9 8 40l181 774h54l-217 -918h-57z" />
    <glyph glyph-name="infinity" unicode="&#x221e;" horiz-adv-x="777" 
d="M463 182.5q-46 30.5 -96 92.5h-4q-41 -47 -80 -76t-94 -29q-40 0 -74 21t-54.5 56.5t-20.5 77.5q0 75 45 120.5t115 45.5q54 0 94.5 -30t75.5 -77h4q42 56 89 89.5t106 33.5q48 0 86.5 -22t60 -61.5t21.5 -88.5q0 -54 -21.5 -95.5t-60 -64.5t-87.5 -23q-59 0 -105 30.5z
M649 253.5q30 31.5 30 78.5q0 52 -31.5 85t-85.5 33q-44 0 -82.5 -28t-77.5 -83q46 -61 84 -89t83 -28q50 0 80 31.5zM335 322q-36 48 -70 73.5t-71 25.5q-42 0 -69 -25t-27 -68q0 -44 28.5 -72.5t69.5 -28.5q75 0 139 95z" />
    <glyph glyph-name="integral" unicode="&#x222b;" horiz-adv-x="324" 
d="M53 -151l9 55q18 -4 35 -4q40 0 54 39t14 125q0 44 -4.5 93.5t-9.5 96t-7 60.5q-11 87 -16.5 144t-5.5 105q0 109 28 167.5t104 58.5q29 0 45 -6l-9 -56q-12 4 -35 4q-39 0 -52.5 -39.5t-13.5 -125.5q0 -81 21 -249q10 -88 15 -144t5 -105q0 -109 -27.5 -167.5
t-102.5 -58.5q-30 0 -47 7z" />
    <glyph glyph-name="approxequal" unicode="&#x2248;" horiz-adv-x="492" 
d="M283 377.5q-23 12.5 -52 35.5q-23 19 -40 28.5t-35 9.5q-44 0 -77 -61l-42 28q25 45 56.5 67t64.5 22q28 0 50.5 -12t53.5 -36q24 -19 40.5 -28.5t33.5 -9.5q46 0 77 61l42 -30q-25 -44 -56.5 -65.5t-64.5 -21.5q-28 0 -51 12.5zM283 165.5q-23 12.5 -52 35.5
q-23 19 -40 28.5t-35 9.5q-44 0 -77 -61l-42 28q25 45 56.5 67t64.5 22q28 0 50.5 -12t53.5 -36q24 -19 40.5 -28.5t33.5 -9.5q46 0 77 61l42 -30q-25 -44 -56.5 -65.5t-64.5 -21.5q-28 0 -51 12.5z" />
    <glyph glyph-name="notequal" unicode="&#x2260;" horiz-adv-x="492" 
d="M139 196h-105v56h137l94 156h-231v56h264l77 127h55l-77 -127h105v-56h-137l-94 -156h231v-56h-263l-77 -127h-56z" />
    <glyph glyph-name="lessequal" unicode="&#x2264;" horiz-adv-x="492" 
d="M34 307v68l424 154v-64l-215 -77l-134 -45v-4l134 -45l215 -77v-64zM34 56h424v-56h-424v56z" />
    <glyph glyph-name="greaterequal" unicode="&#x2265;" horiz-adv-x="492" 
d="M34 217l215 77l135 45v4l-135 45l-215 77v64l424 -154v-68l-424 -154v64zM34 56h424v-56h-424v56z" />
    <glyph glyph-name="lozenge" unicode="&#x25ca;" horiz-adv-x="512" 
d="M57 330l165 340h69l164 -340l-164 -340h-69zM258 51l132 279l-68 143l-64 136h-4l-131 -279l67 -144l64 -135h4z" />
    <glyph glyph-name="uni25CC" unicode="&#x25cc;" horiz-adv-x="600" 
d="M349.5 479q10.5 -10 10.5 -26q0 -17 -10 -27t-26 -10q-14 0 -23.5 10t-9.5 27q0 16 9.5 26t23.5 10q15 0 25.5 -10zM211.5 460.5q9.5 -9.5 9.5 -26.5q0 -16 -9.5 -25.5t-24.5 -9.5q-14 0 -24 9.5t-10 25.5q0 17 10 26.5t24 9.5q15 0 24.5 -9.5zM399 358q-10 10 -10 27
q0 4 2 12q-2 8 -2 12q0 17 9.5 26.5t23.5 9.5q15 0 25 -9.5t10 -26.5q0 -4 -2 -12q2 -8 2 -12q0 -17 -9.5 -27t-25.5 -10q-13 0 -23 10zM133.5 380q9.5 -9 9.5 -26q0 -18 -9 -27.5t-26 -9.5q-14 0 -23.5 10t-9.5 27t9.5 26t23.5 9q16 0 25.5 -9zM106.5 216
q-9.5 -10 -26.5 -10q-13 0 -23 10t-10 27q0 16 9.5 25.5t23.5 9.5q16 0 26 -9t10 -26t-9.5 -27zM529.5 268.5q10.5 -9.5 10.5 -25.5q0 -17 -10 -27t-25 -10t-24.5 10t-9.5 27t9.5 26t24.5 9q14 0 24.5 -9.5zM133.5 159.5q9.5 -9.5 9.5 -26.5t-9.5 -26.5t-25.5 -9.5
q-14 0 -23.5 10t-9.5 26q0 17 9.5 26.5t23.5 9.5q16 0 25.5 -9.5zM502.5 159.5q9.5 -9.5 9.5 -26.5t-9 -26.5t-25 -9.5q-14 0 -24 10t-10 26q0 17 10 26.5t24 9.5q15 0 24.5 -9.5zM211.5 77q9.5 -9 9.5 -24q0 -18 -9.5 -28t-24.5 -10q-14 0 -24 10t-10 28q0 15 10 24t24 9
q15 0 24.5 -9zM423 77q10 -9 10 -24q0 -19 -9 -28.5t-26 -9.5q-14 0 -23.5 10t-9.5 28q0 15 10 24t23 9q15 0 25 -9zM318.5 50q9.5 -9 9.5 -26t-10 -26.5t-25 -9.5q-14 0 -24 9.5t-10 26.5q0 16 10 25.5t24 9.5q16 0 25.5 -9z" />
    <glyph glyph-name="dotlessj" unicode="&#xf6be;" horiz-adv-x="231" 
d="M-36 -208l15 56q24 -8 47 -8q35 0 48 24t13 73l1 548h72v-549q0 -76 -30.5 -116t-96.5 -40q-37 0 -69 12z" />
    <glyph glyph-name="uniFB2A" unicode="&#xfb2a;" horiz-adv-x="630" 
d="M463.5 96q-113.5 -104 -344.5 -106l-70 565h74l34 -283q45 24 70 51.5t36.5 67.5t13.5 103l1 59h74l-1 -58q-2 -110 -44 -174.5t-143 -108.5l19 -154q159 10 238 95.5t78 255.5l-1 146h77l1 -143q1 -212 -112.5 -316zM554 676.5q8 -9.5 8 -22.5t-8 -22.5t-21 -9.5
t-21.5 9.5t-8.5 22.5t8.5 22.5t21.5 9.5t21 -9.5z" />
    <glyph glyph-name="uniFB2B" unicode="&#xfb2b;" horiz-adv-x="630" 
d="M463.5 96q-113.5 -104 -344.5 -106l-70 565h74l34 -283q45 24 70 51.5t36.5 67.5t13.5 103l1 59h74l-1 -58q-2 -110 -44 -174.5t-143 -108.5l19 -154q159 10 238 95.5t78 255.5l-1 146h77l1 -143q1 -212 -112.5 -316zM96 676.5q8 -9.5 8 -22.5t-8 -22.5t-21 -9.5
t-21.5 9.5t-8.5 22.5t8.5 22.5t21.5 9.5t21 -9.5z" />
    <glyph glyph-name="uniFB2C" unicode="&#xfb2c;" horiz-adv-x="630" 
d="M463.5 96q-113.5 -104 -344.5 -106l-70 565h74l34 -283q45 24 70 51.5t36.5 67.5t13.5 103l1 59h74l-1 -58q-2 -110 -44 -174.5t-143 -108.5l19 -154q159 10 238 95.5t78 255.5l-1 146h77l1 -143q1 -212 -112.5 -316zM393 301.5q8 -9.5 8 -22.5t-8 -22.5t-21 -9.5
t-21.5 9.5t-8.5 22.5t8.5 22.5t21.5 9.5t21 -9.5zM554 676.5q8 -9.5 8 -22.5t-8 -22.5t-21 -9.5t-21.5 9.5t-8.5 22.5t8.5 22.5t21.5 9.5t21 -9.5z" />
    <glyph glyph-name="uniFB2D" unicode="&#xfb2d;" horiz-adv-x="630" 
d="M463.5 96q-113.5 -104 -344.5 -106l-70 565h74l34 -283q45 24 70 51.5t36.5 67.5t13.5 103l1 59h74l-1 -58q-2 -110 -44 -174.5t-143 -108.5l19 -154q159 10 238 95.5t78 255.5l-1 146h77l1 -143q1 -212 -112.5 -316zM393 301.5q8 -9.5 8 -22.5t-8 -22.5t-21 -9.5
t-21.5 9.5t-8.5 22.5t8.5 22.5t21.5 9.5t21 -9.5zM96 676.5q8 -9.5 8 -22.5t-8 -22.5t-21 -9.5t-21.5 9.5t-8.5 22.5t8.5 22.5t21.5 9.5t21 -9.5z" />
    <glyph glyph-name="uniFB2E" unicode="&#xfb2e;" horiz-adv-x="560" 
d="M441 0l-227 341l-107 -341h-74l109 344l27 66l-92 145h79l89 -140l94 -139l23 83l60 196h75l-113 -347l141 -208h-84zM362 -94h-158v35h158v-35z" />
    <glyph glyph-name="uniFB2F" unicode="&#xfb2f;" horiz-adv-x="560" 
d="M441 0l-227 341l-107 -341h-74l109 344l27 66l-92 145h79l89 -140l94 -139l23 83l60 196h75l-113 -347l141 -208h-84zM362 -94h-67l7 -100h-39l7 100h-66v35h158v-35z" />
    <glyph glyph-name="uniFB30" unicode="&#xfb30;" horiz-adv-x="560" 
d="M441 0l-227 341l-107 -341h-74l109 344l27 66l-92 145h79l89 -140l94 -139l23 83l60 196h75l-113 -347l141 -208h-84zM271 141.5q8 -9.5 8 -22.5t-8 -22.5t-21 -9.5t-21.5 9.5t-8.5 22.5t8.5 22.5t21.5 9.5t21 -9.5z" />
    <glyph glyph-name="uniFB31" unicode="&#xfb31;" horiz-adv-x="526" 
d="M487 61v-61h-148h-288v61h288v311q0 65 -28 93.5t-80 28.5h-180v61h197q168 0 168 -186v-308h71zM204 319.5q8 -9.5 8 -22.5t-8 -22.5t-21 -9.5t-21.5 9.5t-8.5 22.5t8.5 22.5t21.5 9.5t21 -9.5z" />
    <glyph glyph-name="uniFB32" unicode="&#xfb32;" horiz-adv-x="372" 
d="M252 0l-25 136q-29 -55 -71.5 -92t-101.5 -58l-28 62q67 24 113 63t75 100v184q0 50 -12.5 72.5t-47.5 28.5l-64 10l11 60l84 -13q58 -9 82 -45t24 -107v-193l35 -208h-74zM115 325.5q8 -9.5 8 -22.5t-8 -22.5t-21 -9.5t-21.5 9.5t-8.5 22.5t8.5 22.5t21.5 9.5t21 -9.5z
" />
    <glyph glyph-name="uniFB33" unicode="&#xfb33;" horiz-adv-x="536" 
d="M306 377q0 77 27 117h-280v61h428v-61h-74q-24 -41 -24 -117v-377h-77v377zM196 319.5q8 -9.5 8 -22.5t-8 -22.5t-21 -9.5t-21.5 9.5t-8.5 22.5t8.5 22.5t21.5 9.5t21 -9.5z" />
    <glyph glyph-name="uniFB34" unicode="&#xfb34;" horiz-adv-x="546" 
d="M403 372q0 65 -28 93.5t-80 28.5h-234v61h251q168 0 168 -186v-369h-77v372zM60 270l11 67h66v-337h-77v270zM288 319.5q8 -9.5 8 -22.5t-8 -22.5t-21 -9.5t-21.5 9.5t-8.5 22.5t8.5 22.5t21.5 9.5t21 -9.5z" />
    <glyph glyph-name="uniFB35" unicode="&#xfb35;" horiz-adv-x="224" 
d="M78 438l-13 117h76l14 -117v-438h-77v438zM18 319.5q8 -9.5 8 -22.5t-8 -22.5t-21 -9.5t-21.5 9.5t-8.5 22.5t8.5 22.5t21.5 9.5t21 -9.5z" />
    <glyph glyph-name="uniFB36" unicode="&#xfb36;" horiz-adv-x="361" 
d="M127 377q0 75 28 117h-100v61h251v-61h-79q-23 -39 -23 -117v-377h-77v377zM70 319.5q8 -9.5 8 -22.5t-8 -22.5t-21 -9.5t-21.5 9.5t-8.5 22.5t8.5 22.5t21.5 9.5t21 -9.5z" />
    <glyph glyph-name="uniFB38" unicode="&#xfb38;" horiz-adv-x="553" 
d="M49 555h77l58 -494q116 12 185.5 76t64.5 195v25q0 62 -32 100t-96 42l-50 3l5 62l56 -4q88 -5 138.5 -53t53.5 -140l1 -28q6 -172 -102 -256t-292 -93zM307 325.5q8 -9.5 8 -22.5t-8 -22.5t-21 -9.5t-21.5 9.5t-8.5 22.5t8.5 22.5t21.5 9.5t21 -9.5z" />
    <glyph glyph-name="uniFB39" unicode="&#xfb39;" horiz-adv-x="224" 
d="M78 438l-13 117h76l14 -117v-149l-1 -63l-76 -16v228zM25 411.5q8 -9.5 8 -22.5t-8 -22.5t-21 -9.5t-21.5 9.5t-8.5 22.5t8.5 22.5t21.5 9.5t21 -9.5z" />
    <glyph glyph-name="uniFB3A" unicode="&#xfb3a;" horiz-adv-x="503" 
d="M357 372q0 65 -28 93.5t-80 28.5h-194v61h211q168 0 168 -186v-569h-77v572zM205 319.5q8 -9.5 8 -22.5t-8 -22.5t-21 -9.5t-21.5 9.5t-8.5 22.5t8.5 22.5t21.5 9.5t21 -9.5z" />
    <glyph glyph-name="uniFB3B" unicode="&#xfb3b;" horiz-adv-x="471" 
d="M45 61h132q81 0 122 47t41 138v63q0 91 -41 138t-122 47h-132v61h147q108 0 166.5 -64t58.5 -185v-57q0 -121 -58.5 -185t-166.5 -64h-147v61zM194 312.5q8 -9.5 8 -22.5t-8 -22.5t-21 -9.5t-21.5 9.5t-8.5 22.5t8.5 22.5t21.5 9.5t21 -9.5z" />
    <glyph glyph-name="uniFB3C" unicode="&#xfb3c;" horiz-adv-x="476" 
d="M430 555v-65l-193 -490h-77l193 494h-310v223h71v-162h316zM152 319.5q8 -9.5 8 -22.5t-8 -22.5t-21 -9.5t-21.5 9.5t-8.5 22.5t8.5 22.5t21.5 9.5t21 -9.5z" />
    <glyph glyph-name="uniFB3E" unicode="&#xfb3e;" horiz-adv-x="605" 
d="M494.5 65q-59.5 -76 -170.5 -76q-38 0 -82 9l8 61q33 -8 68 -8q83 0 122.5 57.5t39.5 171.5q0 218 -143 218q-54 0 -87 -31t-45 -81l-71 -386h-77l74 389l-77 166h80l50 -120q20 63 64 94.5t100 31.5q95 0 150.5 -65.5t55.5 -212.5q0 -142 -59.5 -218zM351 319.5
q8 -9.5 8 -22.5t-8 -22.5t-21 -9.5t-21.5 9.5t-8.5 22.5t8.5 22.5t21.5 9.5t21 -9.5z" />
    <glyph glyph-name="uniFB40" unicode="&#xfb40;" horiz-adv-x="368" 
d="M48 61h174v333q0 49 -19.5 72.5t-58.5 29.5l-67 10l11 60l87 -13q60 -10 92 -49.5t32 -107.5v-396h-251v61zM123 319.5q8 -9.5 8 -22.5t-8 -22.5t-21 -9.5t-21.5 9.5t-8.5 22.5t8.5 22.5t21.5 9.5t21 -9.5z" />
    <glyph glyph-name="uniFB41" unicode="&#xfb41;" horiz-adv-x="565" 
d="M117 -10l-61 504l-7 61h273q88 0 137.5 -54.5t52.5 -148.5l1 -31q10 -313 -396 -331zM373 130q69 58 63 193v24q0 65 -31.5 106t-88.5 41h-183l52 -433q119 11 188 69zM305 322.5q8 -9.5 8 -22.5t-8 -22.5t-21 -9.5t-21.5 9.5t-8.5 22.5t8.5 22.5t21.5 9.5t21 -9.5z" />
    <glyph glyph-name="uniFB43" unicode="&#xfb43;" horiz-adv-x="547" 
d="M425.5 491.5q51.5 -63.5 52.5 -184.5v-507h-77v509q0 185 -139 185h-105l-19 -92q-6 -31 -6 -56q0 -34 13.5 -54.5t42.5 -27.5l-19 -50q-57 9 -83 40t-26 85q0 32 7 66l32 150h179q96 0 147.5 -63.5zM309 319.5q8 -9.5 8 -22.5t-8 -22.5t-21 -9.5t-21.5 9.5t-8.5 22.5
t8.5 22.5t21.5 9.5t21 -9.5z" />
    <glyph glyph-name="uniFB44" unicode="&#xfb44;" horiz-adv-x="541" 
d="M76 61h164q78 0 124.5 43.5t46.5 143.5v61q0 91 -35 138t-106 47h-105l-26 -111q-6 -28 -6 -50q0 -34 18.5 -53t61.5 -27l-16 -53q-70 7 -101.5 39.5t-31.5 90.5q0 28 6 59l38 166h175q97 0 150.5 -64t54.5 -184v-56q0 -130 -65 -190.5t-170 -60.5h-177v61zM308 316.5
q8 -9.5 8 -22.5t-8 -22.5t-21 -9.5t-21.5 9.5t-8.5 22.5t8.5 22.5t21.5 9.5t21 -9.5z" />
    <glyph glyph-name="uniFB46" unicode="&#xfb46;" horiz-adv-x="517" 
d="M469 0h-79h-351v61h315l-295 494h80l142 -239l102 239h78l-138 -309zM169 163.5q-8 -9.5 -21 -9.5t-21.5 9.5t-8.5 22.5t8.5 22.5t21.5 9.5t21 -9.5t8 -22.5t-8 -22.5z" />
    <glyph glyph-name="uniFB47" unicode="&#xfb47;" horiz-adv-x="549" 
d="M220 61q53 6 89 25t60 66t30 132l17 210h-360v61h442l-3 -55l-16 -201q-7 -145 -73.5 -220t-177.5 -79zM58 284l11 68h66v-552h-77v484zM295 325.5q8 -9.5 8 -22.5t-8 -22.5t-21 -9.5t-21.5 9.5t-8.5 22.5t8.5 22.5t21.5 9.5t21 -9.5z" />
    <glyph glyph-name="uniFB48" unicode="&#xfb48;" horiz-adv-x="473" 
d="M326 372q0 65 -28 93.5t-80 28.5h-177v61h194q168 0 168 -186v-369h-77v372zM181 319.5q8 -9.5 8 -22.5t-8 -22.5t-21 -9.5t-21.5 9.5t-8.5 22.5t8.5 22.5t21.5 9.5t21 -9.5z" />
    <glyph glyph-name="uniFB49" unicode="&#xfb49;" horiz-adv-x="630" 
d="M463.5 96q-113.5 -104 -344.5 -106l-70 565h74l34 -283q45 24 70 51.5t36.5 67.5t13.5 103l1 59h74l-1 -58q-2 -110 -44 -174.5t-143 -108.5l19 -154q159 10 238 95.5t78 255.5l-1 146h77l1 -143q1 -212 -112.5 -316zM393 301.5q8 -9.5 8 -22.5t-8 -22.5t-21 -9.5
t-21.5 9.5t-8.5 22.5t8.5 22.5t21.5 9.5t21 -9.5z" />
    <glyph glyph-name="uniFB4A" unicode="&#xfb4a;" horiz-adv-x="605" 
d="M22 41q59 5 81.5 33.5t22.5 86.5v394h245q168 0 168 -186v-369h-77v372q0 65 -28 93.5t-80 28.5h-151v-325q0 -88 -41 -131.5t-132 -51.5zM350 319.5q8 -9.5 8 -22.5t-8 -22.5t-21 -9.5t-21.5 9.5t-8.5 22.5t8.5 22.5t21.5 9.5t21 -9.5z" />
    <glyph glyph-name="uniFB4B" unicode="&#xfb4b;" horiz-adv-x="224" 
d="M78 438l-13 117h76l14 -117v-438h-77v438zM112 673q8 -9 8 -22t-8 -22.5t-21 -9.5t-21.5 9.5t-8.5 22.5q0 12 8.5 21.5t21.5 9.5t21 -9z" />
    <glyph glyph-name="a.sups" horiz-adv-x="343" 
d="M65.5 414.5q-26.5 25.5 -26.5 68.5q0 52 47.5 80t152.5 39q-1 37 -15.5 57.5t-48.5 20.5q-25 0 -52.5 -10.5t-50.5 -24.5l-21 39q71 42 132 42q111 0 111 -131v-198h-44l-7 38h-4q-52 -46 -103 -46q-44 0 -70.5 25.5zM239 477v89q-78 -9 -111.5 -28.5t-33.5 -50.5
q0 -52 59 -52q43 0 86 42z" />
    <glyph glyph-name="e.sups" horiz-adv-x="335" 
d="M73 434q-44 45 -44 124q0 50 20 88t54 59t74 21q68 0 99.5 -45t31.5 -101q0 -14 -4 -35h-220q2 -51 31 -80.5t76 -29.5q45 0 83 26l22 -36q-55 -36 -111 -36q-68 0 -112 45zM258 583q0 41 -19.5 69.5t-61.5 28.5q-38 0 -63 -26t-30 -72h174z" />
    <glyph glyph-name="eogonek.sups" horiz-adv-x="335" 
d="M73 434q-44 45 -44 124q0 50 20 88t54 59t74 21q68 0 99.5 -45t31.5 -101q0 -14 -4 -35h-220q2 -51 31 -80.5t76 -29.5q45 0 83 26l22 -36q-55 -36 -111 -36q-68 0 -112 45zM258 583q0 41 -19.5 69.5t-61.5 28.5q-38 0 -63 -26t-30 -72h174z" />
    <glyph glyph-name="j.sups" horiz-adv-x="166" 
d="M56.5 793.5q-11.5 10.5 -11.5 26.5t11.5 26.5t28.5 10.5t28 -10.5t11 -26.5t-11 -26.5t-28 -10.5t-28.5 10.5zM-25 259l12 45q15 -5 29 -5q23 0 31 14.5t8 45.5v359h56v-355q0 -112 -89 -112q-21 0 -47 8z" />
    <glyph glyph-name="o.sups" horiz-adv-x="363" 
d="M105.5 409.5q-34.5 20.5 -55 59t-20.5 89.5q0 52 20.5 90t54.5 58t76 20t76 -20t54.5 -58t20.5 -90q0 -51 -20.5 -89.5t-55 -59t-75.5 -20.5t-75.5 20.5zM249 469.5q25 33.5 25 88.5t-25 88.5t-68 33.5t-68 -33.5t-25 -88.5t25.5 -88.5t67.5 -33.5q43 0 68 33.5z" />
    <glyph glyph-name="one.sups" horiz-adv-x="344" 
d="M165 719h-84v38q31 6 52.5 15.5t41.5 24.5h48v-390h-58v312z" />
    <glyph glyph-name="two.sups" horiz-adv-x="370" 
d="M59 441q104 94 145.5 143t41.5 91q0 39 -21 62t-57 23q-24 0 -46 -16t-40 -42l-35 32q23 34 56.5 54.5t71.5 20.5q59 0 93.5 -32.5t34.5 -93.5q0 -36 -18.5 -70t-46 -65t-86.5 -92h171v-49h-264v34z" />
    <glyph glyph-name="three.sups" horiz-adv-x="369" 
d="M100.5 416q-37.5 21 -60.5 55l39 30q19 -28 45 -44t56 -16q35 0 58.5 20t23.5 53q0 35 -33 53.5t-93 18.5v38q51 0 80.5 21t29.5 53q0 29 -19.5 47t-53.5 18q-42 0 -82 -49l-35 31q54 64 125 64q52 0 87.5 -28.5t35.5 -75.5q0 -34 -19 -58.5t-51 -38.5q36 -9 60.5 -34
t24.5 -63q0 -53 -39 -84.5t-97 -31.5q-45 0 -82.5 21z" />
    <glyph glyph-name="uni0308.cap" 
d="M-134 730.5q-13 12.5 -13 33.5q0 20 13 32.5t33 12.5t32.5 -12.5t12.5 -32.5q0 -21 -12.5 -33.5t-32.5 -12.5t-33 12.5zM68.5 730.5q-12.5 12.5 -12.5 33.5q0 20 12.5 32.5t32.5 12.5t33 -12.5t13 -32.5q0 -21 -13 -33.5t-33 -12.5t-32.5 12.5z" />
    <glyph glyph-name="uni0307.cap" 
d="M-37.5 730q-15.5 14 -15.5 37q0 21 15.5 35t37.5 14t37.5 -14t15.5 -35q0 -23 -15.5 -37t-37.5 -14t-37.5 14z" />
    <glyph glyph-name="gravecomb.cap" 
d="M-129 814l42 49l137 -127l-32 -37z" />
    <glyph glyph-name="acutecomb.cap" 
d="M-50 736l137 127l42 -49l-147 -115z" />
    <glyph glyph-name="uni0302.cap" 
d="M-144 725l106 113h76l106 -113l-32 -24l-110 94h-4l-110 -94z" />
    <glyph glyph-name="uni030C.cap" 
d="M-144 820l32 24l110 -94h4l110 94l32 -24l-106 -113h-76z" />
    <glyph glyph-name="uni0306.cap" 
d="M-101 743q-36 36 -42 91l45 8q6 -39 31 -63.5t67 -24.5t67 24.5t31 63.5l45 -8q-6 -55 -42 -91t-101 -36t-101 36z" />
    <glyph glyph-name="uni030A.cap" 
d="M-68.5 724q-26.5 25 -26.5 64q0 41 26.5 65.5t68.5 24.5q41 0 68 -25t27 -65q0 -39 -27.5 -64t-67.5 -25q-42 0 -68.5 25zM37 747.5q15 14.5 15 40.5q0 25 -15 40.5t-37 15.5q-23 0 -38 -15t-15 -41t15 -40.5t38 -14.5q22 0 37 14.5z" />
    <glyph glyph-name="tildecomb.cap" 
d="M27.5 722q-20.5 11 -43.5 31q-17 16 -30 23.5t-28 7.5q-20 0 -33.5 -18t-16.5 -50l-50 3q2 55 28.5 87.5t69.5 32.5q28 0 48.5 -11t43.5 -31q17 -16 30 -23.5t28 -7.5q20 0 33 18t17 51l50 -4q-2 -55 -28.5 -87.5t-69.5 -32.5q-28 0 -48.5 11z" />
    <glyph glyph-name="uni0304.cap" 
d="M-131 789h262v-52h-262v52z" />
    </font>
</defs>
</svg>
